<?xml version="1.0" encoding="iso-8859-1"?>
<!-- Generator: Adobe Illustrator 18.0.0, SVG Export Plug-In . SVG Version: 6.00 Build 0)  -->
<!DOCTYPE svg PUBLIC "-//W3C//DTD SVG 1.1//EN" "http://www.w3.org/Graphics/SVG/1.1/DTD/svg11.dtd">
<svg version="1.1" id="Capa_1" xmlns="http://www.w3.org/2000/svg" xmlns:xlink="http://www.w3.org/1999/xlink" x="0px" y="0px"
	 viewBox="0 0 477.246 477.246" style="enable-background:new 0 0 477.246 477.246;" xml:space="preserve">
<path style="fill:#231F20;" d="M373.549,448.364c-0.002-72.31-17.505-135.302-32.189-175.412
	c-13.824-37.762-27.496-62.391-31.304-68.959l5.346-57.623c2.376,1.285,5.093,2.017,7.978,2.017c4.12,0,7.9-1.489,10.828-3.957
	c2.929,2.468,6.708,3.957,10.829,3.957c9.279,0,16.828-7.55,16.828-16.83v-12.232c0-0.424-0.045-0.838-0.129-1.237
	c0.083-0.399,0.129-0.813,0.129-1.237v-61.82c0-31.661-23.382-38.652-30.914-40.082c0-0.782,0-1.569,0-2.364v-1.446
	c0-3.07-2.309-5.599-5.284-5.953L295.36,0.131c-0.03-0.005-0.059-0.006-0.088-0.01c-0.087-0.014-0.173-0.028-0.259-0.037
	c-0.039-0.004-0.079-0.006-0.118-0.009c-0.016-0.001-0.032-0.002-0.048-0.004c-0.055-0.004-0.111-0.009-0.166-0.012
	c-0.098-0.005-0.194-0.01-0.291-0.01c-0.006,0-0.011-0.001-0.017-0.001c-0.018,0-0.036,0.003-0.054,0.003
	c-0.025,0-0.05,0.001-0.076,0.002c-0.054,0.001-0.108,0.002-0.162,0.004c-0.098,0.005-0.196,0.011-0.293,0.021
	c-0.037,0.004-0.074,0.01-0.111,0.014c-0.005,0.001-0.01,0.002-0.015,0.002c-0.059,0.008-0.117,0.014-0.174,0.022
	c-0.092,0.014-0.183,0.028-0.273,0.047c-0.048,0.009-0.095,0.02-0.143,0.031c-0.054,0.012-0.108,0.024-0.161,0.037
	c-0.085,0.021-0.168,0.044-0.252,0.069c-0.055,0.017-0.109,0.034-0.163,0.052c-0.048,0.016-0.096,0.032-0.144,0.049
	c-0.079,0.028-0.157,0.058-0.234,0.089c-0.058,0.024-0.115,0.049-0.172,0.074c-0.042,0.019-0.084,0.038-0.126,0.058
	c-0.076,0.036-0.152,0.073-0.227,0.112c-0.056,0.029-0.11,0.059-0.164,0.09c-0.039,0.022-0.077,0.044-0.116,0.067
	c-0.075,0.045-0.149,0.091-0.223,0.14c-0.049,0.031-0.097,0.064-0.145,0.098c-0.037,0.026-0.074,0.053-0.111,0.079
	c-0.074,0.054-0.146,0.109-0.217,0.167c-0.042,0.033-0.082,0.066-0.122,0.1c-0.037,0.031-0.074,0.064-0.111,0.096
	c-0.069,0.062-0.136,0.125-0.203,0.189c-0.035,0.034-0.068,0.067-0.102,0.103c-0.039,0.039-0.076,0.078-0.114,0.118
	c-0.06,0.065-0.119,0.133-0.177,0.201c-0.03,0.035-0.06,0.071-0.089,0.108c-0.039,0.048-0.077,0.097-0.115,0.146
	c-0.049,0.065-0.096,0.13-0.142,0.197c-0.028,0.041-0.057,0.082-0.084,0.123c-0.038,0.059-0.076,0.119-0.112,0.18
	c-0.036,0.059-0.071,0.118-0.105,0.179c-0.027,0.05-0.054,0.099-0.081,0.148c-0.036,0.068-0.069,0.139-0.102,0.208
	c-0.025,0.053-0.051,0.105-0.074,0.158c-0.026,0.059-0.05,0.118-0.074,0.177c-0.03,0.074-0.057,0.149-0.083,0.225
	c-0.013,0.038-0.03,0.072-0.043,0.11c-2.116,6.312-9.451,12.758-20.122,17.686c-9.628,4.445-21.24,7.232-29.667,7.132l-0.603,0.001
	c-8.329,0.088-19.948-2.695-29.581-7.155c-10.674-4.94-18.01-11.397-20.128-17.712c-0.013-0.039-0.031-0.075-0.045-0.114
	c-0.027-0.075-0.053-0.15-0.082-0.225c-0.024-0.058-0.048-0.116-0.073-0.173c-0.024-0.056-0.051-0.108-0.076-0.162
	c-0.033-0.069-0.066-0.139-0.102-0.207c-0.026-0.05-0.053-0.099-0.081-0.147c-0.034-0.061-0.069-0.119-0.105-0.179
	c-0.037-0.061-0.074-0.121-0.113-0.181c-0.028-0.042-0.056-0.083-0.085-0.125c-0.045-0.064-0.091-0.128-0.139-0.19
	c-0.039-0.051-0.077-0.102-0.117-0.151c-0.031-0.038-0.063-0.076-0.095-0.114c-0.054-0.063-0.109-0.125-0.166-0.187
	c-0.039-0.043-0.079-0.085-0.12-0.127c-0.037-0.037-0.075-0.074-0.112-0.111c-0.06-0.058-0.12-0.113-0.181-0.168
	c-0.04-0.036-0.081-0.072-0.122-0.107c-0.046-0.039-0.093-0.076-0.14-0.114c-0.059-0.047-0.119-0.093-0.18-0.138
	c-0.044-0.032-0.087-0.064-0.131-0.095c-0.056-0.039-0.113-0.076-0.17-0.113c-0.056-0.036-0.113-0.071-0.17-0.106
	c-0.048-0.029-0.096-0.059-0.145-0.086c-0.064-0.036-0.129-0.07-0.195-0.104c-0.053-0.026-0.105-0.052-0.159-0.078
	c-0.055-0.026-0.11-0.053-0.165-0.078c-0.068-0.029-0.137-0.057-0.206-0.084c-0.051-0.021-0.102-0.04-0.154-0.059
	c-0.063-0.023-0.127-0.047-0.191-0.068c-0.065-0.021-0.131-0.041-0.197-0.06c-0.054-0.016-0.108-0.03-0.163-0.045
	c-0.072-0.019-0.145-0.037-0.218-0.054c-0.058-0.012-0.116-0.023-0.175-0.035c-0.061-0.011-0.122-0.021-0.183-0.031
	c-0.08-0.013-0.16-0.023-0.241-0.033c-0.049-0.006-0.098-0.011-0.147-0.016c-0.068-0.006-0.137-0.011-0.205-0.015
	c-0.084-0.004-0.167-0.007-0.251-0.008C182.954,0.004,182.925,0,182.895,0c-0.017,0-0.032,0.002-0.049,0.003
	c-0.072,0-0.144,0.004-0.216,0.007c-0.079,0.004-0.158,0.009-0.237,0.016c-0.054,0.005-0.107,0.008-0.161,0.014
	c-0.068,0.007-0.137,0.019-0.205,0.029c-0.042,0.006-0.085,0.008-0.127,0.015L151.532,5.19c-2.953,0.376-5.237,2.892-5.237,5.946
	v1.446c0,0.791,0,1.572,0,2.352c-7.448,1.395-30.987,8.325-30.987,40.095v61.82c0,0.424,0.045,0.838,0.129,1.237
	c-0.083,0.399-0.129,0.813-0.129,1.237v12.232c0,9.28,7.549,16.83,16.828,16.83c4.121,0,7.9-1.489,10.829-3.957
	c2.928,2.468,6.708,3.957,10.828,3.957c2.914,0,5.655-0.746,8.048-2.054l5.35,57.66c-3.809,6.568-17.48,31.197-31.304,68.959
	c-14.684,40.11-32.187,103.102-32.189,175.412v0.001v12.137c0,9.232,7.511,16.744,16.744,16.744c4.085,0,7.834-1.471,10.744-3.911
	c2.91,2.44,6.659,3.911,10.745,3.911c4.087,0,7.833-1.477,10.742-3.918c2.911,2.441,6.657,3.918,10.744,3.918
	c4.085,0,7.834-1.471,10.744-3.911c2.91,2.44,6.659,3.911,10.744,3.911c4.087,0,7.833-1.477,10.743-3.919
	c2.911,2.442,6.657,3.919,10.744,3.919c4.085,0,7.834-1.471,10.744-3.911c2.91,2.44,6.659,3.911,10.745,3.911
	c4.087,0,7.833-1.477,10.743-3.919c2.911,2.442,6.657,3.919,10.744,3.919c4.085,0,7.834-1.471,10.743-3.911
	c2.91,2.44,6.659,3.911,10.744,3.911c4.087,0,7.833-1.477,10.743-3.919c2.911,2.442,6.657,3.919,10.744,3.919
	c4.085,0,7.834-1.471,10.744-3.911c2.91,2.44,6.659,3.911,10.744,3.911c4.087,0,7.833-1.477,10.743-3.919
	c2.911,2.442,6.657,3.919,10.744,3.919c4.086,0,7.834-1.471,10.744-3.911c2.91,2.44,6.659,3.911,10.745,3.911
	c9.232,0,16.743-7.512,16.743-16.744v-12.137V448.364z M196.201,229.51h84.844v61.316c0,22.987-18.702,41.689-41.689,41.689h-1.465
	c-22.988,0-41.689-18.702-41.689-41.689V229.51z M281.045,217.51h-84.844v-6.139h84.844V217.51z M178.813,199.371l-8.088-87.181
	c-0.161-11.373,0.208-19.628,6.111-29.772c1.217-2.091,1.023-4.61-0.283-6.468c-0.273-0.512-0.597-1.002-1.027-1.433
	c-16.475-16.475-17.202-32.577-17.229-58.296l18.614-3.131c0.079,13.04,0.6,24.629,4.063,35.405
	c0.046,0.144,0.098,0.285,0.154,0.423c1.224,3.351,8.186,18.501,34.335,20.319c2.605,10.359,11.995,18.053,23.15,18.053
	c11.155,0,20.544-7.693,23.149-18.052c26.165-1.811,33.132-16.968,34.357-20.319c0.056-0.139,0.107-0.28,0.154-0.424
	c3.48-10.829,4.004-22.382,4.084-35.367l18.593,3.1c-0.027,25.715-0.756,41.815-17.229,58.289c-0.431,0.431-0.755,0.921-1.027,1.432
	c-1.306,1.858-1.5,4.378-0.283,6.469c5.903,10.145,6.272,18.399,6.111,29.772l-8.088,87.181H178.813z M328.208,131.557
	c0,2.663-2.166,4.83-4.828,4.83c-2.663,0-4.829-2.167-4.829-4.83v-6.232h9.657V131.557z M349.865,131.557
	c0,2.663-2.166,4.83-4.828,4.83c-2.663,0-4.829-2.167-4.829-4.83v-6.232h9.657V131.557z M349.865,55.029v58.295h-31.397l0.024-0.258
	c0.015-0.155,0.023-0.311,0.025-0.467c0.167-11.378-0.197-21.184-5.683-32.362c14.773-16.195,17.505-32.654,18.004-53.122
	C337.061,28.65,349.865,34.322,349.865,55.029z M237.727,40.963c0.216,0,0.434-0.001,0.647-0.004l0.44-0.001
	c14.446,0.213,35.676-6.121,49.293-17.131c-0.357,7.545-1.194,14.448-3.171,20.724c-0.053,0.142-0.1,0.286-0.142,0.434
	c-0.036,0.124-4.241,12.436-28.29,12.436c-0.003,0-0.007,0.001-0.011,0.001c-0.003,0-0.007-0.001-0.011-0.001c-3.314,0-6,2.687-6,6
	c0,6.546-5.325,11.871-11.87,11.871c-6.546,0-11.87-5.325-11.87-11.871c0-3.313-2.687-6-6-6c-23.225,0-27.915-11.419-28.303-12.49
	c-0.067-0.268-0.151-0.525-0.251-0.773c-1.883-6.15-2.688-12.942-3.033-20.372C202.574,34.648,223.376,40.964,237.727,40.963z
	 M136.965,131.557c0,2.663-2.167,4.83-4.829,4.83c-2.662,0-4.828-2.167-4.828-4.83v-6.232h9.657V131.557z M158.622,131.557
	c0,2.663-2.167,4.83-4.829,4.83c-2.662,0-4.828-2.167-4.828-4.83v-6.232h9.657V131.557z M127.308,113.324V55.029
	c0-20.786,12.904-26.423,19.1-27.933c0.497,20.477,3.227,36.94,18.004,53.141c-5.486,11.179-5.851,20.984-5.683,32.362
	c0.002,0.156,0.011,0.312,0.025,0.467l0.024,0.258H127.308z M147.042,277.387c12.58-34.428,25.299-58.119,29.761-66.016h7.398
	v79.455c0,29.604,24.085,53.689,53.689,53.689h1.465c29.605,0,53.689-24.085,53.689-53.689v-79.455h7.395
	c9.796,17.39,59.445,111.326,61.069,230.994h-36.935h-42.976h-42.975h-42.976h-42.976h-36.934
	C116.668,374.464,133.15,315.404,147.042,277.387z M120.441,465.246c-2.616,0-4.744-2.128-4.744-4.744v-6.129h9.487v6.129
	C125.185,463.118,123.057,465.246,120.441,465.246z M141.93,465.246c-2.617,0-4.745-2.128-4.745-4.744v-6.129h9.487v6.129
	C146.672,463.118,144.544,465.246,141.93,465.246z M163.416,465.246c-2.616,0-4.744-2.128-4.744-4.744v-6.129h9.488v6.129
	C168.16,463.118,166.032,465.246,163.416,465.246z M184.904,465.246c-2.616,0-4.744-2.128-4.744-4.744v-6.129h9.487v6.129
	C189.647,463.118,187.52,465.246,184.904,465.246z M206.392,465.246c-2.616,0-4.744-2.128-4.744-4.744v-6.129h9.487v6.129
	C211.135,463.118,209.007,465.246,206.392,465.246z M227.88,465.246c-2.617,0-4.745-2.128-4.745-4.744v-6.129h9.488v6.129
	C232.623,463.118,230.495,465.246,227.88,465.246z M249.367,465.246c-2.616,0-4.744-2.128-4.744-4.744v-6.129h9.487v6.129
	C254.11,463.118,251.982,465.246,249.367,465.246z M270.854,465.246c-2.616,0-4.744-2.128-4.744-4.744v-6.129h9.487v6.129
	C275.598,463.118,273.47,465.246,270.854,465.246z M292.342,465.246c-2.616,0-4.744-2.128-4.744-4.744v-6.129h9.488v6.129
	C297.086,463.118,294.958,465.246,292.342,465.246z M313.83,465.246c-2.616,0-4.744-2.128-4.744-4.744v-6.129h9.487v6.129
	C318.573,463.118,316.445,465.246,313.83,465.246z M335.317,465.246c-2.616,0-4.744-2.128-4.744-4.744v-6.129h9.487v6.129
	C340.061,463.118,337.933,465.246,335.317,465.246z M356.806,465.246c-2.617,0-4.745-2.128-4.745-4.744v-6.129h9.488v6.129
	C361.549,463.118,359.421,465.246,356.806,465.246z"/>
<g>
</g>
<g>
</g>
<g>
</g>
<g>
</g>
<g>
</g>
<g>
</g>
<g>
</g>
<g>
</g>
<g>
</g>
<g>
</g>
<g>
</g>
<g>
</g>
<g>
</g>
<g>
</g>
<g>
</g>
</svg>
