<?xml version="1.0" encoding="iso-8859-1"?>
<!-- Generator: Adobe Illustrator 18.0.0, SVG Export Plug-In . SVG Version: 6.00 Build 0)  -->
<!DOCTYPE svg PUBLIC "-//W3C//DTD SVG 1.1//EN" "http://www.w3.org/Graphics/SVG/1.1/DTD/svg11.dtd">
<svg version="1.1" id="Capa_1" xmlns="http://www.w3.org/2000/svg" xmlns:xlink="http://www.w3.org/1999/xlink" x="0px" y="0px"
	 viewBox="0 0 470.047 470.047" style="enable-background:new 0 0 470.047 470.047;" xml:space="preserve">
<g>
	<path style="fill:#231F20;" d="M292.755,232.311H177.3c-3.313,0-6,2.686-6,6v125.527c0,3.313,2.687,6,6,6h115.455
		c3.314,0,6-2.687,6-6V238.311C298.755,234.997,296.068,232.311,292.755,232.311z M183.3,357.838v-91.236h34.859
		c5.993,0,10.868,4.876,10.868,10.869c0,3.313,2.686,6,6,6c3.313,0,6-2.687,6-6c0-5.992,4.875-10.867,10.868-10.867h34.859v91.234
		H183.3z"/>
	<path style="fill:#231F20;" d="M456.071,364.143c-4.074-17.58-11.964-29.978-23.454-36.847c-11.574-6.921-26.45-7.984-44.212-3.156
		c-13.288,3.611-23.495,2.729-30.336-2.62c-10.961-8.571-10.731-26.366-10.726-26.644v-0.002l1.693-66.611
		c0.067-2.654-1.618-5.038-4.144-5.858c-4.412-1.434-8.587-3.518-12.409-6.192c-10.812-7.567-17.971-19.41-19.641-32.496
		l-10.352-81.111c-0.382-2.995-2.932-5.24-5.952-5.24h-1.431V27.18C295.11,12.192,282.917,0,267.93,0h-65.807
		c-14.987,0-27.18,12.192-27.18,27.18v70.185h-1.431c-3.02,0-5.569,2.245-5.952,5.24l-10.352,81.111
		c-1.67,13.086-8.829,24.93-19.641,32.496c-3.821,2.675-7.996,4.758-12.408,6.192c-2.525,0.82-4.211,3.204-4.144,5.858l1.69,66.477
		c0,0.051-0.005,0.101-0.003,0.151c0.005,0.178,0.185,18.048-10.681,26.594c-6.841,5.38-17.062,6.276-30.381,2.655
		c-17.761-4.826-32.636-3.765-44.211,3.155c-11.49,6.87-19.381,19.267-23.455,36.848c-0.748,3.229,1.263,6.451,4.491,7.199
		c0.456,0.106,0.911,0.156,1.36,0.156c2.729,0,5.197-1.874,5.84-4.646c3.309-14.281,9.339-24.125,17.922-29.257
		c8.67-5.183,20.412-5.813,34.907-1.875c17.18,4.669,30.957,3.053,40.946-4.803c1.507-1.186,2.864-2.471,4.089-3.822l3.485,137.103
		c0.083,3.254,2.744,5.848,5.998,5.848h204.027c3.254,0,5.915-2.594,5.998-5.848l3.485-137.096c1.223,1.35,2.577,2.631,4.082,3.814
		c9.988,7.857,23.765,9.471,40.946,4.803c14.495-3.94,26.238-3.308,34.907,1.875c8.583,5.132,14.612,14.976,17.921,29.257
		c0.643,2.772,3.111,4.646,5.84,4.646c0.449,0,0.904-0.05,1.36-0.156C454.808,370.595,456.819,367.372,456.071,364.143z
		 M186.944,27.18c0-8.37,6.81-15.18,15.18-15.18h65.807c8.37,0,15.18,6.809,15.18,15.18v70.185h-96.166V27.18z M138.863,458.047
		l-5.74-225.795c3.981-1.644,7.776-3.723,11.327-6.207c13.578-9.502,22.567-24.376,24.664-40.809l9.683-75.871h112.462l9.683,75.871
		c2.097,16.433,11.086,31.307,24.664,40.809c3.551,2.484,7.346,4.563,11.327,6.207l-5.74,225.795H138.863z"/>
</g>
<g>
</g>
<g>
</g>
<g>
</g>
<g>
</g>
<g>
</g>
<g>
</g>
<g>
</g>
<g>
</g>
<g>
</g>
<g>
</g>
<g>
</g>
<g>
</g>
<g>
</g>
<g>
</g>
<g>
</g>
</svg>
