<?xml version="1.0" encoding="iso-8859-1"?>
<!-- Generator: Adobe Illustrator 18.0.0, SVG Export Plug-In . SVG Version: 6.00 Build 0)  -->
<!DOCTYPE svg PUBLIC "-//W3C//DTD SVG 1.1//EN" "http://www.w3.org/Graphics/SVG/1.1/DTD/svg11.dtd">
<svg version="1.1" id="Capa_1" xmlns="http://www.w3.org/2000/svg" xmlns:xlink="http://www.w3.org/1999/xlink" x="0px" y="0px"
	 viewBox="0 0 406.85 406.85" style="enable-background:new 0 0 406.85 406.85;" xml:space="preserve">
<path style="fill:#231F20;" d="M380.976,251.289h-29.074c-2.684-15.266-14.046-99.103-17.069-115.112
	c-3.734-18.734-20.667-32.332-40.263-32.332c-1.816,0-3.65,0.12-5.461,0.358c-25.764,3.425-55.005,5.235-84.564,5.235
	c-30.186,0-60.029-1.883-86.311-5.447c-1.843-0.248-3.719-0.374-5.576-0.374c-19.534,0-36.463,13.551-40.266,32.28
	C69.307,151.932,57.7,236.001,54.964,251.289H25.875C11.607,251.289,0,262.897,0,277.164v0.195
	c0,14.267,11.607,25.873,25.875,25.873h355.101c14.267,0,25.874-11.607,25.874-25.875v-0.193
	C406.85,262.897,395.243,251.289,380.976,251.289z M278.4,233.957h19.216v17.332H278.4V233.957z M84.164,138.226
	c2.66-13.101,14.644-22.608,28.494-22.608c1.323,0,2.661,0.09,3.969,0.266c26.8,3.635,57.202,5.556,87.917,5.556
	c30.078,0,59.866-1.847,86.137-5.339c1.286-0.17,2.594-0.255,3.888-0.255c13.892,0,25.875,9.537,28.483,22.618
	c2.954,15.644,11.086,75.656,12.191,83.494h-25.626v-10.201c0-8.53-6.94-15.471-15.471-15.471h-12.274
	c-8.531,0-15.471,6.94-15.471,15.471v10.201H71.711C72.837,214.109,81.15,153.888,84.164,138.226z M394.85,277.357
	c0,7.65-6.224,13.875-13.874,13.875H25.875c-7.651,0-13.875-6.224-13.875-13.873v-0.195c0-7.65,6.224-13.875,13.875-13.875h355.101
	c7.65,0,13.874,6.225,13.874,13.875V277.357z"/>
<g>
</g>
<g>
</g>
<g>
</g>
<g>
</g>
<g>
</g>
<g>
</g>
<g>
</g>
<g>
</g>
<g>
</g>
<g>
</g>
<g>
</g>
<g>
</g>
<g>
</g>
<g>
</g>
<g>
</g>
</svg>
