<?xml version="1.0" encoding="iso-8859-1"?>
<!-- Generator: Adobe Illustrator 18.0.0, SVG Export Plug-In . SVG Version: 6.00 Build 0)  -->
<!DOCTYPE svg PUBLIC "-//W3C//DTD SVG 1.1//EN" "http://www.w3.org/Graphics/SVG/1.1/DTD/svg11.dtd">
<svg version="1.1" id="Capa_1" xmlns="http://www.w3.org/2000/svg" xmlns:xlink="http://www.w3.org/1999/xlink" x="0px" y="0px"
	 viewBox="0 0 377.84 377.84" style="enable-background:new 0 0 377.84 377.84;" xml:space="preserve">
<g>
	<path style="fill:#231F20;" d="M119.08,198.439c20.757,0,40.519-9.027,54.217-24.767c2.909-3.342,5.517-6.977,7.778-10.84h15.689
		c2.262,3.864,4.869,7.498,7.777,10.839c13.699,15.741,33.461,24.768,54.218,24.768h0.031c30.534,0,54.453-23.919,54.453-54.452
		c0-0.138-0.006-0.282-0.018-0.428c-0.007-5.026-0.284-16.294-11.873-36.207c-0.028-0.049-0.058-0.098-0.088-0.146L283.557,78.68
		l10.749-62.376c0.16-0.844,0.242-1.71,0.242-2.574C294.548,6.16,288.389,0,280.817,0c-2.898,0-6.052,1.149-8.389,2.853
		c-0.101,0.068,0.098-0.075,0,0L188.92,67.459L105.411,2.853c-0.098-0.075,0.101,0.068,0,0C103.075,1.149,99.921,0,97.022,0
		c-7.571,0-13.73,6.16-13.73,13.731c0,0.864,0.082,1.729,0.242,2.574l10.749,62.378l-17.709,28.523
		c-0.03,0.049-0.06,0.098-0.088,0.147c-11.543,19.834-11.862,31.093-11.871,36.148c-0.013,0.162-0.019,0.324-0.019,0.487
		C64.596,174.521,88.515,198.439,119.08,198.439z M279.542,12.523c0.073-0.052,0.146-0.106,0.218-0.162
		c0.212-0.165,0.567-0.361,1.058-0.361c0.954,0,1.73,0.776,1.73,1.731c0,0.074-0.005,0.146-0.013,0.218
		c-0.003,0.015-0.006,0.031-0.009,0.046l-10.918,63.36c-11.746,10.88-25.763,18.514-40.905,22.43l-31.977-24.739L279.542,12.523z
		 M214.596,102.495c-3.234,0.263-6.499,0.364-9.784,0.297c-2.249-0.051-4.356,1.182-5.42,3.178l-10.472,19.661l-10.472-19.661
		c-1.064-1.997-3.159-3.233-5.42-3.178c-3.286,0.068-6.55-0.034-9.784-0.296l25.676-19.864L214.596,102.495z M97.022,12
		c0.49,0,0.846,0.196,1.058,0.361c0.072,0.056,0.145,0.109,0.218,0.162l80.816,62.522l-31.979,24.74
		c-15.143-3.916-29.159-11.552-40.904-22.432L95.313,13.994c-0.003-0.015-0.006-0.031-0.009-0.046
		c-0.008-0.071-0.013-0.144-0.013-0.218C95.292,12.776,96.068,12,97.022,12z M76.615,143.917c0-3.863,0.001-12.905,10.2-30.456
		l14.933-24.051c19.032,16.112,42.801,25.049,67.808,25.392l13.941,26.175c1.042,1.957,3.079,3.18,5.296,3.18h0.254
		c2.217,0,4.254-1.223,5.296-3.18l13.941-26.175c25.008-0.343,48.776-9.28,67.81-25.391l14.931,24.05
		c10.201,17.555,10.202,26.594,10.202,30.457c0,0.133,0.006,0.27,0.017,0.41c-0.084,11.598-4.478,22.258-12.392,30.053
		c-7.896,7.776-18.572,12.059-30.061,12.059h-0.031c-17.284,0-33.746-7.525-45.166-20.647c-3.085-3.543-5.765-7.488-7.964-11.725
		c-1.032-1.988-3.085-3.236-5.325-3.236h-22.77c-2.24,0-4.293,1.247-5.325,3.236c-2.199,4.236-4.879,8.181-7.965,11.726
		c-11.419,13.121-27.881,20.646-45.196,20.646c-11.487,0-22.163-4.283-30.059-12.059c-7.903-7.783-12.295-18.424-12.392-30.001
		C76.609,144.226,76.615,144.072,76.615,143.917z"/>
	<path style="fill:#231F20;" d="M301.552,256.332c-1.113-2.648-3.944-4.137-6.755-3.551c-34.723,7.225-70.344,10.888-105.873,10.889
		c-35.6,0.001-71.299-3.679-106.105-10.937c-2.639-0.552-5.332,0.733-6.564,3.138l-7.59,14.817
		c-0.812,1.583-0.878,3.445-0.182,5.082c0.695,1.637,2.082,2.881,3.785,3.396c21,6.349,39.838,18.426,54.476,34.927
		c14.742,16.618,24.503,36.935,28.228,58.755c0.491,2.883,2.99,4.991,5.914,4.991h58.307c2.924,0,5.423-2.108,5.914-4.991
		c7.381-43.243,37.833-78.747,79.472-92.655c1.583-0.529,2.875-1.694,3.563-3.215c0.69-1.521,0.714-3.26,0.067-4.799
		L301.552,256.332z M214.227,365.84h-48.38c-4.672-22.133-15.026-42.686-30.128-59.71c-14.518-16.366-32.796-28.78-53.189-36.191
		l2.327-4.543c34.187,6.819,69.174,10.275,104.066,10.274c34.696-0.001,69.48-3.417,103.469-10.156l2.308,5.493
		C253.557,287.027,223.334,322.599,214.227,365.84z"/>
</g>
<g>
</g>
<g>
</g>
<g>
</g>
<g>
</g>
<g>
</g>
<g>
</g>
<g>
</g>
<g>
</g>
<g>
</g>
<g>
</g>
<g>
</g>
<g>
</g>
<g>
</g>
<g>
</g>
<g>
</g>
</svg>
