<?xml version="1.0" encoding="iso-8859-1"?>
<!-- Generator: Adobe Illustrator 18.0.0, SVG Export Plug-In . SVG Version: 6.00 Build 0)  -->
<!DOCTYPE svg PUBLIC "-//W3C//DTD SVG 1.1//EN" "http://www.w3.org/Graphics/SVG/1.1/DTD/svg11.dtd">
<svg version="1.1" id="Capa_1" xmlns="http://www.w3.org/2000/svg" xmlns:xlink="http://www.w3.org/1999/xlink" x="0px" y="0px"
	 viewBox="0 0 425.448 425.448" style="enable-background:new 0 0 425.448 425.448;" xml:space="preserve">
<path style="fill:#231F20;" d="M422.169,131.977l-79.765-40.622l0.135-0.052c1.501-0.572,2.709-1.723,3.355-3.192
	c0.646-1.471,0.676-3.139,0.082-4.631L324.87,30.4c-1.04-2.617-3.729-3.723-6.393-3.723c-0.265-0.035-211.242-0.035-211.508,0
	c-2.62,0-5.351,1.107-6.391,3.723L79.473,83.48c-0.593,1.492-0.563,3.16,0.083,4.631c0.646,1.47,1.854,2.62,3.355,3.192l0.135,0.052
	L3.279,131.977c-2.953,1.504-4.128,5.116-2.624,8.069c1.059,2.081,3.167,3.278,5.351,3.278c0.916,0,1.846-0.21,2.718-0.654
	l51.217-26.083v137.07c-6.05,1.841-10.466,7.469-10.466,14.111c0,6.643,4.416,12.27,10.466,14.111v110.916c0,3.314,2.686,6,6,6
	h27.067c3.313,0,6-2.686,6-6V281.881c6.05-1.841,10.467-7.468,10.467-14.111c0-6.644-4.417-12.271-10.467-14.111V97.442
	l65.02,24.795c0.703,0.268,1.425,0.395,2.136,0.395c2.019,0,3.934-1.035,5.044-2.771l-0.002,0.006l25.658-37.157l9.859,3.722
	v306.365c0,3.314,2.686,6,6,6c3.313,0,6-2.686,6-6V86.432l9.876-3.728l25.479,36.9c1.08,1.896,3.088,3.028,5.206,3.028
	c0.711,0,1.434-0.128,2.137-0.395l65.017-24.794v156.215c-6.05,1.841-10.467,7.468-10.467,14.111c0,6.644,4.417,12.27,10.467,14.111
	v110.916c0,3.314,2.687,6,6,6h27.066c3.313,0,6-2.686,6-6V281.881c6.05-1.841,10.467-7.468,10.467-14.111
	c0-6.644-4.417-12.271-10.467-14.111V116.586l51.219,26.085c0.872,0.444,1.802,0.654,2.718,0.654c2.186,0,4.292-1.197,5.352-3.278
	C426.297,137.095,425.122,133.481,422.169,131.977z M94.725,270.52h-30.5c-1.516,0-2.75-1.233-2.75-2.75
	c0-1.517,1.234-2.75,2.75-2.75h30.5c1.516,0,2.75,1.233,2.75,2.75C97.475,269.286,96.241,270.52,94.725,270.52z M162.776,108.917
	L92.872,82.26l16.671-41.929l69.904,26.659L162.776,108.917z M212.724,75.87l-20.776-7.842l0.898-2.259
	c0.594-1.492,0.564-3.16-0.082-4.631c-0.646-1.47-1.855-2.62-3.355-3.192l-50.684-19.329h147.998l-50.684,19.329
	c-1.501,0.572-2.709,1.723-3.355,3.193c-0.647,1.47-0.676,3.138-0.082,4.63l0.899,2.259L212.724,75.87z M246.001,66.99
	l69.903-26.659l16.673,41.929l-69.903,26.657L246.001,66.99z M361.222,270.52h-30.5c-1.517,0-2.75-1.233-2.75-2.75
	c0-1.517,1.233-2.75,2.75-2.75h30.5c1.517,0,2.75,1.233,2.75,2.75C363.972,269.286,362.739,270.52,361.222,270.52z"/>
<g>
</g>
<g>
</g>
<g>
</g>
<g>
</g>
<g>
</g>
<g>
</g>
<g>
</g>
<g>
</g>
<g>
</g>
<g>
</g>
<g>
</g>
<g>
</g>
<g>
</g>
<g>
</g>
<g>
</g>
</svg>
