<?xml version="1.0" encoding="iso-8859-1"?>
<!-- Generator: Adobe Illustrator 18.0.0, SVG Export Plug-In . SVG Version: 6.00 Build 0)  -->
<!DOCTYPE svg PUBLIC "-//W3C//DTD SVG 1.1//EN" "http://www.w3.org/Graphics/SVG/1.1/DTD/svg11.dtd">
<svg version="1.1" id="Capa_1" xmlns="http://www.w3.org/2000/svg" xmlns:xlink="http://www.w3.org/1999/xlink" x="0px" y="0px"
	 viewBox="0 0 347.181 347.181" style="enable-background:new 0 0 347.181 347.181;" xml:space="preserve">
<path style="fill:#231F20;" d="M306.782,328.41c-0.355-25.458-11.876-51.239-33.39-74.639c-8.868-9.645-17.682-17.022-23.984-21.814
	c0.196-0.594,0.307-23.799,0.307-23.799c0-3.314-2.686-6-6-6h-1.448l11.119-88.899c0.027-0.219,0.043-0.438,0.046-0.657
	c0.167-11.378-0.198-21.183-5.682-32.362c18.11-19.856,18.122-40.102,18.116-67.653v-1.446c0-3.079-2.32-5.613-5.308-5.957
	l-29.51-4.887c-0.537-0.158-1.104-0.246-1.692-0.246c-2.554,0-4.729,1.599-5.595,3.847c-0.058,0.136-0.114,0.27-0.162,0.412
	c-4.822,14.382-33.452,24.875-49.79,24.653c0,0-0.933,0.004-1.101,0.004c-16.312,0-44.438-10.422-49.21-24.657
	c-0.123-0.366-0.281-0.711-0.463-1.036c-0.431-0.822-1.047-1.529-1.792-2.071c-0.052-0.039-0.103-0.08-0.157-0.117
	c-0.017-0.012-0.034-0.021-0.051-0.033c-1.238-0.847-2.79-1.236-4.384-0.965l-30.21,5.108c-2.95,0.378-5.231,2.893-5.231,5.945
	v1.446c-0.005,27.552,0.005,47.798,18.117,67.653c-5.486,11.181-5.85,20.984-5.683,32.362c0.003,0.22,0.019,0.439,0.046,0.657
	l11.12,88.899h-0.959c-3.313,0-6,2.686-6,6c0,0,0.08,22.99,0.217,23.494c-6.326,4.782-15.328,12.27-24.384,22.119
	c-21.854,23.77-33.406,49.997-33.406,75.848c0,2.201,1.19,4.12,2.957,5.164c9.869,7.995,22.244,12.398,34.964,12.398
	c11.398,0,22.524-3.527,31.815-10.014c9.29,6.486,20.417,10.014,31.815,10.014c11.398,0,22.525-3.527,31.815-10.014
	c9.291,6.486,20.417,10.014,31.816,10.014c11.397,0,22.524-3.527,31.814-10.014c9.29,6.486,20.417,10.014,31.815,10.014
	c13.022,0,25.689-4.603,35.668-12.963C306.508,332.752,307.21,330.501,306.782,328.41z M241.126,289.269
	c-0.017-0.014-0.034-0.025-0.051-0.039c-0.099-0.08-0.201-0.154-0.304-0.229c-0.062-0.044-0.121-0.091-0.185-0.132
	c-0.098-0.065-0.197-0.123-0.299-0.183c-0.073-0.043-0.146-0.088-0.221-0.127c-0.088-0.046-0.178-0.086-0.268-0.128
	c-0.092-0.043-0.183-0.087-0.275-0.124c-0.075-0.03-0.152-0.056-0.229-0.083c-0.108-0.039-0.217-0.079-0.327-0.111
	c-0.066-0.02-0.136-0.034-0.203-0.052c-0.12-0.03-0.239-0.062-0.36-0.085c-0.067-0.013-0.136-0.02-0.203-0.03
	c-0.122-0.02-0.243-0.039-0.364-0.05c-0.076-0.008-0.153-0.009-0.229-0.013c-0.113-0.007-0.227-0.015-0.34-0.014
	c-0.091,0-0.181,0.007-0.271,0.011c-0.099,0.005-0.198,0.007-0.297,0.017c-0.102,0.01-0.202,0.026-0.304,0.041
	c-0.088,0.014-0.176,0.023-0.263,0.04c-0.104,0.021-0.207,0.048-0.311,0.073c-0.085,0.022-0.169,0.04-0.252,0.065
	c-0.098,0.028-0.192,0.064-0.288,0.098c-0.09,0.031-0.18,0.061-0.268,0.097c-0.082,0.033-0.163,0.073-0.245,0.11
	c-0.099,0.046-0.198,0.091-0.296,0.142c-0.067,0.036-0.133,0.076-0.199,0.115c-0.107,0.063-0.215,0.124-0.319,0.193
	c-0.058,0.039-0.113,0.082-0.17,0.122c-0.106,0.077-0.213,0.154-0.315,0.238c-0.016,0.014-0.033,0.023-0.049,0.037
	c-7.823,6.553-17.754,10.162-27.962,10.162c-10.21,0-20.141-3.608-27.962-10.162c-0.019-0.016-0.039-0.028-0.058-0.044
	c-0.092-0.074-0.187-0.144-0.281-0.212c-0.068-0.05-0.135-0.101-0.205-0.146c-0.092-0.061-0.188-0.116-0.282-0.172
	c-0.078-0.046-0.156-0.094-0.236-0.137c-0.084-0.044-0.17-0.082-0.256-0.122c-0.095-0.044-0.189-0.09-0.285-0.129
	c-0.073-0.029-0.148-0.054-0.223-0.08c-0.11-0.04-0.221-0.08-0.333-0.113c-0.066-0.02-0.135-0.034-0.201-0.051
	c-0.12-0.031-0.24-0.063-0.361-0.085c-0.069-0.014-0.14-0.021-0.21-0.032c-0.119-0.019-0.237-0.038-0.356-0.049
	c-0.082-0.008-0.164-0.009-0.246-0.014c-0.107-0.006-0.215-0.013-0.322-0.013c-0.098,0-0.195,0.007-0.293,0.012
	c-0.091,0.005-0.183,0.006-0.274,0.015c-0.11,0.011-0.22,0.029-0.329,0.046c-0.079,0.012-0.158,0.021-0.237,0.035
	c-0.113,0.022-0.225,0.052-0.337,0.08c-0.075,0.019-0.15,0.035-0.225,0.057c-0.106,0.031-0.21,0.07-0.314,0.108
	c-0.08,0.028-0.161,0.055-0.24,0.087c-0.091,0.036-0.18,0.08-0.27,0.121c-0.091,0.042-0.183,0.083-0.273,0.13
	c-0.074,0.04-0.146,0.084-0.219,0.127c-0.101,0.059-0.202,0.117-0.3,0.182c-0.064,0.043-0.125,0.09-0.187,0.135
	c-0.101,0.072-0.202,0.146-0.299,0.226c-0.018,0.014-0.036,0.025-0.053,0.04c-7.823,6.553-17.754,10.162-27.962,10.162
	s-20.139-3.609-27.962-10.162c-0.018-0.015-0.037-0.026-0.054-0.041c-0.096-0.079-0.196-0.151-0.296-0.224
	c-0.063-0.045-0.125-0.093-0.189-0.136c-0.098-0.064-0.199-0.123-0.299-0.182c-0.073-0.043-0.146-0.087-0.22-0.127
	c-0.089-0.047-0.181-0.088-0.272-0.13c-0.09-0.041-0.179-0.085-0.271-0.122c-0.077-0.031-0.156-0.057-0.235-0.085
	c-0.107-0.038-0.213-0.077-0.321-0.109c-0.069-0.02-0.14-0.035-0.209-0.053c-0.118-0.03-0.235-0.061-0.354-0.083
	c-0.069-0.014-0.139-0.021-0.208-0.032c-0.12-0.019-0.24-0.038-0.361-0.049c-0.077-0.008-0.154-0.009-0.23-0.013
	c-0.113-0.007-0.226-0.015-0.338-0.014c-0.09,0-0.18,0.007-0.271,0.011c-0.1,0.005-0.199,0.007-0.298,0.017
	c-0.101,0.01-0.201,0.026-0.301,0.041c-0.089,0.013-0.178,0.023-0.266,0.04c-0.103,0.021-0.205,0.048-0.308,0.073
	c-0.085,0.021-0.171,0.039-0.255,0.065c-0.096,0.028-0.191,0.064-0.286,0.097c-0.09,0.032-0.18,0.061-0.269,0.098
	c-0.082,0.033-0.163,0.073-0.245,0.11c-0.099,0.046-0.199,0.09-0.296,0.142c-0.068,0.036-0.134,0.077-0.201,0.115
	c-0.107,0.063-0.214,0.124-0.318,0.193c-0.058,0.039-0.114,0.082-0.171,0.123c-0.106,0.076-0.212,0.153-0.314,0.237
	c-0.016,0.013-0.033,0.023-0.049,0.037c-7.824,6.553-17.754,10.162-27.962,10.162c-6.335,0-12.572-1.4-18.27-4.034
	c3.246-7.253,7.299-13.979,11.714-20.101c2.17,0.256,4.367,0.385,6.556,0.385c11.398,0,22.524-3.527,31.815-10.014
	c9.29,6.486,20.417,10.014,31.815,10.014c11.398,0,22.525-3.527,31.815-10.014c9.291,6.486,20.417,10.014,31.816,10.014
	c11.397,0,22.524-3.527,31.814-10.014c9.29,6.486,20.417,10.014,31.815,10.014c2.14,0,4.28-0.13,6.397-0.372
	c4.42,6.136,8.476,12.88,11.719,20.157c-5.657,2.589-11.838,3.965-18.115,3.965C258.88,299.431,248.949,295.822,241.126,289.269z
	 M109.85,224.072v-9.914h127.864v9.914H109.85z M172.641,40.965c0.216,0,1.52,0,1.739,0c14.426,0,35.257-6.275,48.67-17.069
	c-0.388,7.853-1.256,14.492-3.2,20.656c-0.053,0.142-0.1,0.286-0.143,0.435c-0.035,0.124-4.24,12.436-28.289,12.436h-35.762
	c-23.224,0-27.914-11.417-28.303-12.49c-0.067-0.269-0.152-0.528-0.253-0.777c-1.859-6.056-2.698-12.583-3.077-20.274
	C137.433,34.685,158.262,40.966,172.641,40.965z M105.638,112.096c-0.158-11.323,0.226-19.56,6.113-29.678
	c1.218-2.094,1.022-4.616-0.288-6.475c-0.271-0.508-0.595-0.995-1.023-1.424C93.965,58.044,93.239,41.941,93.211,16.219
	l18.526-3.133c0.086,12.559,0.634,24.466,4.151,35.412c0.046,0.144,0.097,0.284,0.153,0.422c1.302,3.564,9.098,20.502,39.616,20.502
	h35.762c30.515,0,38.313-16.936,39.615-20.501c0.056-0.138,0.107-0.279,0.153-0.423c3.51-10.923,4.063-22.802,4.15-35.33
	l18.526,3.067c-0.027,25.713-0.757,41.813-17.229,58.284c-0.428,0.428-0.75,0.914-1.021,1.421c-1.311,1.858-1.509,4.383-0.29,6.478
	c5.887,10.117,6.27,18.354,6.113,29.679l-11.264,90.061H116.903L105.638,112.096z M112.595,236.072h121.888
	c2.842,1.851,17.424,11.695,31.54,27.491c-9.116-0.646-17.86-4.149-24.897-10.044c-0.017-0.014-0.034-0.024-0.051-0.038
	c-0.1-0.082-0.201-0.156-0.305-0.23c-0.061-0.044-0.121-0.09-0.183-0.131c-0.099-0.065-0.2-0.125-0.303-0.184
	c-0.072-0.042-0.143-0.087-0.217-0.125c-0.09-0.048-0.183-0.089-0.274-0.132c-0.089-0.041-0.178-0.084-0.268-0.121
	c-0.079-0.031-0.16-0.058-0.24-0.087c-0.105-0.037-0.209-0.075-0.315-0.106c-0.073-0.021-0.148-0.037-0.221-0.057
	c-0.114-0.028-0.228-0.059-0.342-0.08c-0.075-0.015-0.151-0.023-0.228-0.035c-0.113-0.017-0.227-0.035-0.34-0.046
	c-0.086-0.009-0.173-0.01-0.26-0.015c-0.102-0.005-0.205-0.013-0.308-0.013c-0.102,0-0.205,0.008-0.309,0.013
	c-0.086,0.005-0.173,0.006-0.26,0.015c-0.113,0.011-0.226,0.029-0.339,0.046c-0.076,0.012-0.152,0.02-0.229,0.035
	c-0.114,0.021-0.227,0.052-0.34,0.08c-0.074,0.019-0.149,0.035-0.223,0.057c-0.105,0.031-0.208,0.069-0.313,0.106
	c-0.081,0.028-0.163,0.056-0.244,0.088c-0.088,0.036-0.175,0.078-0.263,0.119c-0.093,0.043-0.188,0.085-0.278,0.133
	c-0.072,0.038-0.142,0.081-0.212,0.122c-0.104,0.06-0.208,0.121-0.309,0.188c-0.06,0.04-0.117,0.084-0.176,0.126
	c-0.105,0.075-0.21,0.152-0.312,0.235c-0.016,0.014-0.033,0.023-0.049,0.037c-7.823,6.553-17.754,10.162-27.962,10.162
	c-10.21,0-20.141-3.608-27.962-10.162c-0.019-0.016-0.039-0.028-0.058-0.044c-0.092-0.075-0.188-0.144-0.282-0.213
	c-0.068-0.049-0.135-0.1-0.203-0.145c-0.094-0.061-0.189-0.117-0.285-0.173c-0.077-0.046-0.154-0.094-0.233-0.135
	c-0.086-0.045-0.173-0.084-0.26-0.124c-0.094-0.044-0.187-0.089-0.281-0.128c-0.075-0.03-0.152-0.055-0.229-0.082
	c-0.108-0.039-0.217-0.079-0.327-0.111c-0.068-0.021-0.139-0.035-0.209-0.053c-0.117-0.03-0.234-0.061-0.354-0.083
	c-0.072-0.015-0.145-0.022-0.218-0.034c-0.116-0.018-0.232-0.036-0.348-0.047c-0.085-0.008-0.17-0.01-0.255-0.015
	c-0.104-0.005-0.208-0.013-0.313-0.013c-0.101,0-0.202,0.008-0.303,0.013c-0.088,0.004-0.177,0.006-0.265,0.015
	c-0.112,0.011-0.223,0.028-0.334,0.046c-0.078,0.012-0.156,0.02-0.233,0.035c-0.113,0.021-0.225,0.051-0.337,0.08
	c-0.075,0.019-0.15,0.035-0.225,0.057c-0.105,0.031-0.209,0.069-0.313,0.106c-0.081,0.028-0.162,0.055-0.242,0.087
	c-0.089,0.037-0.177,0.079-0.265,0.12c-0.093,0.043-0.186,0.085-0.277,0.133c-0.072,0.038-0.143,0.082-0.214,0.123
	c-0.103,0.059-0.206,0.119-0.305,0.186c-0.062,0.041-0.121,0.087-0.182,0.13c-0.103,0.074-0.206,0.149-0.305,0.23
	c-0.017,0.014-0.035,0.025-0.051,0.039c-7.823,6.553-17.754,10.162-27.962,10.162s-20.139-3.609-27.962-10.162
	c-0.018-0.015-0.037-0.026-0.054-0.041c-0.097-0.079-0.197-0.152-0.298-0.225c-0.062-0.045-0.124-0.092-0.187-0.134
	c-0.099-0.066-0.201-0.125-0.303-0.184c-0.072-0.042-0.143-0.086-0.216-0.124c-0.091-0.048-0.185-0.09-0.279-0.134
	c-0.087-0.04-0.174-0.082-0.263-0.118c-0.081-0.033-0.164-0.06-0.246-0.089c-0.103-0.037-0.205-0.074-0.31-0.105
	c-0.075-0.021-0.15-0.038-0.226-0.057c-0.112-0.029-0.224-0.059-0.337-0.08c-0.077-0.015-0.154-0.023-0.231-0.035
	c-0.112-0.017-0.224-0.035-0.337-0.046c-0.087-0.009-0.174-0.01-0.261-0.015c-0.102-0.005-0.205-0.013-0.307-0.013
	c-0.103,0-0.205,0.008-0.307,0.013c-0.087,0.005-0.174,0.006-0.261,0.015c-0.113,0.011-0.225,0.029-0.338,0.046
	c-0.077,0.012-0.153,0.02-0.23,0.035c-0.114,0.021-0.227,0.052-0.34,0.08c-0.074,0.019-0.148,0.035-0.222,0.057
	c-0.106,0.031-0.21,0.069-0.315,0.107c-0.08,0.028-0.161,0.055-0.24,0.086c-0.091,0.037-0.18,0.08-0.269,0.122
	c-0.091,0.042-0.183,0.083-0.272,0.13c-0.075,0.04-0.147,0.084-0.22,0.127c-0.1,0.059-0.201,0.117-0.299,0.182
	c-0.063,0.043-0.125,0.09-0.188,0.135c-0.101,0.073-0.202,0.146-0.299,0.226c-0.017,0.015-0.036,0.025-0.053,0.04
	c-7.082,5.932-15.892,9.441-25.071,10.055C95.192,247.79,109.752,237.929,112.595,236.072z M241.126,325.019
	c-0.017-0.014-0.034-0.025-0.051-0.039c-0.099-0.08-0.201-0.154-0.304-0.229c-0.062-0.044-0.121-0.091-0.185-0.132
	c-0.097-0.065-0.197-0.123-0.297-0.182c-0.074-0.043-0.148-0.089-0.224-0.128c-0.087-0.046-0.175-0.085-0.263-0.126
	c-0.094-0.044-0.186-0.089-0.28-0.127c-0.073-0.029-0.148-0.054-0.223-0.08c-0.11-0.04-0.222-0.08-0.334-0.113
	c-0.063-0.019-0.128-0.032-0.192-0.049c-0.124-0.032-0.248-0.064-0.373-0.088c-0.062-0.012-0.123-0.018-0.186-0.028
	c-0.127-0.021-0.254-0.041-0.383-0.053c-0.068-0.006-0.138-0.007-0.207-0.012c-0.121-0.007-0.241-0.015-0.362-0.015
	c-0.081,0.001-0.163,0.007-0.245,0.011c-0.107,0.004-0.216,0.007-0.323,0.017c-0.093,0.009-0.185,0.025-0.276,0.038
	c-0.098,0.014-0.194,0.025-0.291,0.044c-0.095,0.018-0.189,0.044-0.283,0.066c-0.094,0.023-0.188,0.044-0.279,0.071
	c-0.089,0.026-0.176,0.059-0.264,0.089c-0.098,0.034-0.195,0.066-0.291,0.105c-0.076,0.031-0.149,0.067-0.225,0.102
	c-0.106,0.049-0.213,0.097-0.316,0.151c-0.063,0.033-0.122,0.07-0.183,0.105c-0.113,0.065-0.226,0.131-0.335,0.203
	c-0.054,0.036-0.106,0.076-0.159,0.114c-0.11,0.079-0.22,0.159-0.325,0.246c-0.016,0.013-0.031,0.022-0.047,0.035
	c-7.823,6.553-17.754,10.162-27.962,10.162c-10.21,0-20.141-3.608-27.962-10.162c-0.019-0.016-0.039-0.028-0.058-0.044
	c-0.092-0.074-0.187-0.144-0.281-0.212c-0.068-0.05-0.135-0.101-0.205-0.146c-0.092-0.061-0.188-0.116-0.282-0.172
	c-0.078-0.046-0.156-0.094-0.236-0.137c-0.084-0.044-0.17-0.082-0.256-0.122c-0.095-0.044-0.189-0.09-0.285-0.129
	c-0.073-0.029-0.148-0.054-0.223-0.08c-0.11-0.04-0.221-0.08-0.333-0.113c-0.066-0.02-0.135-0.034-0.201-0.051
	c-0.12-0.031-0.24-0.063-0.361-0.085c-0.069-0.014-0.14-0.021-0.21-0.032c-0.119-0.019-0.237-0.038-0.356-0.049
	c-0.082-0.008-0.164-0.009-0.246-0.014c-0.107-0.006-0.215-0.013-0.322-0.013c-0.098,0-0.195,0.007-0.293,0.012
	c-0.091,0.005-0.183,0.006-0.274,0.015c-0.11,0.011-0.22,0.029-0.329,0.046c-0.079,0.012-0.158,0.021-0.237,0.035
	c-0.113,0.022-0.225,0.052-0.337,0.08c-0.075,0.019-0.15,0.035-0.225,0.057c-0.106,0.031-0.21,0.07-0.314,0.108
	c-0.08,0.028-0.161,0.055-0.24,0.087c-0.091,0.036-0.18,0.08-0.27,0.121c-0.091,0.042-0.183,0.083-0.273,0.13
	c-0.074,0.04-0.146,0.084-0.219,0.127c-0.101,0.059-0.202,0.117-0.3,0.182c-0.064,0.043-0.125,0.09-0.187,0.135
	c-0.101,0.072-0.202,0.146-0.299,0.226c-0.018,0.014-0.036,0.025-0.053,0.04c-7.823,6.553-17.754,10.162-27.962,10.162
	s-20.139-3.609-27.962-10.162c-0.018-0.015-0.037-0.026-0.054-0.041c-0.096-0.079-0.196-0.151-0.296-0.224
	c-0.063-0.045-0.125-0.093-0.189-0.136c-0.097-0.064-0.198-0.122-0.298-0.181c-0.074-0.043-0.147-0.089-0.222-0.128
	c-0.087-0.046-0.178-0.086-0.267-0.128c-0.092-0.042-0.183-0.087-0.275-0.124c-0.075-0.03-0.152-0.056-0.228-0.083
	c-0.109-0.039-0.219-0.079-0.33-0.111c-0.065-0.02-0.131-0.033-0.197-0.05c-0.122-0.032-0.245-0.064-0.368-0.087
	c-0.063-0.012-0.126-0.02-0.189-0.029c-0.126-0.02-0.252-0.04-0.379-0.052c-0.069-0.007-0.139-0.008-0.209-0.012
	c-0.12-0.007-0.24-0.015-0.361-0.015c-0.081,0.001-0.163,0.007-0.245,0.011c-0.108,0.004-0.217,0.007-0.325,0.017
	c-0.092,0.009-0.183,0.025-0.275,0.037c-0.097,0.015-0.195,0.026-0.291,0.045c-0.096,0.018-0.19,0.044-0.284,0.066
	c-0.093,0.023-0.187,0.044-0.278,0.071c-0.09,0.026-0.178,0.059-0.267,0.091c-0.096,0.033-0.193,0.065-0.288,0.104
	c-0.078,0.031-0.153,0.069-0.23,0.103c-0.104,0.048-0.209,0.095-0.31,0.148c-0.065,0.034-0.128,0.074-0.192,0.11
	c-0.109,0.064-0.219,0.127-0.325,0.197c-0.058,0.039-0.114,0.082-0.171,0.123c-0.105,0.076-0.211,0.152-0.312,0.236
	c-0.017,0.014-0.034,0.025-0.051,0.038c-7.823,6.553-17.753,10.162-27.961,10.162c-9.316,0-18.395-3.015-25.858-8.52
	c0.27-6.96,1.478-13.634,3.378-19.981c7.046,3.116,14.71,4.751,22.48,4.751c11.398,0,22.524-3.527,31.815-10.014
	c9.29,6.486,20.417,10.014,31.815,10.014c11.398,0,22.525-3.527,31.815-10.014c9.291,6.486,20.417,10.014,31.816,10.014
	c11.397,0,22.524-3.527,31.814-10.014c9.29,6.486,20.417,10.014,31.815,10.014c7.705,0,15.307-1.608,22.306-4.676
	c1.894,6.368,3.094,13.066,3.35,20.055c-7.425,5.411-16.423,8.371-25.655,8.371C258.88,335.181,248.949,331.572,241.126,325.019z"/>
<g>
</g>
<g>
</g>
<g>
</g>
<g>
</g>
<g>
</g>
<g>
</g>
<g>
</g>
<g>
</g>
<g>
</g>
<g>
</g>
<g>
</g>
<g>
</g>
<g>
</g>
<g>
</g>
<g>
</g>
</svg>
