<?xml version="1.0" encoding="iso-8859-1"?>
<!-- Generator: Adobe Illustrator 18.0.0, SVG Export Plug-In . SVG Version: 6.00 Build 0)  -->
<!DOCTYPE svg PUBLIC "-//W3C//DTD SVG 1.1//EN" "http://www.w3.org/Graphics/SVG/1.1/DTD/svg11.dtd">
<svg version="1.1" id="Capa_1" xmlns="http://www.w3.org/2000/svg" xmlns:xlink="http://www.w3.org/1999/xlink" x="0px" y="0px"
	 viewBox="0 0 486.832 486.832" style="enable-background:new 0 0 486.832 486.832;" xml:space="preserve">
<g>
	<path style="fill:#231F20;" d="M380.074,368.756h-5.537v-180.84c0-0.866-0.188-1.723-0.55-2.51
		c-14.859-32.271-23.522-66.718-25.744-102.383c-0.197-3.163-2.819-5.627-5.988-5.627h-12.768V6c0-3.313-2.686-6-6-6h-28.223
		c-3.069,0-5.597,2.307-5.953,5.281l-23.307,72.115h-45.178L197.52,5.281C197.164,2.307,194.637,0,191.567,0h-28.223
		c-3.313,0-6,2.687-6,6v71.396h-12.768c-3.169,0-5.791,2.464-5.988,5.627c-2.223,35.665-10.885,70.112-25.744,102.383
		c-0.362,0.787-0.55,1.644-0.55,2.51v180.84h-5.537c-3.313,0-6,2.687-6,6v73.938c0,3.314,2.687,6,6,6h5.537v26.139
		c0,3.314,2.687,6,6,6h108.554c0.43,0,0.849-0.047,1.253-0.133c2.742-0.554,4.807-2.977,4.807-5.881
		c0-6.977-1.36-13.699-4.045-20.029c2.687-6.327,4.047-13.052,4.047-20.029v-50.004h20.987v50.004c0,6.979,1.36,13.703,4.046,20.029
		c-2.684,6.329-4.045,13.053-4.045,20.029c0,2.927,2.097,5.36,4.869,5.89c0.392,0.081,0.799,0.124,1.216,0.124h108.554
		c3.313,0,6-2.686,6-6v-26.139h5.537c3.314,0,6-2.686,6-6v-73.938C386.074,371.442,383.388,368.756,380.074,368.756z
		 M341.873,442.693v-39.836h32.201v39.836H341.873z M341.873,390.857v-10.102h32.201v10.102H341.873z M301.265,12h16.223v120.168
		c0,3.309-2.691,6-6,6h-4.223c-3.309,0-6-2.691-6-6V12z M169.345,12h16.223v120.168c0,3.309-2.691,6-6,6h-4.223
		c-3.309,0-6-2.691-6-6V12z M112.758,442.693v-39.836h32.201v39.836H112.758z M144.959,390.857h-32.201v-10.102h32.201V390.857z
		 M266.358,474.832c0.598-3.953,1.78-7.768,3.564-11.393c0.015-0.03,0.025-0.062,0.04-0.093c0.043-0.093,0.082-0.186,0.121-0.281
		c0.038-0.093,0.076-0.185,0.109-0.278c0.029-0.082,0.054-0.165,0.079-0.249c0.032-0.107,0.065-0.213,0.093-0.321
		c0.018-0.074,0.031-0.149,0.047-0.225c0.023-0.115,0.048-0.231,0.064-0.348c0.011-0.076,0.017-0.153,0.025-0.231
		c0.012-0.113,0.025-0.227,0.03-0.341c0.004-0.09,0.002-0.181,0.002-0.271c0-0.1,0.003-0.2-0.002-0.3
		c-0.006-0.104-0.017-0.21-0.028-0.315c-0.009-0.086-0.015-0.172-0.027-0.258c-0.016-0.108-0.039-0.216-0.061-0.324
		c-0.017-0.083-0.032-0.166-0.052-0.248c-0.025-0.101-0.057-0.199-0.086-0.299c-0.027-0.091-0.055-0.183-0.087-0.273
		c-0.03-0.085-0.065-0.169-0.101-0.254c-0.041-0.103-0.084-0.206-0.132-0.308c-0.013-0.027-0.023-0.056-0.036-0.083
		c-2.671-5.424-4.025-11.271-4.025-17.379v-50.004h7.941c3.313,0,6-2.686,6-6c0-3.313-2.687-6-6-6h-60.846
		c-2.711,0-5.086,1.818-5.793,4.436c-0.706,2.618,0.43,5.384,2.772,6.749l10.938,6.372v44.447c0,6.106-1.354,11.954-4.024,17.38
		c-0.013,0.025-0.02,0.051-0.033,0.076c-0.051,0.107-0.096,0.217-0.141,0.326c-0.032,0.079-0.064,0.157-0.093,0.236
		c-0.034,0.097-0.063,0.194-0.093,0.292c-0.028,0.094-0.058,0.186-0.081,0.281c-0.021,0.087-0.037,0.176-0.055,0.264
		c-0.02,0.103-0.043,0.207-0.059,0.311c-0.013,0.088-0.018,0.177-0.027,0.265c-0.011,0.104-0.023,0.206-0.028,0.31
		c-0.005,0.099-0.003,0.197-0.002,0.297c0,0.092-0.003,0.185,0.002,0.276c0.005,0.11,0.018,0.22,0.029,0.33
		c0.009,0.081,0.015,0.163,0.026,0.243c0.016,0.111,0.039,0.222,0.061,0.333c0.017,0.081,0.031,0.161,0.051,0.241
		c0.024,0.101,0.056,0.201,0.087,0.301c0.027,0.091,0.053,0.182,0.085,0.271c0.03,0.086,0.066,0.17,0.101,0.256
		c0.042,0.103,0.085,0.205,0.132,0.305c0.013,0.028,0.022,0.057,0.036,0.084c1.783,3.626,2.966,7.442,3.563,11.395h-96.153v-20.139
		h26.664c3.313,0,6-2.686,6-6v-73.938c0-3.313-2.687-6-6-6h-26.664V189.224c14.37-31.57,23.062-65.122,25.868-99.827h7.182v42.771
		c0,9.925,8.075,18,18,18h4.223c9.925,0,18-8.075,18-18V89.396h91.697v42.771c0,9.925,8.075,18,18,18h4.223c9.925,0,18-8.075,18-18
		V89.396h7.182c2.807,34.705,11.498,68.257,25.868,99.827v179.532h-26.664c-3.313,0-6,2.687-6,6v73.938c0,3.314,2.687,6,6,6
		l26.664,6.44v13.698H266.358z"/>
	<path style="fill:#231F20;" d="M303.75,196.715H183.082c-3.314,0-6,2.687-6,6v126.668c0,3.313,2.686,6,6,6H303.75
		c3.314,0,6-2.687,6-6V202.715C309.75,199.401,307.064,196.715,303.75,196.715z M288.617,208.715l-17.261,17.26h-55.881
		l-17.261-17.26H288.617z M189.082,323.383V216.554l19.666,19.664c1.125,1.125,2.651,1.757,4.242,1.757h60.852
		c1.591,0,3.117-0.632,4.242-1.757l19.666-19.664v106.829H189.082z"/>
</g>
<g>
</g>
<g>
</g>
<g>
</g>
<g>
</g>
<g>
</g>
<g>
</g>
<g>
</g>
<g>
</g>
<g>
</g>
<g>
</g>
<g>
</g>
<g>
</g>
<g>
</g>
<g>
</g>
<g>
</g>
</svg>
