<?xml version="1.0" encoding="iso-8859-1"?>
<!-- Generator: Adobe Illustrator 18.0.0, SVG Export Plug-In . SVG Version: 6.00 Build 0)  -->
<!DOCTYPE svg PUBLIC "-//W3C//DTD SVG 1.1//EN" "http://www.w3.org/Graphics/SVG/1.1/DTD/svg11.dtd">
<svg version="1.1" id="Capa_1" xmlns="http://www.w3.org/2000/svg" xmlns:xlink="http://www.w3.org/1999/xlink" x="0px" y="0px"
	 viewBox="0 0 448.957 448.957" style="enable-background:new 0 0 448.957 448.957;" xml:space="preserve">
<path style="fill:#231F20;" d="M381.177,158.771c-0.133-0.082-0.268-0.158-0.407-0.229l-143.16-73.539l4.041-2.076
	c2.948-1.514,4.11-5.131,2.596-8.078c-1.514-2.947-5.131-4.111-8.078-2.596l-5.689,2.923v-9.977c0-2.647,1.573-5.021,4.007-6.05
	c0.005-0.002,0.009-0.005,0.013-0.006c0.01-0.005,0.02-0.008,0.03-0.013c0.019-0.009,0.036-0.019,0.056-0.029
	c0.227-0.101,0.443-0.216,0.652-0.341c10.338-5.277,16.985-16.046,16.985-27.684C252.222,13.94,238.282,0,221.147,0
	c-17.135,0-31.075,13.94-31.075,31.076c0,3.313,2.687,6,6,6c3.313,0,6-2.687,6-6c0-10.519,8.557-19.076,19.075-19.076
	c10.518,0,19.074,8.558,19.074,19.076c0,7.31-4.266,14.072-10.867,17.226c-0.039,0.019-0.074,0.041-0.112,0.061
	c-6.556,3.035-10.764,9.569-10.764,16.836v9.977l-5.689-2.923c-2.945-1.516-6.564-0.352-8.078,2.596
	c-1.515,2.947-0.353,6.564,2.596,8.078l4.041,2.076l-143.16,73.539c-0.139,0.071-0.275,0.147-0.408,0.229
	c-6.966,4.296-11.125,11.744-11.125,19.926c0,14.701,11.959,26.662,26.658,26.662h4.334c-0.906,3.32-1.398,6.809-1.398,10.412
	v197.846c0,3.313,2.687,6,6,6h1.907v23.34c0,3.314,2.687,6,6,6c3.313,0,6-2.686,6-6v-23.34h11.997v23.34c0,3.314,2.687,6,6,6
	c3.313,0,6-2.686,6-6v-23.34h11.997v23.34c0,3.314,2.687,6,6,6c3.314,0,6-2.686,6-6v-23.34h11.998v23.34c0,3.314,2.687,6,6,6
	c3.314,0,6-2.686,6-6v-23.34h11.997v23.34c0,3.314,2.686,6,6,6c3.313,0,6-2.686,6-6v-23.34h11.997v23.34c0,3.314,2.686,6,6,6
	c3.313,0,6-2.686,6-6v-23.34h2.093c3.313,0,6-2.687,6-6V366.69h4.418v23.341c0,3.314,2.687,6,6,6c3.314,0,6-2.686,6-6v-23.34h8.197
	v23.34c0,3.314,2.686,6,6,6c3.313,0,6-2.686,6-6v-23.34h2c1.591,0,3.117-0.632,4.242-1.757c1.126-1.126,1.758-2.652,1.758-4.243
	V205.359h86.793c14.7,0,26.66-11.961,26.66-26.662C392.303,170.515,388.143,163.066,381.177,158.771z M222.234,215.771v191.846
	H98.248V215.771c0-15.228,12.388-27.615,27.615-27.615h107.608C226.52,195.297,222.234,205.043,222.234,215.771z M266.85,354.691
	l-32.615-0.001V215.771c0-3.304,0.585-6.474,1.653-9.413l30.962,30.961V354.691z M365.643,193.359H278.85v-11.203
	c0-3.313-2.687-6-6-6H125.863c-13.53,0-25.492,6.822-32.643,17.203h-9.908c-8.083,0-14.658-6.577-14.658-14.662
	c0-3.917,1.957-7.489,5.246-9.6l150.578-77.35l150.579,77.35c3.288,2.109,5.245,5.683,5.245,9.6
	C380.303,186.782,373.727,193.359,365.643,193.359z"/>
<g>
</g>
<g>
</g>
<g>
</g>
<g>
</g>
<g>
</g>
<g>
</g>
<g>
</g>
<g>
</g>
<g>
</g>
<g>
</g>
<g>
</g>
<g>
</g>
<g>
</g>
<g>
</g>
<g>
</g>
</svg>
