<?xml version="1.0" encoding="iso-8859-1"?>
<!-- Generator: Adobe Illustrator 18.0.0, SVG Export Plug-In . SVG Version: 6.00 Build 0)  -->
<!DOCTYPE svg PUBLIC "-//W3C//DTD SVG 1.1//EN" "http://www.w3.org/Graphics/SVG/1.1/DTD/svg11.dtd">
<svg version="1.1" id="Capa_1" xmlns="http://www.w3.org/2000/svg" xmlns:xlink="http://www.w3.org/1999/xlink" x="0px" y="0px"
	 viewBox="0 0 480.381 480.381" style="enable-background:new 0 0 480.381 480.381;" xml:space="preserve">
<g>
	<path style="fill:#231F20;" d="M396.889,158.771c-0.133-0.082-0.268-0.158-0.407-0.229l-143.16-73.539l4.041-2.076
		c2.948-1.514,4.11-5.131,2.596-8.078c-1.514-2.947-5.131-4.111-8.078-2.596l-5.689,2.923v-9.975c0-2.647,1.573-5.021,4.007-6.05
		c0.273-0.115,0.528-0.255,0.775-0.404c10.324-5.278,16.961-16.039,16.961-27.669C267.934,13.941,253.994,0,236.859,0
		c-17.135,0-31.075,13.941-31.075,31.078c0,3.314,2.686,6,6,6c3.313,0,6-2.686,6-6c0-10.52,8.557-19.078,19.075-19.078
		c10.518,0,19.074,8.559,19.074,19.078c0,7.311-4.266,14.071-10.866,17.225c-0.046,0.021-0.088,0.049-0.133,0.072
		c-6.544,3.038-10.744,9.566-10.744,16.826v9.975l-5.689-2.923c-2.946-1.516-6.563-0.352-8.078,2.596
		c-1.515,2.947-0.353,6.564,2.596,8.078l4.041,2.076l-143.16,73.539c-0.139,0.071-0.275,0.147-0.408,0.229
		c-6.966,4.296-11.125,11.745-11.125,19.928c0,14.7,11.959,26.66,26.658,26.66h9.891l-23.819,104.71
		c-0.1,0.437-0.149,0.883-0.149,1.331v131.732v31.248c0,3.313,2.687,6,6,6h153.686c3.314,0,6-2.687,6-6v-37.354h27.526
		c3.313,0,6-2.687,6-6v-34.971c0-3.313-2.687-6-6-6h-0.095V205.359h103.29c14.7,0,26.66-11.96,26.66-26.66
		C408.015,170.516,403.855,163.066,396.889,158.771z M115.538,468.381H96.946v-19.248h18.592V468.381z M181.852,468.381h-54.313
		v-19.248h54.313V468.381z M238.633,468.381h-44.781v-19.248h44.781V468.381z M238.633,437.133H96.946V312.074l24.516-107.771
		c2.41-9.509,10.942-16.145,20.771-16.145h104.25c-4.801,5.719-7.741,13.058-7.85,21.063V437.133z M272.159,425.027h-21.519v-22.971
		h21.519V425.027z M250.633,390.057l-0.001-174.648l15.433,15.433v159.216H250.633z M381.355,193.359h-103.29v-11.201
		c0-3.314-2.686-6-6-6H142.232c-12.393,0-23.461,6.77-29.237,17.201H99.024c-8.083,0-14.658-6.576-14.658-14.66
		c0-3.918,1.957-7.491,5.246-9.602l150.578-77.35l150.579,77.35c3.288,2.109,5.245,5.684,5.245,9.602
		C396.015,186.783,389.438,193.359,381.355,193.359z"/>
	<path style="fill:#231F20;" d="M197.555,331.06h-55.098c-10.888,0-19.745,8.858-19.745,19.746v58.09c0,3.313,2.687,6,6,6h82.589
		c3.313,0,6-2.687,6-6v-58.09C217.301,339.919,208.442,331.06,197.555,331.06z M142.826,402.897l27.179-18.58l27.181,18.58H142.826z
		 M205.301,393.976c-0.191-0.17-0.39-0.333-0.607-0.481l-31.304-21.398c-2.041-1.397-4.73-1.397-6.771,0l-31.302,21.398
		c-0.216,0.147-0.415,0.311-0.605,0.48v-43.168c0-4.271,3.475-7.746,7.745-7.746h55.098c4.271,0,7.746,3.475,7.746,7.746V393.976z"
		/>
</g>
<g>
</g>
<g>
</g>
<g>
</g>
<g>
</g>
<g>
</g>
<g>
</g>
<g>
</g>
<g>
</g>
<g>
</g>
<g>
</g>
<g>
</g>
<g>
</g>
<g>
</g>
<g>
</g>
<g>
</g>
</svg>
