<?xml version="1.0" encoding="iso-8859-1"?>
<!-- Generator: Adobe Illustrator 18.0.0, SVG Export Plug-In . SVG Version: 6.00 Build 0)  -->
<!DOCTYPE svg PUBLIC "-//W3C//DTD SVG 1.1//EN" "http://www.w3.org/Graphics/SVG/1.1/DTD/svg11.dtd">
<svg version="1.1" id="Capa_1" xmlns="http://www.w3.org/2000/svg" xmlns:xlink="http://www.w3.org/1999/xlink" x="0px" y="0px"
	 viewBox="0 0 488.997 488.997" style="enable-background:new 0 0 488.997 488.997;" xml:space="preserve">
<path style="fill:#231F20;" d="M406.166,289.419h-2.729l-9.749-226.825c-0.05-13.102-7.386-24.787-19.172-30.52
	c-0.165-0.08-0.333-0.152-0.504-0.217l-49.147-18.57c-0.919-2.291-2.197-4.409-3.818-6.265c-4.041-4.623-9.728-7.175-15.685-7.016
	H183.634c-5.95-0.158-11.643,2.393-15.685,7.016c-1.622,1.856-2.899,3.974-3.818,6.265l-49.147,18.57
	c-0.171,0.064-0.339,0.137-0.504,0.217c-11.786,5.732-19.122,17.418-19.172,30.52L85.56,289.419h-2.729c-3.313,0-6,2.686-6,6v38.5
	c0,3.314,2.687,6,6,6h64.013L134.043,482.46c-0.15,1.679,0.411,3.342,1.548,4.586c1.137,1.243,2.744,1.951,4.428,1.951h208.96
	c1.685,0,3.291-0.708,4.428-1.951c1.137-1.244,1.698-2.907,1.548-4.586l-12.801-142.541h64.012c3.314,0,6-2.686,6-6v-38.5
	C412.166,292.106,409.479,289.419,406.166,289.419z M300.49,33.555c4.117-6.958,4.71-14.858,1.733-21.548h3.227
	c0.065,0,0.13-0.001,0.195-0.003c2.375-0.089,4.68,0.986,6.367,2.916c2.167,2.479,3.004,5.965,2.356,9.814
	c-0.037,0.222-2.01,36.383-2.01,36.383c-7.079,3.806-11.6,11.188-11.6,19.489c0,2.634,0.475,5.238,1.39,7.694l-51.651,70.964
	v-44.878l49.936-80.739C300.453,33.616,300.472,33.586,300.49,33.555z M250.962,389.905h-20.927v-177h20.927V389.905z
	 M256.962,401.905c3.314,0,6-2.686,6-6V228.831h8.463l0,180.461h-20.927v-7.387H256.962z M244.499,101.29l-40.378-65.271h80.756
	L244.499,101.29z M290.85,16.047c1.323,2.319,1.556,5.143,0.77,7.972h-94.241c-0.787-2.829-0.553-5.652,0.769-7.972
	c1.467-2.572,3.961-4.048,6.843-4.048c0,0,78.872,0,79.016,0C286.889,11.999,289.383,13.475,290.85,16.047z M176.984,14.92
	c1.687-1.931,4.016-3.003,6.367-2.916c0.065,0.002,0.13,0.003,0.195,0.003h3.227c-2.977,6.689-2.384,14.59,1.733,21.548
	c0.018,0.031,0.037,0.062,0.056,0.093l49.936,80.739v44.878l-51.651-70.964c0.915-2.456,1.39-5.061,1.39-7.694
	c0-8.301-4.521-15.684-11.6-19.489c0,0-1.973-36.161-2.01-36.383C173.981,20.885,174.817,17.4,176.984,14.92z M129.912,327.919
	H88.832v-26.5h55.653L129.912,327.919z M97.572,289.419l9.731-226.432c0.003-0.086,0.005-0.172,0.005-0.258
	c0-8.439,4.663-15.983,12.189-19.75l43.253-16.345l2.107,38.86c0.136,2.51,1.822,4.669,4.224,5.409
	c4.281,1.32,7.157,5.219,7.157,9.702c0,1.834-0.509,3.644-1.472,5.232c-1.253,2.068-1.142,4.686,0.281,6.641l63.452,87.177v21.249
	h-14.463c-3.314,0-6,2.687-6,6v9.926h-48.011l-12.086-72.938c-0.542-3.27-3.629-5.484-6.9-4.938
	c-3.269,0.541-5.48,3.631-4.939,6.899l10.554,63.691c-0.003-0.001-0.006-0.003-0.009-0.004l-17.315-6.201
	c-3.117-1.116-6.554,0.506-7.672,3.625c-1.117,3.12,0.506,6.555,3.626,7.672l7.394,2.648l-7.394,2.648
	c-3.12,1.117-4.743,4.553-3.625,7.672c0.878,2.451,3.187,3.979,5.648,3.979c0.672,0,1.355-0.114,2.023-0.354l7.169-2.568v27.094
	c0,3.313,2.687,6,6,6h1.365l-2.484,27.662H97.572z M218.035,228.831v20.926h-59.537v-20.926H218.035z M238.499,412.881v2.411v61.705
	h-91.917l19.33-215.24h52.123v134.148c0,3.314,2.686,6,6,6h14.463V412.881z M342.416,476.997h-91.917v-55.705h26.927
	c1.591,0,3.118-0.632,4.243-1.758c1.125-1.125,1.757-2.651,1.757-4.242l0-153.535h39.661L342.416,476.997z M283.425,249.757v-20.926
	h47.074v20.926H283.425z M337.619,289.419l-2.484-27.662h1.364c3.313,0,6-2.686,6-6v-27.094l7.169,2.568
	c0.668,0.239,1.352,0.354,2.023,0.354c2.462,0,4.771-1.527,5.648-3.979c1.118-3.119-0.505-6.555-3.625-7.672l-7.394-2.648
	l7.394-2.648c3.12-1.117,4.743-4.552,3.626-7.672c-1.117-3.119-4.552-4.741-7.672-3.625l-17.315,6.201
	c-0.003,0.001-0.006,0.003-0.009,0.004l10.554-63.691c0.542-3.269-1.669-6.358-4.939-6.899c-3.268-0.549-6.359,1.668-6.9,4.938
	l-12.086,72.938h-41.51c-0.013,0-0.025-0.002-0.038-0.002h-14.463v-9.924c0-3.313-2.686-6-6-6h-6.463v-21.249l63.452-87.177
	c1.423-1.955,1.533-4.572,0.281-6.641c-0.963-1.589-1.472-3.398-1.472-5.232c0-4.483,2.876-8.382,7.157-9.702
	c2.402-0.74,4.087-2.899,4.224-5.409l2.107-38.86L369.5,42.98c7.526,3.767,12.189,11.311,12.189,19.75
	c0,0.086,0.002,0.172,0.005,0.258l9.731,226.432H337.619z M400.166,327.919h-41.081l-14.573-26.5h55.653V327.919z"/>
<g>
</g>
<g>
</g>
<g>
</g>
<g>
</g>
<g>
</g>
<g>
</g>
<g>
</g>
<g>
</g>
<g>
</g>
<g>
</g>
<g>
</g>
<g>
</g>
<g>
</g>
<g>
</g>
<g>
</g>
</svg>
