<?xml version="1.0" encoding="iso-8859-1"?>
<!-- Generator: Adobe Illustrator 18.0.0, SVG Export Plug-In . SVG Version: 6.00 Build 0)  -->
<!DOCTYPE svg PUBLIC "-//W3C//DTD SVG 1.1//EN" "http://www.w3.org/Graphics/SVG/1.1/DTD/svg11.dtd">
<svg version="1.1" id="Capa_1" xmlns="http://www.w3.org/2000/svg" xmlns:xlink="http://www.w3.org/1999/xlink" x="0px" y="0px"
	 viewBox="0 0 429.475 429.475" style="enable-background:new 0 0 429.475 429.475;" xml:space="preserve">
<g>
	<path style="fill:#231F20;" d="M328.243,298.633h-77.209c-3.314,0-6,2.686-6,6v80.426c0,3.314,2.686,6,6,6h77.209
		c3.313,0,6-2.686,6-6v-80.426C334.243,301.319,331.557,298.633,328.243,298.633z M322.243,310.633v20.17l-65.209-0.002v-20.168
		H322.243z M257.034,379.059v-32.882l65.209,18.274v14.608H257.034z"/>
	<path style="fill:#231F20;" d="M178.44,298.633h-77.209c-3.313,0-6,2.686-6,6v80.426c0,3.314,2.687,6,6,6h77.209
		c3.313,0,6-2.686,6-6v-80.426C184.44,301.319,181.754,298.633,178.44,298.633z M172.44,310.633v20.17l-65.209-0.002v-20.168H172.44
		z M107.231,379.059v-32.882l65.209,18.274v14.608H107.231z"/>
	<path style="fill:#231F20;" d="M370.956,165.354c-1.131-1.17-2.688-1.831-4.314-1.831h-6.637c-7.12,0-15.45-1.948-16.671-17.129
		l-9.163-115.496c-0.248-3.12-2.852-5.525-5.982-5.525h-30.532l-0.738-9.733c-0.193-2.552-1.984-4.701-4.46-5.35L253.974,0.196
		c-0.48-0.125-0.969-0.183-1.456-0.188C252.465,0.007,252.417,0,252.363,0h-75.29c-0.051,0-0.094,0.006-0.144,0.008
		c-0.136,0.002-0.272,0.01-0.408,0.021c-0.019,0.002-0.037,0.003-0.056,0.005c-0.323,0.03-0.646,0.078-0.965,0.162L137.016,10.29
		c-2.476,0.649-4.267,2.798-4.46,5.35l-0.738,9.733h-30.532c-3.13,0-5.733,2.406-5.981,5.525l-9.162,115.49
		c-1.222,15.188-9.552,17.135-16.672,17.135h-6.637c-1.627,0-3.184,0.661-4.314,1.831c-1.131,1.17-1.737,2.749-1.682,4.375
		l8.686,253.951c0.11,3.232,2.762,5.795,5.996,5.795h143.219h143.219c3.234,0,5.886-2.563,5.996-5.795l8.686-253.951
		C372.693,168.102,372.087,166.524,370.956,165.354z M285.277,20.813l4.602,60.674l-25.486,5.246
		c-2.1,0.432-3.809,1.952-4.484,3.986c-0.676,2.034-0.215,4.274,1.209,5.876l31.15,35.055l-67.464,111.093l32.639-229.231
		L285.277,20.813z M214.737,228.311L190.145,55.593l47.297,13.253L214.737,228.311z M241.499,40.357h-53.523L183.938,12h61.598
		L241.499,40.357z M144.197,20.813l27.835-7.301l32.639,229.231L137.206,131.65l31.15-35.055c1.424-1.602,1.885-3.842,1.209-5.876
		c-0.676-2.034-2.385-3.554-4.484-3.986l-25.486-5.246L144.197,20.813z M69.042,175.523h0.428c17.003,0,27.172-10.005,28.634-28.18
		l8.725-109.971h24.079l-3.677,48.472c-0.229,3.01,1.815,5.722,4.772,6.331l20.48,4.215l-27.191,30.6
		c-1.749,1.969-2.011,4.849-0.643,7.1l84.088,138.468v144.916H77.316L69.042,175.523z M352.158,417.475H220.737V272.559
		l84.088-138.468c1.367-2.251,1.105-5.131-0.644-7.1l-27.191-30.6l20.48-4.215c2.957-0.609,5.001-3.32,4.772-6.331l-3.676-48.472
		h24.079l8.726,109.977c1.461,18.168,11.63,28.173,28.633,28.173h0.428L352.158,417.475z"/>
</g>
<g>
</g>
<g>
</g>
<g>
</g>
<g>
</g>
<g>
</g>
<g>
</g>
<g>
</g>
<g>
</g>
<g>
</g>
<g>
</g>
<g>
</g>
<g>
</g>
<g>
</g>
<g>
</g>
<g>
</g>
</svg>
