<?xml version="1.0" encoding="iso-8859-1"?>
<!-- Generator: Adobe Illustrator 18.0.0, SVG Export Plug-In . SVG Version: 6.00 Build 0)  -->
<!DOCTYPE svg PUBLIC "-//W3C//DTD SVG 1.1//EN" "http://www.w3.org/Graphics/SVG/1.1/DTD/svg11.dtd">
<svg version="1.1" id="Capa_1" xmlns="http://www.w3.org/2000/svg" xmlns:xlink="http://www.w3.org/1999/xlink" x="0px" y="0px"
	 viewBox="0 0 483.762 483.762" style="enable-background:new 0 0 483.762 483.762;" xml:space="preserve">
<g>
	<path style="fill:#231F20;" d="M361.434,432.834h-0.517V30.441c0-0.026-0.004-0.051-0.004-0.077V6c0-3.313-2.686-6-6-6H130.137
		c-3.314,0-6,2.687-6,6v24.363c0,0.026-0.004,0.051-0.004,0.077v402.394h-1.805c-3.314,0-6,2.686-6,6v38.928c0,3.313,2.686,6,6,6
		h109.973c3.314,0,6-2.687,6-6v-38.928c0-3.309-2.679-5.991-5.985-5.999l4.19-294.637h12.038l4.188,294.636h-1.273
		c-3.314,0-6,2.686-6,6v38.928c0,3.313,2.686,6,6,6h109.975c3.314,0,6-2.687,6-6v-38.928
		C367.434,435.521,364.748,432.834,361.434,432.834z M293.096,24.435V12h32.572v12.435H293.096z M281.096,24.435h-77.143V12h77.143
		V24.435z M191.953,24.435H159.38V12h32.572V24.435z M348.912,24.435h-11.244V12h11.244V24.435z M136.137,12h11.244v12.435h-11.244
		V12z M226.301,471.762h-97.973v-26.928h97.973V471.762z M262.419,270.033l24.659,10.608c0.773,0.333,1.577,0.49,2.368,0.49
		c2.325,0,4.538-1.359,5.515-3.63c1.31-3.044-0.097-6.573-3.141-7.883l-16.119-6.935l19.921-6.708c3.141-1.057,4.829-4.46,3.772-7.6
		c-1.058-3.141-4.461-4.828-7.601-3.771l-29.594,9.965l-1.655-116.413h7.664c3.314,0,6-2.687,6-6c0-3.314-2.686-6-6-6h-51.371
		c-2.688,0-5.048,1.788-5.776,4.375c-0.728,2.587,0.354,5.343,2.648,6.745l10.714,6.547L222.843,255l-30.875-10.397
		c-3.14-1.057-6.544,0.631-7.601,3.771c-1.058,3.14,0.631,6.543,3.771,7.6l19.921,6.708l-16.119,6.935
		c-3.044,1.31-4.45,4.839-3.141,7.883c0.977,2.271,3.19,3.63,5.515,3.63c0.791,0,1.595-0.157,2.368-0.49l25.955-11.166
		l-2.323,163.358h-84.182V129.196c0.778,0.539,1.578,1.054,2.418,1.517c0.918,0.505,1.911,0.745,2.889,0.745
		c2.116,0,4.168-1.121,5.261-3.106c1.598-2.903,0.541-6.552-2.361-8.15c-5.063-2.788-8.208-8.111-8.208-13.893V36.44h212.783v69.868
		c0,5.781-3.145,11.104-8.208,13.893c-2.902,1.599-3.959,5.248-2.36,8.15c1.093,1.984,3.145,3.106,5.261,3.106
		c0.978,0,1.972-0.24,2.89-0.746c0.84-0.462,1.639-0.977,2.418-1.516v303.638h-84.183L262.419,270.033z M355.434,471.762h-97.975
		v-26.928h97.975V471.762z"/>
	<path style="fill:#231F20;" d="M223.979,48.172h-60.334c-3.314,0-6,2.686-6,6v42.437c0,8.845,7.196,16.041,16.04,16.041h40.253
		c8.845,0,16.041-7.196,16.041-16.041V54.172C229.979,50.858,227.292,48.172,223.979,48.172z M208.436,60.172l-14.624,9.998
		l-14.624-9.998H208.436z M213.938,100.65h-40.253c-2.228,0-4.04-1.813-4.04-4.041V68.185l20.781,14.206
		c1.021,0.698,2.204,1.047,3.386,1.047c1.183,0,2.365-0.349,3.386-1.047l20.781-14.206v28.425
		C217.979,98.837,216.166,100.65,213.938,100.65z"/>
	<path style="fill:#231F20;" d="M320.117,48.172h-60.334c-3.313,0-6,2.686-6,6v42.437c0,8.845,7.195,16.041,16.04,16.041h40.254
		c8.845,0,16.04-7.196,16.04-16.041V54.172C326.117,50.858,323.431,48.172,320.117,48.172z M304.574,60.172L289.95,70.17
		l-14.624-9.998H304.574z M310.077,100.65h-40.254c-2.228,0-4.04-1.813-4.04-4.041V68.184l20.781,14.207
		c1.021,0.698,2.204,1.047,3.386,1.047c1.183,0,2.365-0.349,3.386-1.047l20.781-14.207v28.425
		C314.117,98.837,312.305,100.65,310.077,100.65z"/>
</g>
<g>
</g>
<g>
</g>
<g>
</g>
<g>
</g>
<g>
</g>
<g>
</g>
<g>
</g>
<g>
</g>
<g>
</g>
<g>
</g>
<g>
</g>
<g>
</g>
<g>
</g>
<g>
</g>
<g>
</g>
</svg>
