<?xml version="1.0" encoding="iso-8859-1"?>
<!-- Generator: Adobe Illustrator 18.0.0, SVG Export Plug-In . SVG Version: 6.00 Build 0)  -->
<!DOCTYPE svg PUBLIC "-//W3C//DTD SVG 1.1//EN" "http://www.w3.org/Graphics/SVG/1.1/DTD/svg11.dtd">
<svg version="1.1" id="Capa_1" xmlns="http://www.w3.org/2000/svg" xmlns:xlink="http://www.w3.org/1999/xlink" x="0px" y="0px"
	 viewBox="0 0 402.305 402.305" style="enable-background:new 0 0 402.305 402.305;" xml:space="preserve">
<g>
	<path style="fill:#231F20;" d="M396.305,265.879h-3.473c-0.194-76.238-58.409-139.094-132.733-146.644
		c-0.493-7.881-7.044-14.148-15.048-14.148c-8.003,0-14.553,6.267-15.046,14.148c-74.324,7.55-132.539,70.405-132.733,146.644
		H15.668C7.029,265.879,0,272.907,0,281.547c0,8.641,7.029,15.67,15.668,15.67h380.637c3.314,0,6-2.687,6-6v-19.338
		C402.305,268.565,399.618,265.879,396.305,265.879z M380.832,265.879h-42.744v-9.986c0-4.438,3.61-8.049,8.048-8.049h33.447
		C380.387,253.745,380.815,259.764,380.832,265.879z M377.4,235.844h-31.264c-11.054,0-20.048,8.994-20.048,20.049v9.986h-11.327
		c-8.64,0-15.669,7.028-15.669,15.668c0,1.266,0.167,2.49,0.452,3.67h-85.339v-13.338c0-3.314-2.687-6-6-6h-27.439v-0.971
		c0-47.453,13.428-85.7,38.833-110.608c16.26-15.941,32.749-21.836,37.493-23.285C316.121,136.227,364.425,179.363,377.4,235.844z
		 M228.927,131.436c-5.451,3.572-11.316,8.084-17.184,13.763c-35.522,34.385-42.979,84.077-42.979,119.71v0.971h-59.493
		C109.463,196.634,161.752,139.421,228.927,131.436z M314.761,285.217c-2.023,0-3.669-1.647-3.669-3.67
		c0-2.022,1.646-3.668,3.669-3.668h66.076v7.338H314.761z"/>
</g>
<g>
</g>
<g>
</g>
<g>
</g>
<g>
</g>
<g>
</g>
<g>
</g>
<g>
</g>
<g>
</g>
<g>
</g>
<g>
</g>
<g>
</g>
<g>
</g>
<g>
</g>
<g>
</g>
<g>
</g>
</svg>
