<?xml version="1.0" encoding="iso-8859-1"?>
<!-- Generator: Adobe Illustrator 18.0.0, SVG Export Plug-In . SVG Version: 6.00 Build 0)  -->
<!DOCTYPE svg PUBLIC "-//W3C//DTD SVG 1.1//EN" "http://www.w3.org/Graphics/SVG/1.1/DTD/svg11.dtd">
<svg version="1.1" id="Capa_1" xmlns="http://www.w3.org/2000/svg" xmlns:xlink="http://www.w3.org/1999/xlink" x="0px" y="0px"
	 viewBox="0 0 365.253 365.253" style="enable-background:new 0 0 365.253 365.253;" xml:space="preserve">
<g>
	<path style="fill:#231F20;" d="M162.072,114.776h41.108c2.209,0,4-1.791,4-4V97.799c0-2.209-1.791-4-4-4h-41.108
		c-2.209,0-4,1.791-4,4v12.977C158.072,112.985,159.863,114.776,162.072,114.776z"/>
	<path style="fill:#231F20;" d="M365.253,81.438c0-3.313-2.687-6-6-6H6c-3.313,0-6,2.687-6,6v20.68
		c0,8.695,1.735,17.064,5.163,24.922c-3.427,7.859-5.161,16.227-5.161,24.913L0,191.693c0,3.167,2.462,5.788,5.623,5.988
		c0.341,0.021,34.476,2.299,68.003,14.511c43.318,15.777,65.282,39.874,65.282,71.622c0,3.314,2.687,6,6,6h75.437
		c3.313,0,6-2.686,6-6c0-31.748,21.964-55.845,65.282-71.622c33.527-12.211,67.662-14.489,68.003-14.51
		c3.161-0.2,5.623-2.822,5.623-5.988v-41.55c0-0.294-0.028-0.581-0.069-0.863c-0.321-7.733-2.021-15.193-5.094-22.24
		c3.428-7.858,5.163-16.228,5.163-24.922C365.253,101.778,365.253,81.438,365.253,81.438z M12,87.438h341.253c0,0,0,14.339,0,14.68
		c0,6.621-1.256,12.998-3.712,19.018H15.712C13.256,115.117,12,108.739,12,102.118V87.438z M12,186.193l0.002-34.231
		c0-6.549,1.232-12.862,3.635-18.826h114.076c-0.764,28.799-7.76,57.239-20.405,82.897c-9.154-5.741-19.761-10.829-31.808-15.201
		C50.263,190.947,23.383,187.352,12,186.193z M214.574,277.814h-63.896c-1.661-21.482-12.342-39.983-31.436-54.853
		c13.968-27.725,21.688-58.579,22.471-89.826h81.826c0.782,31.246,8.503,62.101,22.471,89.826
		C226.917,237.831,216.235,256.333,214.574,277.814z M287.752,200.833c-12.046,4.372-22.653,9.46-31.808,15.201
		c-12.645-25.658-19.641-54.098-20.405-82.897h114.076c2.403,5.964,3.635,12.276,3.635,18.826c0,0.013,0.002,0.026,0.002,0.039
		v34.193C341.87,187.353,314.99,190.948,287.752,200.833z"/>
</g>
<g>
</g>
<g>
</g>
<g>
</g>
<g>
</g>
<g>
</g>
<g>
</g>
<g>
</g>
<g>
</g>
<g>
</g>
<g>
</g>
<g>
</g>
<g>
</g>
<g>
</g>
<g>
</g>
<g>
</g>
</svg>
