<?xml version="1.0" encoding="iso-8859-1"?>
<!-- Generator: Adobe Illustrator 18.0.0, SVG Export Plug-In . SVG Version: 6.00 Build 0)  -->
<!DOCTYPE svg PUBLIC "-//W3C//DTD SVG 1.1//EN" "http://www.w3.org/Graphics/SVG/1.1/DTD/svg11.dtd">
<svg version="1.1" id="Capa_1" xmlns="http://www.w3.org/2000/svg" xmlns:xlink="http://www.w3.org/1999/xlink" x="0px" y="0px"
	 viewBox="0 0 365.252 365.252" style="enable-background:new 0 0 365.252 365.252;" xml:space="preserve">
<g>
	<path style="fill:#231F20;" d="M162.072,93.218h41.107c2.209,0,4-1.791,4-4V76.241c0-2.209-1.791-4-4-4h-41.107
		c-2.209,0-4,1.791-4,4v12.977C158.072,91.427,159.863,93.218,162.072,93.218z"/>
	<path style="fill:#231F20;" d="M365.252,59.881c0-3.313-2.686-6-6-6H6c-3.314,0-6,2.687-6,6v20.68
		c0,8.695,1.735,17.064,5.163,24.922c-3.427,7.859-5.161,16.227-5.161,24.913L0,305.371c0,3.314,2.686,6,6,6h154.093
		c3.314,0,6-2.686,6-6v-82.413h33.066v82.413c0,3.314,2.687,6,6,6h154.093c3.313,0,6-2.686,6-6V131.759l-0.002-1.355
		c0-8.693-1.734-17.063-5.161-24.921c3.428-7.858,5.163-16.228,5.163-24.922V59.881z M12,65.881h341.252v14.68
		c0,6.62-1.256,12.999-3.712,19.018H15.712C13.256,93.56,12,87.181,12,80.561V65.881z M211.159,299.371v-76.413h19.607
		c3.313,0,6-2.686,6-6c0-3.313-2.687-6-6-6h-96.281c-3.313,0-6,2.687-6,6c0,3.314,2.687,6,6,6h19.607v76.413H12V131.777l0.002-1.373
		c0-6.55,1.232-12.862,3.635-18.826h142.256c-0.916,28.822-10.591,57.306-28.133,82.655c-1.886,2.725-1.206,6.462,1.519,8.348
		c1.042,0.721,2.232,1.067,3.409,1.067c1.903,0,3.774-0.903,4.939-2.586c18.942-27.372,29.355-58.217,30.271-89.484h27.122
		c0.916,31.266,11.329,62.112,30.272,89.484c1.165,1.683,3.036,2.586,4.939,2.586c1.178,0,2.367-0.346,3.409-1.067
		c2.725-1.886,3.405-5.623,1.519-8.348c-17.543-25.35-27.218-53.835-28.134-82.655h140.589c2.403,5.964,3.636,12.278,3.636,18.835
		l0.002,168.958H211.159z"/>
</g>
<g>
</g>
<g>
</g>
<g>
</g>
<g>
</g>
<g>
</g>
<g>
</g>
<g>
</g>
<g>
</g>
<g>
</g>
<g>
</g>
<g>
</g>
<g>
</g>
<g>
</g>
<g>
</g>
<g>
</g>
</svg>
