<?xml version="1.0" encoding="iso-8859-1"?>
<!-- Generator: Adobe Illustrator 18.0.0, SVG Export Plug-In . SVG Version: 6.00 Build 0)  -->
<!DOCTYPE svg PUBLIC "-//W3C//DTD SVG 1.1//EN" "http://www.w3.org/Graphics/SVG/1.1/DTD/svg11.dtd">
<svg version="1.1" id="Capa_1" xmlns="http://www.w3.org/2000/svg" xmlns:xlink="http://www.w3.org/1999/xlink" x="0px" y="0px"
	 viewBox="0 0 483.762 483.762" style="enable-background:new 0 0 483.762 483.762;" xml:space="preserve">
<g>
	<path style="fill:#231F20;" d="M179.223,237.714c-19.339,0-35.072,20.009-35.072,44.604c0,24.596,15.733,44.606,35.072,44.606
		s35.072-20.01,35.072-44.606C214.295,257.723,198.562,237.714,179.223,237.714z"/>
	<path style="fill:#231F20;" d="M305.826,237.714c-19.339,0-35.072,20.009-35.072,44.604c0,24.596,15.733,44.606,35.072,44.606
		s35.072-20.01,35.072-44.606C340.898,257.723,325.165,237.714,305.826,237.714z"/>
	<path style="fill:#231F20;" d="M361.434,432.834h-0.517L360.912,6c0-3.313-2.686-6-6-6H130.137c-3.314,0-6,2.687-6,6
		l-0.004,426.834h-1.805c-3.313,0-6,2.686-6,6v38.928c0,3.313,2.687,6,6,6h109.974c3.313,0,6-2.687,6-6v-38.928
		c0-3.309-2.68-5.992-5.986-5.999l4.19-294.637h12.038l4.188,294.636h-1.273c-3.314,0-6,2.686-6,6v38.928c0,3.313,2.686,6,6,6
		h109.975c3.314,0,6-2.687,6-6v-38.928C367.434,435.521,364.748,432.834,361.434,432.834z M293.097,24.435V12h32.572v12.435H293.097
		z M281.097,24.435h-77.144V12h77.144V24.435z M191.953,24.435h-32.572V12h32.572V24.435z M348.912,24.435h-11.243V12h11.243V24.435
		z M136.137,12h11.244v12.435h-11.244V12z M226.302,471.762h-97.974v-26.928h97.974V471.762z M260.544,138.155h7.665
		c3.313,0,6-2.687,6-6c0-3.314-2.687-6-6-6h-51.37c-2.688,0-5.048,1.788-5.776,4.375c-0.728,2.587,0.354,5.343,2.647,6.745
		l10.714,6.547l-4.11,289.012h-84.181V36.44h87.915v30.774c0,3.313,2.687,6,6,6c3.314,0,6-2.687,6-6V36.44h12.953v65.558h-15.162
		c-3.313,0-6,2.687-6,6s2.687,6,6,6h21.162c3.314,0,6-2.687,6-6V36.44h87.915v396.394h-84.183L260.544,138.155z M355.434,471.762
		h-97.975v-26.928h97.975V471.762z"/>
</g>
<g>
</g>
<g>
</g>
<g>
</g>
<g>
</g>
<g>
</g>
<g>
</g>
<g>
</g>
<g>
</g>
<g>
</g>
<g>
</g>
<g>
</g>
<g>
</g>
<g>
</g>
<g>
</g>
<g>
</g>
</svg>
