<?xml version="1.0" encoding="iso-8859-1"?>
<!-- Generator: Adobe Illustrator 18.0.0, SVG Export Plug-In . SVG Version: 6.00 Build 0)  -->
<!DOCTYPE svg PUBLIC "-//W3C//DTD SVG 1.1//EN" "http://www.w3.org/Graphics/SVG/1.1/DTD/svg11.dtd">
<svg version="1.1" id="Capa_1" xmlns="http://www.w3.org/2000/svg" xmlns:xlink="http://www.w3.org/1999/xlink" x="0px" y="0px"
	 viewBox="0 0 407.048 407.048" style="enable-background:new 0 0 407.048 407.048;" xml:space="preserve">
<path style="fill:#231F20;" d="M0.085,151.969c-1.064,12.223,8.015,23.034,20.239,24.099c0.653,0.057,1.301,0.085,1.946,0.085
	c5.384,0,10.382-1.968,14.281-5.245c3.221,4.578,8.152,7.958,14.075,9.071c1.383,0.26,2.759,0.385,4.118,0.385
	c6.065,0,11.744-2.508,15.853-6.678c1.545,7.048,6.474,13.222,13.691,16.02c2.635,1.021,5.346,1.504,8.016,1.504
	c4.294,0,8.47-1.263,12.035-3.544c0.614,6.273,3.854,12.251,9.422,16.122c3.864,2.687,8.289,3.975,12.673,3.975
	c3.812,0,7.59-0.983,10.941-2.862c-0.959,1.996-1.627,4.145-1.96,6.398c-0.871,5.88,0.6,11.747,4.142,16.52
	c4.361,5.878,11.088,8.984,17.9,8.984c0.004,0,0.009,0,0.014,0c-3.745,6.463-4.163,14.664-0.376,21.714
	c3.025,5.632,8.145,9.432,13.883,10.962c-3.42,3.914-5.5,9.028-5.5,14.622c0,12.27,9.983,22.253,22.254,22.253h31.587
	c12.271,0,22.253-9.982,22.253-22.253c0-5.595-2.08-10.709-5.501-14.624c0.232-0.062,0.466-0.113,0.697-0.183
	c5.692-1.714,10.376-5.543,13.187-10.778c2.814-5.236,3.419-11.254,1.704-16.946c-0.509-1.69-1.226-3.278-2.089-4.768
	c0.008,0,0.016,0.001,0.023,0.001c6.811,0,13.539-3.108,17.9-8.985c3.542-4.773,5.013-10.64,4.142-16.52
	c-0.334-2.253-1.002-4.401-1.96-6.398c3.351,1.879,7.127,2.862,10.94,2.862c4.384,0,8.811-1.289,12.675-3.976
	c4.88-3.393,8.146-8.484,9.197-14.334c0.106-0.594,0.173-1.188,0.231-1.781c3.562,2.277,7.734,3.538,12.025,3.538
	c2.669,0,5.383-0.484,8.018-1.505c7.217-2.797,12.145-8.971,13.69-16.019c4.108,4.17,9.787,6.678,15.854,6.678
	c1.358,0,2.735-0.125,4.118-0.385c5.74-1.079,10.722-4.301,14.076-9.069c3.898,3.275,8.897,5.243,14.279,5.243
	c0.643,0,1.293-0.028,1.945-0.085c5.921-0.516,11.287-3.307,15.11-7.858c3.822-4.552,5.644-10.32,5.128-16.242l-0.417-4.034
	c-0.935-7.798-3.153-18.605-6.574-25.554c-0.347-0.703-0.815-1.305-1.363-1.8v-13.886c0-3.314-2.686-6-6-6H13.701
	c-3.313,0-6,2.686-6,6c0,0,0.012,14.503,0.023,14.651c-0.246,0.316-0.464,0.662-0.648,1.036c-3.421,6.951-5.638,17.758-6.573,25.553
	L0.085,151.969z M386.608,112.694v6.444H19.701v-6.444H386.608z M21.364,164.113c-4.958-0.432-8.789-4.345-9.301-9.118
	c6.776,0.453,13.436,1.115,19.971,1.97C30.624,161.456,26.236,164.541,21.364,164.113z M52.842,168.185
	c-4.661-0.876-7.982-4.798-8.319-9.318c6.585,1.147,13.013,2.503,19.262,4.063C61.73,166.776,57.345,169.031,52.842,168.185z
	 M88.624,178.516c-4.283-1.66-6.819-5.9-6.524-10.259c6.339,2.123,12.438,4.479,18.273,7.058
	C97.657,178.747,92.917,180.178,88.624,178.516z M120.611,193.936c-3.495-2.431-5.008-6.661-4.166-10.583
	c5.709,3.229,11.074,6.701,16.098,10.412C129.106,196.291,124.304,196.503,120.611,193.936z M149.193,220.668
	c-1.632-2.199-2.309-4.901-1.908-7.61c0.26-1.758,0.961-3.377,2.017-4.746c4.71,4.818,8.99,9.932,12.828,15.347
	C157.744,225.925,152.227,224.757,149.193,220.668z M167.665,252.839c-2.613-4.865-0.875-10.911,3.848-13.681
	c3.042,5.951,5.646,12.195,7.809,18.731C174.839,259.077,169.953,257.099,167.665,252.839z M177.476,284.101
	c0-4.251,2.603-7.906,6.297-9.457c1.293,6.313,2.225,12.861,2.8,19.64C181.463,293.707,177.476,289.363,177.476,284.101z
	 M198.632,294.354c-2.418-30.44-11.682-56.939-27.572-78.837c-14.005-19.299-33.24-35.155-57.172-47.129
	c-28.053-14.035-62.678-22.753-100.502-25.342c0.762-4.137,1.804-8.422,3.036-11.907h374.205c1.232,3.484,2.275,7.77,3.037,11.907
	c-37.821,2.59-72.45,11.308-100.502,25.342c-23.932,11.974-43.167,27.83-57.172,47.129c-15.891,21.897-25.154,48.397-27.572,78.837
	H198.632z M220.475,294.284c0.575-6.778,1.508-13.326,2.8-19.64c3.694,1.552,6.296,5.206,6.296,9.457
	C229.571,289.363,225.585,293.706,220.475,294.284z M239.382,252.839c-1.295,2.413-3.453,4.176-6.076,4.966
	c-1.844,0.556-3.763,0.572-5.58,0.086c2.163-6.537,4.768-12.782,7.811-18.734c2.237,1.312,3.88,3.378,4.632,5.875
	C240.957,247.653,240.679,250.425,239.382,252.839z M257.856,220.668c-3.033,4.09-8.553,5.257-12.937,2.99
	c3.838-5.415,8.118-10.528,12.828-15.346c1.056,1.369,1.756,2.988,2.017,4.746C260.164,215.766,259.488,218.469,257.856,220.668z
	 M290.676,187.331c-0.484,2.695-1.989,5.041-4.237,6.604c-3.694,2.568-8.497,2.357-11.934-0.17
	c5.027-3.712,10.395-7.186,16.105-10.416C290.89,184.642,290.917,185.99,290.676,187.331z M318.424,178.516
	c-4.289,1.664-9.032,0.232-11.75-3.201c5.836-2.579,11.934-4.935,18.273-7.058C325.243,172.616,322.706,176.856,318.424,178.516z
	 M354.207,168.185c-4.503,0.844-8.889-1.409-10.943-5.255c6.251-1.561,12.68-2.916,19.267-4.064
	c-0.13,1.785-0.718,3.513-1.754,5.029C359.231,166.156,356.898,167.68,354.207,168.185z M385.683,164.113
	c-4.874,0.423-9.259-2.658-10.669-7.148c6.535-0.854,13.197-1.517,19.975-1.97c-0.212,2.011-1.015,3.915-2.344,5.498
	C390.883,162.589,388.411,163.876,385.683,164.113z"/>
<g>
</g>
<g>
</g>
<g>
</g>
<g>
</g>
<g>
</g>
<g>
</g>
<g>
</g>
<g>
</g>
<g>
</g>
<g>
</g>
<g>
</g>
<g>
</g>
<g>
</g>
<g>
</g>
<g>
</g>
</svg>
