<?xml version="1.0" encoding="iso-8859-1"?>
<!-- Generator: Adobe Illustrator 18.0.0, SVG Export Plug-In . SVG Version: 6.00 Build 0)  -->
<!DOCTYPE svg PUBLIC "-//W3C//DTD SVG 1.1//EN" "http://www.w3.org/Graphics/SVG/1.1/DTD/svg11.dtd">
<svg version="1.1" id="Capa_1" xmlns="http://www.w3.org/2000/svg" xmlns:xlink="http://www.w3.org/1999/xlink" x="0px" y="0px"
	 viewBox="0 0 360.973 360.973" style="enable-background:new 0 0 360.973 360.973;" xml:space="preserve">
<g>
	<path style="fill:#231F20;" d="M272.918,44.06V6c0-3.313-2.687-6-6-6H94.035c-3.313,0-6,2.687-6,6v38.06
		c-0.178,0.394-64.309,309.696-64.309,309.696c-0.366,1.768,0.083,3.605,1.222,5.005c1.14,1.399,2.849,2.212,4.653,2.212h301.75
		c0.007,0.001,0.015,0.001,0.02,0c3.314,0,6-2.686,6-6C337.371,354.38,273.096,44.453,272.918,44.06z M260.918,40.518h-22.523V12
		h22.523V40.518z M100.035,12h126.359v8.258h-9.759c-3.314,0-6,2.687-6,6s2.686,6,6,6h9.759v8.26H100.035V12z M284.272,348.973
		c0.262-1.064,0.416-2.17,0.416-3.314c0-7.652-6.203-13.855-13.855-13.855c-7.652,0-13.855,6.203-13.855,13.855
		c0,1.145,0.154,2.251,0.416,3.314h-73.81c0.262-1.064,0.416-2.17,0.416-3.314c0-7.652-6.203-13.855-13.855-13.855
		c-7.652,0-13.855,6.203-13.855,13.855c0,1.145,0.154,2.251,0.416,3.314h-73.81c0.262-1.064,0.416-2.17,0.416-3.314
		c0-7.652-6.203-13.855-13.855-13.855c-7.652,0-13.855,6.203-13.855,13.855c0,1.145,0.154,2.251,0.416,3.314H36.972l22.893-110.526
		c2.49,2.392,5.865,3.87,9.591,3.87c7.652,0,13.855-6.203,13.855-13.855c0-7.652-6.203-13.856-13.855-13.856
		c-1.703,0-3.328,0.322-4.836,0.885l6.607-31.899c6.813-0.871,12.084-6.679,12.084-13.73c0-5.063-2.721-9.48-6.777-11.893
		L98.375,52.518h57.919c-0.001,0.049-0.006,0.097-0.006,0.146c0,7.652,6.203,13.855,13.855,13.855
		c7.652,0,13.855-6.203,13.855-13.855c0-0.05-0.005-0.098-0.006-0.146h72.99c0,0.05-0.007,0.097-0.007,0.146
		c0,5.657,3.396,10.515,8.256,12.667l6.654,32.131c-0.349-0.027-0.698-0.054-1.055-0.054c-7.652,0-13.855,6.203-13.855,13.855
		c0,7.652,6.203,13.855,13.855,13.855c2.331,0,4.524-0.582,6.452-1.599l37.985,183.391c-4.693,2.215-7.948,6.972-7.948,12.507
		c0,7.5,5.962,13.592,13.403,13.833l3.257,15.722H284.272z"/>
	<circle style="fill:#231F20;" cx="119.8" cy="202.221" r="13.855"/>
	<circle style="fill:#231F20;" cx="119.8" cy="260.818" r="13.855"/>
	<circle style="fill:#231F20;" cx="119.8" cy="85.021" r="13.855"/>
	<circle style="fill:#231F20;" cx="119.8" cy="143.621" r="13.855"/>
	<circle style="fill:#231F20;" cx="119.8" cy="319.418" r="13.855"/>
	<circle style="fill:#231F20;" cx="69.455" cy="287.06" r="13.856"/>
	<circle style="fill:#231F20;" cx="220.489" cy="202.221" r="13.855"/>
	<circle style="fill:#231F20;" cx="220.489" cy="260.818" r="13.855"/>
	<circle style="fill:#231F20;" cx="220.489" cy="85.021" r="13.855"/>
	<circle style="fill:#231F20;" cx="220.489" cy="143.621" r="13.855"/>
	<circle style="fill:#231F20;" cx="220.489" cy="319.418" r="13.855"/>
	<circle style="fill:#231F20;" cx="170.144" cy="169.861" r="13.856"/>
	<circle style="fill:#231F20;" cx="170.144" cy="228.461" r="13.856"/>
	<circle style="fill:#231F20;" cx="170.144" cy="111.264" r="13.855"/>
	<circle style="fill:#231F20;" cx="170.144" cy="287.06" r="13.856"/>
	<circle style="fill:#231F20;" cx="270.832" cy="169.861" r="13.856"/>
	<circle style="fill:#231F20;" cx="270.832" cy="228.461" r="13.856"/>
	<circle style="fill:#231F20;" cx="270.832" cy="287.06" r="13.856"/>
</g>
<g>
</g>
<g>
</g>
<g>
</g>
<g>
</g>
<g>
</g>
<g>
</g>
<g>
</g>
<g>
</g>
<g>
</g>
<g>
</g>
<g>
</g>
<g>
</g>
<g>
</g>
<g>
</g>
<g>
</g>
</svg>
