<?xml version="1.0" encoding="iso-8859-1"?>
<!-- Generator: Adobe Illustrator 18.0.0, SVG Export Plug-In . SVG Version: 6.00 Build 0)  -->
<!DOCTYPE svg PUBLIC "-//W3C//DTD SVG 1.1//EN" "http://www.w3.org/Graphics/SVG/1.1/DTD/svg11.dtd">
<svg version="1.1" id="Capa_1" xmlns="http://www.w3.org/2000/svg" xmlns:xlink="http://www.w3.org/1999/xlink" x="0px" y="0px"
	 viewBox="0 0 400.375 400.375" style="enable-background:new 0 0 400.375 400.375;" xml:space="preserve">
<path style="fill:#231F20;" d="M400.375,302.784c0-2.177-1.163-4.077-2.898-5.129c2.133-5.51,4.242-14.081,1.794-23.061
	c-2.493-9.148-8.979-16.51-19.276-21.882c-9.482-4.948-39.583-15.112-66.141-24.08c-15.148-5.115-29.495-9.96-36.425-12.653
	c-2.712-5.695-7.695-11.354-16.703-17.533l0.865-1.314c1.823-2.768,1.057-6.488-1.711-8.311c-2.768-1.823-6.488-1.057-8.311,1.711
	l-0.715,1.085c-5.151-3.866-9.849-7.973-14.139-12.233l0.883-0.819c2.429-2.253,2.572-6.05,0.318-8.479
	c-2.253-2.43-6.049-2.571-8.479-0.318l-0.862,0.8c-3.862-4.561-7.319-9.225-10.408-13.901l1.239-0.674
	c2.912-1.582,3.989-5.225,2.406-8.137c-1.582-2.91-5.224-3.989-8.137-2.406l-1.732,0.941c-3.098-5.588-5.709-11.094-7.912-16.362
	l1.149-0.275c3.223-0.773,5.208-4.012,4.435-7.234c-0.773-3.222-4.011-5.206-7.234-4.436l-2.622,0.629
	c-2.15-6.36-3.681-12.095-4.76-16.842l1.648-0.156c3.299-0.313,5.72-3.24,5.408-6.539c-0.312-3.298-3.23-5.714-6.539-5.408
	l-2.693,0.255c-2.346-19.18-18.646-33.611-38.023-33.611c-0.001,0-0.003,0-0.004,0c0,0-0.001,0-0.002,0
	c-7.744,0.001-15.446,1.867-22.274,5.396c-0.226,0.117-0.438,0.25-0.643,0.391c-6.284,3.501-13.41,5.363-20.668,5.363
	c-0.004,0-0.009,0-0.011,0c-0.026,0-0.051,0.004-0.078,0.004H37.702c-10.109,0-18.333,8.224-18.333,18.332
	c0,4.752,1.833,9.073,4.808,12.334c-2.976,3.26-4.808,7.58-4.808,12.332c0,4.752,1.833,9.073,4.808,12.334
	c-2.976,3.26-4.808,7.58-4.808,12.332c0,4.404,1.563,8.45,4.162,11.615c-8.016,15.887-33.682,73.787-13.599,129.057
	C3.913,280.343,0,287.481,0,295.519c0,0.154,0.012,0.306,0.023,0.457C0.012,296.127,0,296.278,0,296.433v32.342
	c0,0.207,0.011,0.412,0.031,0.614c0.317,7.882,6.656,14.223,14.537,14.544c0.203,0.021,0.408,0.031,0.616,0.031h70.979
	c1.667,0,3.259-0.693,4.395-1.915l11.42-12.284h50.614l13.338,12.566c1.113,1.049,2.585,1.633,4.114,1.633h215.142
	c0.208,0,0.412-0.011,0.614-0.031c7.884-0.317,14.227-6.659,14.544-14.544c0.02-0.202,0.031-0.407,0.031-0.614v-25.943
	c0-0.008-0.001-0.016-0.001-0.023S400.375,302.792,400.375,302.784z M310.016,240.002c24.849,8.392,55.773,18.834,64.428,23.35
	c7.182,3.747,11.633,8.565,13.228,14.321c2.303,8.309-1.685,16.729-2.958,19.111H227.131h-16.262H12v-0.352
	c0-0.154-0.012-0.306-0.023-0.457c0.011-0.151,0.023-0.303,0.023-0.457c0-6.82,5.549-12.369,12.369-12.369
	c0.013,0,0.025-0.002,0.039-0.002h97.028c0.051,0,0.101-0.006,0.152-0.008c0.029,0,0.058,0.008,0.087,0.008
	c1.665,0,3.321-0.688,4.507-2.037l27.39-31.135c0.041-0.046,0.081-0.094,0.121-0.141c8.767-10.611,23.006-15.139,36.282-11.534
	c0.019,0.005,0.038,0.008,0.057,0.013l83.011,21.394c0.495,0.127,0.998,0.189,1.497,0.189c1.317,0,2.613-0.434,3.676-1.258
	c1.466-1.136,2.325-2.887,2.325-4.742l-0.001-18.751c0.029-1.796,0.028-3.542-0.038-5.25
	C288.108,232.605,298.526,236.122,310.016,240.002z M79.972,141.564h-42.27c-3.492,0-6.333-2.842-6.333-6.334
	c0-3.491,2.841-6.332,6.333-6.332h55.5C89.253,133.505,84.851,137.719,79.972,141.564z M101.929,116.897H37.702
	c-3.492,0-6.333-2.842-6.333-6.334c0-3.491,2.841-6.332,6.333-6.332h70.799C106.551,108.695,104.368,112.919,101.929,116.897z
	 M37.702,79.565h73.5c0.037,0,0.072-0.005,0.109-0.006c1.707-0.003,3.408-0.087,5.099-0.248c-0.979,4.494-2.117,8.798-3.419,12.92
	H37.702c-3.492,0-6.333-2.842-6.333-6.334C31.369,82.406,34.21,79.565,37.702,79.565z M17.617,201.537
	c3.428-14.07,12.45-23.6,26.869-28.307c0.006-0.002,0.011-0.005,0.017-0.007c0.004-0.001,0.009-0.002,0.013-0.003
	c26.537-8.818,46.323-21.792,60.49-39.664c11.945-15.069,19.875-33.767,24.205-57.047c3.192-1.113,6.283-2.519,9.222-4.215
	c0.039-0.023,0.074-0.05,0.112-0.073c5.065-2.521,10.529-3.811,16.256-3.811c0.001,0,0.001,0,0.003,0
	c13.197,0,24.314,9.744,26.067,22.743l-11.393,1.078c-3.299,0.313-5.72,3.24-5.408,6.539c0.294,3.106,2.907,5.435,5.966,5.435
	c0.189,0,0.38-0.009,0.572-0.026l12.335-1.167c1.118,5.183,2.737,11.5,5.053,18.522l-11.05,2.65
	c-3.223,0.773-5.208,4.012-4.435,7.234c0.66,2.752,3.119,4.602,5.83,4.602c0.463,0,0.934-0.054,1.404-0.166l12.408-2.977
	c1.023,2.53,2.132,5.113,3.339,7.736c1.826,3.968,3.784,7.806,5.848,11.54l-10.646,5.785c-2.912,1.582-3.989,5.226-2.406,8.137
	c1.087,2.001,3.149,3.136,5.277,3.136c0.968,0,1.95-0.234,2.86-0.73l11.102-6.033c3.754,5.765,7.814,11.219,12.192,16.334
	l-9.456,8.771c-2.429,2.253-2.572,6.05-0.318,8.479c1.182,1.274,2.789,1.92,4.4,1.92c1.46,0,2.924-0.53,4.079-1.602l9.462-8.777
	c5.105,5.08,10.563,9.773,16.364,14.072l-7.067,10.732c-1.823,2.768-1.057,6.488,1.711,8.311c1.017,0.67,2.162,0.99,3.294,0.99
	c1.95,0,3.863-0.95,5.016-2.701l6.922-10.511c14.665,10.088,14.569,16.716,14.412,26.582v11.105l-75.709-19.514
	c-0.044-0.011-0.086-0.016-0.129-0.026c-17.659-4.624-36.523,1.429-48.198,15.502l-25.538,29.03H23.223
	c-0.396,0-0.782,0.041-1.157,0.114c-0.339,0.032-0.675,0.073-1.01,0.119C12.509,247.495,13.482,222.61,17.617,201.537z
	 M159.087,319.397c-1.113-1.049-2.585-1.633-4.114-1.633H99.363c-1.667,0-3.259,0.693-4.395,1.915l-11.42,12.284H15.189
	c-1.759,0-3.189-1.431-3.189-3.189v-19.99h198.869h16.262h161.244v19.99c0,1.759-1.431,3.189-3.19,3.189h-212.76L159.087,319.397z"
	/>
<g>
</g>
<g>
</g>
<g>
</g>
<g>
</g>
<g>
</g>
<g>
</g>
<g>
</g>
<g>
</g>
<g>
</g>
<g>
</g>
<g>
</g>
<g>
</g>
<g>
</g>
<g>
</g>
<g>
</g>
</svg>
