<?xml version="1.0" encoding="iso-8859-1"?>
<!-- Generator: Adobe Illustrator 18.0.0, SVG Export Plug-In . SVG Version: 6.00 Build 0)  -->
<!DOCTYPE svg PUBLIC "-//W3C//DTD SVG 1.1//EN" "http://www.w3.org/Graphics/SVG/1.1/DTD/svg11.dtd">
<svg version="1.1" id="Capa_1" xmlns="http://www.w3.org/2000/svg" xmlns:xlink="http://www.w3.org/1999/xlink" x="0px" y="0px"
	 viewBox="0 0 437.109 437.109" style="enable-background:new 0 0 437.109 437.109;" xml:space="preserve">
<g>
	<path style="fill:#231F20;" d="M363.916,199.053h-39.254V157c0-41.959-16.325-81.392-45.968-111.034
		C249.05,16.324,209.617,0,167.661,0C125.705,0,86.273,16.324,56.629,45.967C26.985,75.609,10.66,115.042,10.66,157
		c0,0.044,0.001,0.097,0.002,0.15c0.04,41.901,16.363,81.279,45.968,110.882C86.273,297.675,125.706,314,167.662,314h42.053v60.576
		c0,3.314,2.686,6,6,6h102.947c3.313,0,6-2.686,6-6V314h39.254c3.314,0,6-2.686,6-6V205.053
		C369.916,201.739,367.229,199.053,363.916,199.053z M332.597,211.053l-8.423,11.79c-1.491,2.086-1.491,4.889,0,6.976l11.921,16.686
		l-11.922,16.69c-1.489,2.086-1.489,4.889,0,6.975l11.923,16.692L325.281,302h-15.879l8.322-11.651c1.489-2.086,1.489-4.889,0-6.975
		l-11.922-16.692l11.922-16.691c1.49-2.086,1.489-4.889-0.001-6.975l-11.92-16.687l10.912-15.277H332.597z M221.715,320.721
		l90.947,6.768v18.148l-11.718-8.37c-2.085-1.491-4.888-1.489-6.975-0.001l-16.689,11.922l-16.689-11.921
		c-2.084-1.491-4.887-1.491-6.975-0.001l-16.691,11.922l-15.211-10.863V320.721z M65.114,259.546
		c-27.358-27.356-42.436-63.752-42.452-102.479c0-0.043-0.001-0.095-0.002-0.146c0.021-38.724,15.096-75.11,42.453-102.468
		C92.492,27.076,128.91,12,167.661,12c38.751,0,75.17,15.076,102.549,42.451c27.376,27.376,42.452,63.796,42.452,102.549v42.053
		h-90.947V157c0-29.805-24.248-54.053-54.054-54.053c-29.794,0-54.043,24.239-54.054,54.035c0,0.036,0,0.072,0.001,0.108
		c0.051,29.762,24.279,53.962,54.054,53.962H301.97l-8.422,11.79c-1.491,2.086-1.49,4.889,0,6.976l11.92,16.686l-11.921,16.69
		c-1.489,2.086-1.489,4.889,0,6.975l11.922,16.692L294.655,302H167.662C128.911,302,92.492,286.923,65.114,259.546z M209.715,157
		v42.053h-42.053c-23.188,0-42.054-18.865-42.054-42.053c0-0.032,0-0.064-0.001-0.098c0.053-23.143,18.9-41.955,42.054-41.955
		C190.85,114.947,209.715,133.813,209.715,157z M221.715,368.576V353.07l11.724,8.373c2.086,1.49,4.889,1.49,6.975,0l16.691-11.922
		l16.689,11.921c2.086,1.492,4.889,1.491,6.975,0.001l16.689-11.922l15.205,10.861v8.193H221.715z M357.916,302h-17.887
		l8.322-11.651c1.489-2.086,1.489-4.889,0-6.975l-11.923-16.692l11.923-16.691c1.49-2.086,1.489-4.889-0.001-6.976L336.43,226.33
		l10.913-15.277h10.573V302z"/>
	<path style="fill:#231F20;" d="M420.449,302.037h-35.32c-3.314,0-6,2.686-6,6c0,3.313,2.686,6,6,6h35.32c3.314,0,6-2.687,6-6
		C426.449,304.724,423.763,302.037,420.449,302.037z"/>
	<path style="fill:#231F20;" d="M385.129,211.156h35.32c3.314,0,6-2.687,6-6c0-3.313-2.686-6-6-6h-35.32c-3.314,0-6,2.687-6,6
		C379.129,208.47,381.815,211.156,385.129,211.156z"/>
	<path style="fill:#231F20;" d="M420.449,219.732h-35.32c-3.314,0-6,2.687-6,6c0,3.313,2.686,6,6,6h35.32c3.314,0,6-2.687,6-6
		C426.449,222.419,423.763,219.732,420.449,219.732z"/>
	<path style="fill:#231F20;" d="M420.449,240.309h-35.32c-3.314,0-6,2.687-6,6c0,3.314,2.686,6,6,6h35.32c3.314,0,6-2.686,6-6
		C426.449,242.995,423.763,240.309,420.449,240.309z"/>
	<path style="fill:#231F20;" d="M420.449,260.885h-35.32c-3.314,0-6,2.686-6,6s2.686,6,6,6h35.32c3.314,0,6-2.686,6-6
		S423.763,260.885,420.449,260.885z"/>
	<path style="fill:#231F20;" d="M420.449,281.461h-35.32c-3.314,0-6,2.686-6,6c0,3.313,2.686,6,6,6h35.32c3.314,0,6-2.687,6-6
		C426.449,284.147,423.763,281.461,420.449,281.461z"/>
	<path style="fill:#231F20;" d="M298.052,389.791c-3.314,0-6,2.687-6,6l0.002,35.318c0,3.314,2.686,6,6,6c3.314,0,6-2.686,6-6
		l-0.002-35.318C304.052,392.477,301.365,389.791,298.052,389.791z"/>
	<path style="fill:#231F20;" d="M215.748,389.791c-3.314,0-6,2.687-6,6l0.002,35.318c0,3.314,2.686,6,6,6c3.314,0,6-2.686,6-6
		l-0.002-35.318C221.748,392.477,219.061,389.791,215.748,389.791z"/>
	<path style="fill:#231F20;" d="M318.628,389.791c-3.314,0-6,2.687-6,6l0.002,35.318c0,3.314,2.686,6,6,6c3.314,0,6-2.686,6-6
		l-0.002-35.318C324.628,392.477,321.941,389.791,318.628,389.791z"/>
	<path style="fill:#231F20;" d="M277.476,389.791c-3.314,0-6,2.687-6,6l0.002,35.318c0,3.314,2.686,6,6,6c3.314,0,6-2.686,6-6
		l-0.002-35.318C283.476,392.477,280.789,389.791,277.476,389.791z"/>
	<path style="fill:#231F20;" d="M256.899,389.791c-3.314,0-6,2.687-6,6l0.002,35.318c0,3.314,2.687,6,6,6c3.314,0,6-2.686,6-6
		l-0.002-35.318C262.899,392.477,260.213,389.791,256.899,389.791z"/>
	<path style="fill:#231F20;" d="M236.324,389.791c-3.314,0-6,2.687-6,6l0.002,35.318c0,3.314,2.686,6,6,6c3.314,0,6-2.686,6-6
		l-0.002-35.318C242.324,392.477,239.638,389.791,236.324,389.791z"/>
</g>
<g>
</g>
<g>
</g>
<g>
</g>
<g>
</g>
<g>
</g>
<g>
</g>
<g>
</g>
<g>
</g>
<g>
</g>
<g>
</g>
<g>
</g>
<g>
</g>
<g>
</g>
<g>
</g>
<g>
</g>
</svg>
