<?xml version="1.0" encoding="iso-8859-1"?>
<!-- Generator: Adobe Illustrator 18.0.0, SVG Export Plug-In . SVG Version: 6.00 Build 0)  -->
<!DOCTYPE svg PUBLIC "-//W3C//DTD SVG 1.1//EN" "http://www.w3.org/Graphics/SVG/1.1/DTD/svg11.dtd">
<svg version="1.1" id="Capa_1" xmlns="http://www.w3.org/2000/svg" xmlns:xlink="http://www.w3.org/1999/xlink" x="0px" y="0px"
	 viewBox="0 0 425.448 425.448" style="enable-background:new 0 0 425.448 425.448;" xml:space="preserve">
<path style="fill:#231F20;" d="M422.169,131.995l-79.765-40.622l0.135-0.052c1.501-0.572,2.71-1.723,3.355-3.192
	c0.646-1.471,0.676-3.139,0.082-4.631l-21.107-53.08c-1.04-2.615-3.717-4.092-6.392-3.723c-0.265-0.035-0.533-0.061-0.808-0.061
	H107.779c-0.275,0-0.545,0.025-0.81,0.061c-2.676-0.367-5.351,1.107-6.391,3.723l-21.106,53.08c-0.593,1.492-0.563,3.16,0.083,4.631
	c0.646,1.47,1.854,2.62,3.355,3.192l0.135,0.052L3.279,131.995c-2.953,1.504-4.128,5.116-2.624,8.069
	c1.059,2.081,3.166,3.278,5.352,3.278c0.916,0,1.846-0.21,2.718-0.654l89.395-45.525c0.015-0.008,0.029-0.017,0.045-0.025
	l26.384,10.062c-4.863,9.938-3.842,22.193,3.107,31.14c-1.229,8.614-1.899,18.158-1.899,27.193c0,1.938,0.936,3.756,2.512,4.882
	c1.031,0.737,2.253,1.118,3.488,1.118c0.653,0,1.311-0.107,1.944-0.324l73.024-25.023v246.63c0,3.313,2.687,6,6,6
	c3.314,0,6-2.687,6-6V146.183l73.027,25.024c0.634,0.218,1.291,0.324,1.944,0.324c1.235,0,2.457-0.381,3.488-1.118
	c1.577-1.126,2.512-2.944,2.512-4.882c0-9.035-0.67-18.579-1.899-27.193c6.95-8.946,7.97-21.202,3.107-31.14l26.383-10.062
	c0.016,0.008,0.029,0.018,0.044,0.025l89.393,45.525c0.872,0.444,1.802,0.654,2.718,0.654c2.185,0,4.292-1.197,5.352-3.278
	C426.297,137.112,425.122,133.498,422.169,131.995z M332.578,82.277l-33.933,12.94c0.684-6.646,1.051-13.592,1.051-20.266
	c0-1.938-0.936-3.756-2.512-4.882c-1.577-1.128-3.601-1.424-5.433-0.794L252.282,82.8l-6.28-15.793l69.903-26.659L332.578,82.277z
	 M286.723,38.634l-50.684,19.329c-1.501,0.572-2.709,1.723-3.355,3.193c-0.646,1.47-0.676,3.138-0.082,4.63l0.898,2.259
	l-20.776,7.842l-20.776-7.842l0.898-2.259c0.594-1.492,0.564-3.16-0.082-4.631c-0.646-1.47-1.855-2.62-3.355-3.192l-50.684-19.329
	H286.723z M211.025,106.243c0.085-0.042,0.234-0.124,0.317-0.171c0.111-0.063,0.603-0.24,1.383-0.24
	c0.777,0,1.268,0.178,1.378,0.239c0.104,0.061,0.211,0.118,0.32,0.172l10.686,5.344c0.555,0.404,1.301,1.724,1.308,2.347v12.616
	c-0.008,0.624-0.754,1.944-1.308,2.348l-10.687,5.346c-0.083,0.042-0.234,0.125-0.315,0.17c-0.111,0.063-0.603,0.239-1.382,0.239
	c-0.781,0-1.274-0.178-1.385-0.24c-0.103-0.059-0.208-0.115-0.314-0.169l-10.686-5.347c-0.555-0.402-1.3-1.722-1.308-2.346v-12.616
	c0.007-0.625,0.752-1.944,1.307-2.347L211.025,106.243z M187.514,79.198l19.21,7.251v7.849l-22.191-7.604L187.514,79.198z
	 M218.724,94.298v-7.85l19.211-7.252l2.981,7.498L218.724,94.298z M128.267,70.07c-1.577,1.126-2.512,2.944-2.512,4.882
	c0,6.674,0.367,13.62,1.051,20.266l-33.935-12.94l16.671-41.929l69.904,26.659l-6.28,15.792L133.7,69.276
	C131.867,68.646,129.844,68.944,128.267,70.07z M138.314,132.341c-6.441-6.667-6.442-17.51-0.001-24.17
	c1.313-1.358,1.91-3.257,1.61-5.123c-0.984-6.125-1.657-12.882-1.969-19.63l54.887,18.807c-3.444,2.753-5.809,7.396-5.809,11.708
	v0.309h-25.08c-3.313,0-6,2.687-6,6c0,3.313,2.687,6,6,6h25.08v0.309c0,4.312,2.364,8.953,5.808,11.707l-54.885,18.808
	c0.313-6.735,0.985-13.483,1.968-19.603C140.223,135.597,139.627,133.7,138.314,132.341z M287.137,132.341
	c-1.313,1.358-1.909,3.256-1.609,5.121c0.983,6.119,1.656,12.867,1.968,19.603l-54.886-18.808c3.443-2.755,5.807-7.396,5.807-11.707
	v-0.309h26.008c3.313,0,6-2.687,6-6c0-3.313-2.687-6-6-6h-26.008v-0.309c0-4.311-2.364-8.954-5.808-11.708l54.888-18.807
	c-0.313,6.748-0.985,13.505-1.969,19.63c-0.3,1.866,0.297,3.765,1.61,5.123C293.579,114.831,293.578,125.674,287.137,132.341z"/>
<g>
</g>
<g>
</g>
<g>
</g>
<g>
</g>
<g>
</g>
<g>
</g>
<g>
</g>
<g>
</g>
<g>
</g>
<g>
</g>
<g>
</g>
<g>
</g>
<g>
</g>
<g>
</g>
<g>
</g>
</svg>
