<?xml version="1.0" encoding="iso-8859-1"?>
<!-- Generator: Adobe Illustrator 18.0.0, SVG Export Plug-In . SVG Version: 6.00 Build 0)  -->
<!DOCTYPE svg PUBLIC "-//W3C//DTD SVG 1.1//EN" "http://www.w3.org/Graphics/SVG/1.1/DTD/svg11.dtd">
<svg version="1.1" id="Capa_1" xmlns="http://www.w3.org/2000/svg" xmlns:xlink="http://www.w3.org/1999/xlink" x="0px" y="0px"
	 viewBox="0 0 403.855 403.855" style="enable-background:new 0 0 403.855 403.855;" xml:space="preserve">
<g>
	<g>
		<g>
			<g>
				<g>
					<path style="fill:#231F20;" d="M201.981,69.609c-0.036,0-0.07,0-0.106,0c-0.102,0-0.214-0.006-0.335-0.017
						c-0.388-0.029-0.779-0.095-1.158-0.196c-4.58-1.028-15.415-5.624-24.026-10.296c-16.001-8.682-26.438-18.001-31.021-27.699
						c-0.879-1.858-0.744-4.038,0.356-5.774c1.101-1.736,3.013-2.789,5.069-2.789h102.338c2.056,0,3.969,1.053,5.068,2.789
						c1.101,1.737,1.234,3.916,0.357,5.774c-4.583,9.697-15.02,19.017-31.02,27.699c-8.614,4.674-19.454,9.272-24.032,10.298
						c-0.377,0.1-0.765,0.166-1.15,0.194C202.196,69.604,202.083,69.609,201.981,69.609z M162.61,34.838
						c11.848,11.65,33.315,20.736,39.318,22.602c6.002-1.865,27.469-10.951,39.318-22.602H162.61z"/>
				</g>
				<g>
					<g>
						<path style="fill:#231F20;" d="M319.645,403.855H82.878c-3.313,0-6-2.686-6-6v-26.873c0-8.693,1.735-17.062,5.162-24.92
							c-3.135-7.188-4.854-14.805-5.124-22.708c0-0.003,0-0.007,0-0.01c-0.002-0.056-0.004-0.111-0.006-0.167
							c0-0.001,0-0.001,0-0.001c0-0.01,0-0.02-0.001-0.029c0-0.009-0.001-0.018-0.001-0.028c0-0.001,0-0.002,0-0.003
							c-0.001-0.018-0.001-0.035-0.002-0.053c-0.001-0.049-0.003-0.1-0.004-0.149c-0.001-0.007-0.001-0.013-0.001-0.021
							c0-0.005,0-0.011,0-0.016c-0.001-0.014-0.001-0.027-0.001-0.04c-0.004-0.169-0.008-0.336-0.011-0.504c0-0.001,0-0.003,0-0.004
							c-0.001-0.074-0.002-0.148-0.003-0.222c0-0.001,0-0.003,0-0.005c0-0.008,0-0.016,0-0.024
							c-0.001-0.086-0.002-0.173-0.003-0.259c0-0.034,0-0.068-0.001-0.102c0-0.004,0-0.008,0-0.012c0-0.055-0.001-0.11-0.001-0.165
							c0-0.002,0-0.004,0-0.005c0-0.001,0-0.003,0-0.004c-0.001-0.131-0.001-0.261-0.001-0.393c0-0.029,0-0.058,0.001-0.087
							l1.999-280.764c0.023-3.299,2.706-5.958,5.999-5.958c0.015,0,0.029,0,0.044,0c3.314,0.024,5.981,2.729,5.957,6.043l-2,280.783
							c0,0.111,0.001,0.223,0.001,0.333c0.001,0.025,0.001,0.05,0.001,0.075c0,0.054,0.001,0.107,0.002,0.162
							c0,0.005,0,0.01,0,0.015c0.001,0.039,0.001,0.079,0.002,0.118c0,0.05,0.001,0.1,0.002,0.15c0,0.003,0,0.004,0,0.006
							c0.001,0.029,0.001,0.059,0.002,0.088c0.001,0.068,0.002,0.137,0.004,0.205c0.001,0.052,0.002,0.105,0.003,0.157
							c0,0.006,0.001,0.011,0.001,0.017c0.188,7.342,1.914,14.376,5.141,20.928c0.156,0.318,0.283,0.647,0.38,0.981
							c0.16,0.551,0.237,1.113,0.237,1.669c0,0.134-0.005,0.268-0.014,0.401c-0.052,0.772-0.253,1.537-0.603,2.249
							c-3.423,6.955-5.159,14.448-5.159,22.272v20.873h224.767v-20.873c0-7.805-1.727-15.28-5.133-22.22
							c-0.079-0.156-0.15-0.315-0.215-0.478c-0.001-0.001-0.001-0.002-0.002-0.004c0-0.001,0-0.001-0.001-0.001
							c-0.086-0.218-0.16-0.44-0.22-0.664c-0.001-0.001-0.001-0.002-0.001-0.004c0,0-0.001-0.001-0.001-0.003
							c-0.135-0.502-0.204-1.023-0.204-1.549c-0.001-0.881,0.193-1.775,0.603-2.62v0c0.002-0.002,0.003-0.006,0.005-0.009v-0.001
							c0.001-0.003,0.003-0.005,0.004-0.008c0,0,0.001-0.001,0.001-0.001c0.002-0.004,0.003-0.007,0.005-0.01
							c3.423-6.952,5.158-14.445,5.158-22.272l-2-284.237c-0.023-3.313,2.645-6.018,5.958-6.042c0.015,0,0.028,0,0.043,0
							c3.294,0,5.976,2.659,5.999,5.958l2,284.279c0,0.001,0,0.003,0,0.004c0,0.013,0,0.025,0,0.038
							c0,8.695-1.735,17.065-5.163,24.922c3.428,7.858,5.163,16.228,5.163,24.921v26.873
							C325.645,401.169,322.958,403.855,319.645,403.855z"/>
					</g>
				</g>
				<g>
					<g>
						<g>
							<path style="fill:#231F20;" d="M82.298,378.594H23.832c-1.596,0-3.125-0.636-4.252-1.766
								c-1.126-1.13-1.755-2.663-1.748-4.259l1.177-286.348c0.014-3.313,2.668-5.965,6.024-5.975
								c3.314,0.014,5.989,2.711,5.976,6.025l-1.152,280.323h52.441c3.313,0,6,2.686,6,6S85.611,378.594,82.298,378.594z"/>
						</g>
						<g>
							<path style="fill:#231F20;" d="M25.009,92.246c-3.313,0-6-2.687-6-6c0-30.442,24.637-55.238,55.02-55.494l47.57-7.417
								c3.274-0.51,6.342,1.73,6.853,5.004c0.511,3.274-1.73,6.342-5.004,6.852l-48.017,7.486c-0.306,0.048-0.615,0.072-0.924,0.072
								c-23.985,0-43.498,19.512-43.498,43.496C31.009,89.559,28.322,92.246,25.009,92.246z"/>
						</g>
						<g>
							<path style="fill:#231F20;" d="M87.275,352.275H26.823c-3.313,0-6-2.686-6-6c0-3.313,2.687-6,6-6h60.452c3.313,0,6,2.687,6,6
								C93.275,349.589,90.589,352.275,87.275,352.275z"/>
						</g>
					</g>
					<g>
						<g>
							<path style="fill:#231F20;" d="M380.023,378.594h-58.467c-3.314,0-6-2.686-6-6s2.686-6,6-6h52.442l-1.153-280.323
								c-0.014-3.314,2.662-6.011,5.976-6.025c0.008,0,0.017,0,0.025,0c3.302,0,5.985,2.67,5.999,5.975l1.178,286.348
								c0.007,1.596-0.623,3.128-1.749,4.259C383.148,377.958,381.619,378.594,380.023,378.594z"/>
						</g>
						<g>
							<path style="fill:#231F20;" d="M378.846,92.246c-3.314,0-6-2.687-6-6c0-23.984-19.513-43.496-43.498-43.496
								c-0.31,0-0.618-0.024-0.924-0.072l-48.017-7.486c-3.273-0.51-5.514-3.579-5.004-6.852c0.511-3.274,3.587-5.514,6.853-5.004
								l47.569,7.417c30.384,0.256,55.021,25.052,55.021,55.494C384.846,89.559,382.159,92.246,378.846,92.246z"/>
						</g>
						<g>
							<path style="fill:#231F20;" d="M377.031,352.275H316.58c-3.313,0-6-2.686-6-6c0-3.313,2.687-6,6-6h60.451
								c3.314,0,6,2.687,6,6C383.031,349.589,380.345,352.275,377.031,352.275z"/>
						</g>
					</g>
				</g>
				<g>
					<path style="fill:#231F20;" d="M261.244,85.215c-1.078,0-2.15-0.29-3.096-0.86L221.96,62.559
						c-2.839-1.709-3.754-5.396-2.044-8.235c1.709-2.837,5.396-3.754,8.235-2.044l29.936,18.029l12.819-35.402
						c0.185-0.599,2.859-9.639-1.63-15.823C265.863,14.384,258.84,12,248.4,12h-92.945c-10.439,0-17.463,2.384-20.876,7.085
						c-4.459,6.143-1.85,15.102-1.625,15.835l12.814,35.389l29.936-18.029c2.841-1.71,6.527-0.793,8.235,2.044
						c1.71,2.839,0.794,6.526-2.044,8.235l-36.188,21.795c-1.538,0.926-3.41,1.115-5.1,0.516c-1.692-0.6-3.026-1.925-3.637-3.613
						L121.633,38.9c-0.015-0.041-0.029-0.083-0.044-0.124c-0.208-0.616-4.996-15.215,3.205-26.639
						C130.576,4.083,140.892,0,155.455,0H248.4c14.563,0,24.879,4.083,30.661,12.137c8.201,11.424,3.412,26.023,3.204,26.639
						c-0.014,0.042-0.028,0.083-0.043,0.124l-15.337,42.357c-0.611,1.688-1.945,3.013-3.637,3.613
						C262.598,85.101,261.92,85.215,261.244,85.215z"/>
				</g>
			</g>
		</g>
		<g>
			<g>
				<path style="fill:#231F20;" d="M201.929,119.441c-1.623,0-3.24-0.654-4.423-1.944l-37.448-40.832
					c-2.24-2.442-2.076-6.238,0.366-8.478c2.442-2.241,6.237-2.076,8.477,0.366l37.448,40.832c2.24,2.442,2.076,6.238-0.366,8.477
					C204.831,118.92,203.378,119.441,201.929,119.441z"/>
			</g>
			<g>
				<path style="fill:#231F20;" d="M201.926,119.441c-1.449,0-2.902-0.521-4.054-1.578c-2.442-2.24-2.606-6.035-0.366-8.477
					l37.448-40.832c2.24-2.441,6.033-2.608,8.478-0.366c2.442,2.24,2.607,6.035,0.366,8.478l-37.448,40.832
					C205.166,118.787,203.549,119.441,201.926,119.441z"/>
			</g>
		</g>
	</g>
	<g>
		<g>
			<g>
				<line style="fill:#FFFFFF;" x1="336.017" y1="191.783" x2="322.163" y2="199.412"/>
				<path style="fill:#231F20;" d="M322.169,205.413c-2.117,0-4.169-1.122-5.262-3.107c-1.599-2.902-0.541-6.551,2.361-8.15
					l13.854-7.629c2.904-1.599,6.552-0.541,8.15,2.362c1.599,2.902,0.541,6.551-2.361,8.15l-13.854,7.629
					C324.14,205.173,323.147,205.413,322.169,205.413z"/>
			</g>
			<g>
				<line style="fill:#FFFFFF;" x1="322.163" y1="201.928" x2="336.017" y2="209.557"/>
				<path style="fill:#231F20;" d="M336.011,215.558c-0.979,0-1.971-0.24-2.889-0.745l-13.854-7.629
					c-2.902-1.599-3.96-5.248-2.361-8.15c1.599-2.902,5.247-3.961,8.15-2.362l13.854,7.629c2.902,1.599,3.96,5.248,2.361,8.15
					C340.18,214.436,338.128,215.558,336.011,215.558z"/>
			</g>
		</g>
		<g>
			<g>
				<line style="fill:#FFFFFF;" x1="67.839" y1="191.783" x2="81.692" y2="199.412"/>
				<path style="fill:#231F20;" d="M81.687,205.413c-0.979,0-1.971-0.24-2.889-0.745l-13.854-7.629
					c-2.903-1.599-3.96-5.248-2.362-8.15c1.598-2.902,5.248-3.96,8.15-2.362l13.854,7.629c2.903,1.599,3.96,5.248,2.362,8.15
					C85.855,204.291,83.803,205.413,81.687,205.413z"/>
			</g>
			<g>
				<line style="fill:#FFFFFF;" x1="81.692" y1="201.928" x2="67.839" y2="209.557"/>
				<path style="fill:#231F20;" d="M67.844,215.558c-2.116,0-4.168-1.122-5.261-3.107c-1.598-2.902-0.541-6.551,2.362-8.15
					l13.854-7.629c2.903-1.597,6.551-0.542,8.15,2.362c1.598,2.902,0.541,6.551-2.362,8.15l-13.854,7.629
					C69.815,215.318,68.823,215.558,67.844,215.558z"/>
			</g>
		</g>
	</g>
</g>
<g>
</g>
<g>
</g>
<g>
</g>
<g>
</g>
<g>
</g>
<g>
</g>
<g>
</g>
<g>
</g>
<g>
</g>
<g>
</g>
<g>
</g>
<g>
</g>
<g>
</g>
<g>
</g>
<g>
</g>
</svg>
