<?xml version="1.0" encoding="iso-8859-1"?>
<!-- Generator: Adobe Illustrator 18.0.0, SVG Export Plug-In . SVG Version: 6.00 Build 0)  -->
<!DOCTYPE svg PUBLIC "-//W3C//DTD SVG 1.1//EN" "http://www.w3.org/Graphics/SVG/1.1/DTD/svg11.dtd">
<svg version="1.1" id="Capa_1" xmlns="http://www.w3.org/2000/svg" xmlns:xlink="http://www.w3.org/1999/xlink" x="0px" y="0px"
	 viewBox="0 0 418.68 418.68" style="enable-background:new 0 0 418.68 418.68;" xml:space="preserve">
<path style="fill:#231F20;" d="M382.56,232.857c-0.157-0.081-0.318-0.156-0.483-0.225l-174.75-71.83
	c-2.237-0.916-4.811-0.405-6.523,1.307c-7.19,7.189-14.785,13.408-22.68,18.619c-2.418-7.132-0.771-16.28,4.938-27.25
	c10.819-20.786,7.799-39.536-8.733-54.225c-2.479-2.201-6.27-1.979-8.471,0.5c-2.201,2.478-1.977,6.27,0.5,8.471
	c12.3,10.927,14.281,23.917,6.06,39.714c-7.857,15.099-9.439,28.211-4.74,39.006c-13.088,6.949-26.848,11.222-40.873,12.608
	c-26.934,2.663-53.126-5.62-75.756-23.951c-1.344-1.129-3.165-1.665-5.019-1.303c-15.646,3.073-27.919,15.134-31.269,30.727
	c-0.001,0.006-0.002,0.013-0.003,0.019c-0.001,0.005-0.003,0.01-0.004,0.015L0.506,273.284c-0.004,0.017-0.011,0.031-0.015,0.048
	C0.165,274.637,0,275.982,0,277.328c0,2.357,0.507,4.596,1.403,6.626C0.528,284.996,0,286.34,0,287.807v27.135c0,3.313,2.687,6,6,6
	h406.68c3.314,0,6-2.687,6-6v-27.613C418.68,263.439,404.521,242.115,382.56,232.857z M377.517,243.756
	c15.992,6.581,26.873,21.16,28.839,38.043h-93.253c5.244-3.395,10.04-7.487,14.353-12.307
	c11.058-12.358,16.768-27.089,19.701-38.238l29.903,12.291C377.209,243.621,377.361,243.692,377.517,243.756z M45.761,186.724
	c24.619,19.102,52.984,27.655,82.224,24.77c16.05-1.588,31.734-6.547,46.56-14.617c8.209,8.071,18.8,10.445,19.379,10.569
	c0.425,0.092,0.848,0.135,1.265,0.135c2.768,0,5.257-1.927,5.86-4.742c0.695-3.24-1.367-6.43-4.607-7.125
	c-0.086-0.019-5.898-1.385-11.12-5.355c7.307-4.876,14.36-10.535,21.093-16.958l10.23,4.205l-6.824,17.124
	c-1.228,3.078,0.273,6.567,3.352,7.794c0.729,0.291,1.48,0.429,2.219,0.429c2.384,0,4.64-1.431,5.575-3.781l6.776-17.004
	l8.527,3.506l-6.736,16.906c-1.227,3.078,0.274,6.567,3.354,7.795c0.729,0.29,1.479,0.428,2.219,0.428
	c2.384,0,4.64-1.432,5.576-3.781l6.689-16.785l8.529,3.506l-6.651,16.691c-1.227,3.078,0.274,6.567,3.354,7.795
	c0.729,0.29,1.479,0.428,2.219,0.428c2.384,0,4.64-1.432,5.576-3.781l6.603-16.57l8.528,3.506l-6.563,16.473
	c-1.227,3.078,0.275,6.568,3.353,7.795c0.729,0.29,1.479,0.428,2.219,0.428c2.385,0,4.64-1.432,5.576-3.781l6.514-16.352
	l10.672,4.387l-15.479,38.179c-9.095-3.317-28.172-9.154-52.596-10.406c-31.297-1.612-77.567,4.388-120.197,42.063
	c-0.408,0.361-0.75,0.769-1.036,1.203H16.473c-2.466,0-4.473-2.006-4.473-4.471c0-0.299,0.037-0.596,0.096-0.889
	c0.008-0.033,0.022-0.063,0.029-0.096l14.366-68.798v-0.001C28.645,197.524,36.078,189.604,45.761,186.724z M12,308.942v-15.775
	c1.425,0.402,394.68,0.341,394.68,0.341v15.435H12z"/>
<g>
</g>
<g>
</g>
<g>
</g>
<g>
</g>
<g>
</g>
<g>
</g>
<g>
</g>
<g>
</g>
<g>
</g>
<g>
</g>
<g>
</g>
<g>
</g>
<g>
</g>
<g>
</g>
<g>
</g>
</svg>
