<?xml version="1.0" encoding="iso-8859-1"?>
<!-- Generator: Adobe Illustrator 18.0.0, SVG Export Plug-In . SVG Version: 6.00 Build 0)  -->
<!DOCTYPE svg PUBLIC "-//W3C//DTD SVG 1.1//EN" "http://www.w3.org/Graphics/SVG/1.1/DTD/svg11.dtd">
<svg version="1.1" id="Capa_1" xmlns="http://www.w3.org/2000/svg" xmlns:xlink="http://www.w3.org/1999/xlink" x="0px" y="0px"
	 viewBox="0 0 372 372" style="enable-background:new 0 0 372 372;" xml:space="preserve">
<path style="fill:#231F20;" d="M366,206.056h-8.355V91.646c0-3.314-2.686-6-6-6H351.5v-36.5c0-3.314-2.686-6-6-6h-21.75v-2.75
	c0-3.313-2.686-6-6-6h-16.5c-3.314,0-6,2.687-6,6v2.75h-53.833v-2.75c0-3.313-2.687-6-6-6h-16.5c-3.314,0-6,2.687-6,6v2.75h-53.833
	v-2.75c0-3.313-2.686-6-6-6h-16.5c-3.314,0-6,2.687-6,6v2.75H76.75v-2.75c0-3.313-2.687-6-6-6h-16.5c-3.313,0-6,2.687-6,6v2.75H26.5
	c-3.313,0-6,2.686-6,6v36.5h-0.145c-3.313,0-6,2.686-6,6v114.411H6c-3.313,0-6,2.687-6,6v92c0,3.313,2.687,6,6,6h8.356v21.548
	c0,3.314,2.686,6,6,6h145.029c0.436,0,0.859-0.049,1.27-0.137c2.74-0.554,4.805-2.976,4.805-5.88c0-8.695-1.75-17.062-5.178-24.922
	c3.429-7.859,5.18-16.226,5.18-24.922v-63.687h29.047v63.687c0,8.696,1.751,17.063,5.18,24.922
	c-3.428,7.86-5.178,16.227-5.178,24.922c0,2.931,2.104,5.368,4.882,5.892c0.395,0.081,0.805,0.125,1.224,0.125h145.029
	c3.314,0,6-2.686,6-6v-21.548H366c3.314,0,6-2.687,6-6v-92C372,208.743,369.314,206.056,366,206.056z M360,233.556h-43v-15.5h43
	V233.556z M339.5,55.146v30.5h-15.75v-30.5H339.5z M295.25,55.146v30.5h-53.833v-30.5H295.25z M212.917,55.146v30.5h-53.833v-30.5
	H212.917z M130.584,55.146v30.5H76.75v-30.5H130.584z M32.5,55.146h15.75v30.5H32.5V55.146z M55,218.056v15.5H12v-15.5H55z
	 M12,245.556h43v52.5H12V245.556z M212.859,325.604c0.662-5.67,2.268-11.129,4.808-16.29c0.014-0.028,0.023-0.057,0.037-0.086
	c0.046-0.099,0.088-0.199,0.129-0.3c0.036-0.087,0.072-0.174,0.104-0.262c0.03-0.087,0.057-0.176,0.083-0.265
	c0.031-0.102,0.063-0.204,0.089-0.307c0.019-0.079,0.033-0.158,0.049-0.237c0.023-0.112,0.047-0.224,0.064-0.337
	c0.012-0.079,0.017-0.158,0.025-0.237c0.012-0.112,0.024-0.224,0.029-0.336c0.004-0.091,0.002-0.181,0.002-0.272
	c0-0.1,0.003-0.201-0.002-0.3c-0.005-0.104-0.018-0.207-0.027-0.311c-0.01-0.088-0.016-0.175-0.028-0.262
	c-0.016-0.106-0.038-0.212-0.059-0.318c-0.018-0.086-0.033-0.171-0.054-0.256c-0.024-0.097-0.055-0.194-0.083-0.291
	c-0.029-0.094-0.057-0.188-0.09-0.281c-0.029-0.083-0.063-0.165-0.098-0.248c-0.043-0.105-0.086-0.211-0.135-0.314
	c-0.013-0.027-0.021-0.054-0.035-0.081c-3.423-6.954-5.158-14.447-5.158-22.272v-63.687h11.348c3.313,0,6-2.687,6-6
	c0-3.313-2.687-6-6-6h-75.711c-2.711,0-5.086,1.818-5.793,4.436c-0.706,2.618,0.43,5.384,2.772,6.749l14.337,8.352v56.15
	c0,7.825-1.735,15.318-5.158,22.272c-0.014,0.027-0.022,0.054-0.035,0.081c-0.049,0.103-0.092,0.208-0.135,0.314
	c-0.034,0.083-0.068,0.165-0.098,0.248c-0.033,0.093-0.061,0.187-0.089,0.281c-0.029,0.097-0.06,0.194-0.084,0.291
	c-0.021,0.085-0.036,0.17-0.054,0.256c-0.021,0.105-0.044,0.211-0.06,0.318c-0.013,0.087-0.018,0.174-0.028,0.262
	c-0.01,0.104-0.023,0.207-0.027,0.311c-0.005,0.1-0.002,0.199-0.002,0.299c0,0.091-0.002,0.183,0.002,0.274
	c0.005,0.111,0.018,0.222,0.029,0.333c0.009,0.08,0.015,0.16,0.025,0.24c0.017,0.113,0.04,0.225,0.063,0.337
	c0.016,0.079,0.03,0.158,0.049,0.237c0.025,0.103,0.058,0.205,0.089,0.307c0.026,0.089,0.053,0.177,0.083,0.265
	c0.031,0.088,0.067,0.174,0.104,0.262c0.041,0.101,0.083,0.201,0.129,0.3c0.014,0.028,0.023,0.058,0.037,0.086
	c2.54,5.161,4.145,10.621,4.808,16.29H26.355v-15.548H61c3.313,0,6-2.687,6-6v-92c0-3.313-2.687-6-6-6H26.355V97.646H26.5h21.75
	v2.75c0,3.313,2.687,6,6,6h16.5c3.313,0,6-2.687,6-6v-2.75h53.834v2.75c0,3.313,2.686,6,6,6h16.5c3.314,0,6-2.687,6-6v-2.75h36.51
	v83.411h-25.188c-3.313,0-6,2.687-6,6c0,3.313,2.687,6,6,6h31.188c3.313,0,6-2.687,6-6V97.646h5.323v2.75c0,3.313,2.686,6,6,6h16.5
	c3.313,0,6-2.687,6-6v-2.75h53.833v2.75c0,3.313,2.686,6,6,6h16.5c3.314,0,6-2.687,6-6v-2.75h21.75h0.145v108.411H311
	c-3.314,0-6,2.687-6,6v92c0,2.969,2.159,5.428,4.992,5.909l35.652,9.983v5.657H212.859z M317,298.056v-52.5h43v52.5H317z"/>
<g>
</g>
<g>
</g>
<g>
</g>
<g>
</g>
<g>
</g>
<g>
</g>
<g>
</g>
<g>
</g>
<g>
</g>
<g>
</g>
<g>
</g>
<g>
</g>
<g>
</g>
<g>
</g>
<g>
</g>
</svg>
