<?xml version="1.0" encoding="iso-8859-1"?>
<!-- Generator: Adobe Illustrator 18.0.0, SVG Export Plug-In . SVG Version: 6.00 Build 0)  -->
<!DOCTYPE svg PUBLIC "-//W3C//DTD SVG 1.1//EN" "http://www.w3.org/Graphics/SVG/1.1/DTD/svg11.dtd">
<svg version="1.1" id="Capa_1" xmlns="http://www.w3.org/2000/svg" xmlns:xlink="http://www.w3.org/1999/xlink" x="0px" y="0px"
	 viewBox="0 0 384.977 384.977" style="enable-background:new 0 0 384.977 384.977;" xml:space="preserve">
<path style="fill:#231F20;" d="M318.353,145.759c0-1.957-0.966-3.788-2.568-4.911c-0.347-0.243-0.715-0.445-1.097-0.607
	c-21.887-10.666-36.015-33.238-36.015-57.585V10.402c0-3.007-2.226-5.549-5.206-5.947l-32.98-4.402
	c-0.059-0.008-0.116-0.008-0.175-0.015c-0.048-0.005-0.098-0.008-0.146-0.012c-0.144-0.012-0.287-0.02-0.429-0.021
	C239.709,0.004,239.68,0,239.652,0c-0.061,0-0.119,0.007-0.18,0.009c-0.04,0.002-0.08,0-0.119,0.002
	c-1.574-0.03-3.157,0.545-4.357,1.746c-23.44,23.44-61.577,23.44-85.015,0.001c-1.2-1.2-2.781-1.775-4.354-1.747
	c-0.036-0.002-0.072-0.001-0.108-0.002C145.453,0.008,145.389,0,145.324,0c-0.03,0-0.059,0.004-0.09,0.004
	c-0.137,0.001-0.275,0.01-0.413,0.021c-0.054,0.004-0.107,0.007-0.161,0.013c-0.057,0.006-0.113,0.006-0.17,0.014l-32.981,4.402
	c-2.981,0.398-5.206,2.94-5.206,5.947v72.254c0,24.305-14.076,46.84-35.899,57.528c-0.413,0.164-0.81,0.376-1.184,0.634
	c-1.625,1.12-2.595,2.967-2.595,4.94V302.26c0,0.106,0,0.213,0.001,0.319c0,0.026,0,0.052,0,0.078
	c0.001,0.028,0.001,0.056,0.001,0.084c0,0.028,0.001,0.058,0.001,0.086c0.014,1.546,0.082,3.082,0.205,4.606
	c0,0.001,0.001,0.003,0.001,0.005c0.001,0.015,0.002,0.031,0.004,0.046c0,0.003,0,0.006,0,0.01c0.001,0.01,0.002,0.021,0.002,0.03
	c0.001,0.009,0.002,0.017,0.002,0.026c0,0.006,0.001,0.013,0.001,0.019c0.001,0.012,0.002,0.024,0.003,0.037
	c0,0.008,0.001,0.015,0.002,0.023c0.001,0.011,0.002,0.022,0.003,0.033c0,0.01,0.001,0.021,0.002,0.031
	c0.001,0.008,0.002,0.017,0.002,0.025c0.001,0.007,0.001,0.015,0.002,0.021c0.001,0.011,0.002,0.023,0.003,0.034
	c0,0.003,0,0.006,0.001,0.009c0.001,0.016,0.002,0.031,0.004,0.047c0.001,0.004,0.001,0.007,0.001,0.011
	c0.003,0.034,0.006,0.067,0.009,0.101v0c0.593,6.667,2.237,13.111,4.912,19.242c-3.427,7.858-5.162,16.227-5.162,24.921v26.873
	c0,3.314,2.687,6,6,6h239.73c3.314,0,6-2.686,6-6v-26.873c0-8.694-1.735-17.064-5.163-24.922c3.428-7.858,5.163-16.228,5.163-24.922
	V145.759z M266.673,24.548l-21.021-2.806v-8.893l21.021,2.806V24.548z M233.652,18.443v52.024c0,16.996-13.826,30.822-30.82,30.822
	h-20.686c-16.996,0-30.822-13.827-30.822-30.822V18.444c12.324,8.578,26.738,12.887,41.164,12.887
	C206.912,31.331,221.328,27.021,233.652,18.443z M139.324,12.849v8.893l-21.021,2.806v-8.894L139.324,12.849z M84.166,325.523
	c-0.098-0.338-0.226-0.671-0.384-0.992c-3.32-6.743-5.052-13.995-5.153-21.568c0-0.02-0.001-0.041-0.001-0.063
	c-0.001-0.06-0.001-0.12-0.002-0.179c0-0.001,0-0.002,0-0.004c0-0.019-0.001-0.038-0.001-0.057
	c-0.001-0.133-0.001-0.268-0.001-0.401V149.439c24.224-13.225,39.679-39.033,39.679-66.783V36.655l21.021-2.806v36.618
	c0,23.612,19.21,42.822,42.822,42.822h20.686c23.611,0,42.82-19.21,42.82-42.822V33.849l21.021,2.806v46.001
	c0,27.75,15.456,53.558,39.68,66.783v152.82c0,7.825-1.735,15.318-5.158,22.272c-0.003,0.005-0.005,0.01-0.008,0.016
	c-0.001,0.001-0.001,0.002-0.002,0.003c-0.002,0.004-0.004,0.009-0.006,0.014c-0.001,0.001-0.002,0.004-0.003,0.005
	c-0.002,0.004-0.004,0.008-0.006,0.011c-0.001,0.003-0.003,0.006-0.004,0.01c-0.001,0-0.001,0-0.001,0
	c-0.4,0.836-0.59,1.72-0.589,2.591c0,0.529,0.07,1.053,0.207,1.559c0.06,0.223,0.133,0.444,0.22,0.661c0,0,0,0.001,0,0.001
	c0.002,0.004,0.003,0.008,0.005,0.012c0.064,0.159,0.134,0.315,0.211,0.469c3.406,6.94,5.134,14.415,5.134,22.221v1.885H78.624
	v-1.885c0-7.825,1.735-15.318,5.159-22.272c0.348-0.707,0.548-1.464,0.602-2.23c0.01-0.14,0.015-0.28,0.015-0.42
	C84.4,326.629,84.323,326.071,84.166,325.523z M78.624,372.977v-6.988h227.73v6.988H78.624z"/>
<g>
</g>
<g>
</g>
<g>
</g>
<g>
</g>
<g>
</g>
<g>
</g>
<g>
</g>
<g>
</g>
<g>
</g>
<g>
</g>
<g>
</g>
<g>
</g>
<g>
</g>
<g>
</g>
<g>
</g>
</svg>
