<?xml version="1.0" encoding="iso-8859-1"?>
<!-- Generator: Adobe Illustrator 18.0.0, SVG Export Plug-In . SVG Version: 6.00 Build 0)  -->
<!DOCTYPE svg PUBLIC "-//W3C//DTD SVG 1.1//EN" "http://www.w3.org/Graphics/SVG/1.1/DTD/svg11.dtd">
<svg version="1.1" id="Capa_1" xmlns="http://www.w3.org/2000/svg" xmlns:xlink="http://www.w3.org/1999/xlink" x="0px" y="0px"
	 viewBox="0 0 417.428 417.428" style="enable-background:new 0 0 417.428 417.428;" xml:space="preserve">
<path style="fill:#231F20;" d="M390.542,99.819c0-30.452-24.654-55.255-55.051-55.496l-58.443-8.521V6.001V6v0
	c0-0.217-0.013-0.431-0.035-0.642c-0.005-0.044-0.015-0.087-0.02-0.13c-0.022-0.169-0.049-0.337-0.084-0.502
	c-0.011-0.049-0.025-0.097-0.037-0.145c-0.039-0.157-0.08-0.312-0.131-0.464c-0.017-0.054-0.039-0.106-0.058-0.159
	c-0.052-0.144-0.107-0.285-0.17-0.423c-0.026-0.058-0.055-0.115-0.083-0.172c-0.063-0.128-0.129-0.255-0.201-0.378
	c-0.035-0.061-0.072-0.12-0.109-0.18c-0.073-0.116-0.15-0.228-0.232-0.339c-0.043-0.059-0.086-0.119-0.132-0.176
	c-0.086-0.109-0.176-0.213-0.27-0.316c-0.047-0.051-0.092-0.104-0.141-0.154c-0.115-0.118-0.236-0.23-0.36-0.339
	c-0.027-0.023-0.051-0.05-0.078-0.073c-0.005-0.004-0.01-0.007-0.015-0.011c-0.164-0.137-0.336-0.266-0.514-0.385l0,0
	c-0.173-0.116-0.353-0.221-0.539-0.319c-0.039-0.021-0.079-0.038-0.119-0.058c-0.146-0.073-0.296-0.142-0.449-0.204
	c-0.054-0.022-0.108-0.04-0.163-0.06c-0.14-0.051-0.28-0.099-0.424-0.14c-0.067-0.019-0.135-0.035-0.202-0.052
	c-0.131-0.032-0.264-0.061-0.397-0.084c-0.082-0.014-0.164-0.026-0.247-0.038c-0.12-0.016-0.24-0.028-0.362-0.037
	c-0.094-0.007-0.188-0.012-0.283-0.014C271.146,0.006,271.098,0,271.048,0h-126c-0.045,0-0.089,0.006-0.134,0.007
	c-0.105,0.002-0.21,0.008-0.314,0.016c-0.109,0.008-0.218,0.019-0.325,0.033c-0.096,0.012-0.189,0.026-0.284,0.043
	c-0.119,0.021-0.236,0.047-0.353,0.075c-0.082,0.02-0.164,0.04-0.245,0.063c-0.127,0.036-0.25,0.078-0.373,0.123
	c-0.071,0.025-0.143,0.049-0.213,0.078c-0.132,0.053-0.26,0.113-0.387,0.176c-0.06,0.029-0.12,0.055-0.178,0.086
	c-0.153,0.081-0.301,0.17-0.446,0.264c-0.029,0.02-0.061,0.035-0.089,0.055c-0.173,0.116-0.339,0.241-0.498,0.374
	c-0.007,0.006-0.015,0.01-0.021,0.016c-0.039,0.033-0.072,0.07-0.11,0.104c-0.11,0.098-0.22,0.197-0.322,0.303
	c-0.056,0.057-0.107,0.117-0.16,0.176c-0.086,0.096-0.171,0.192-0.25,0.293c-0.051,0.063-0.098,0.128-0.145,0.194
	c-0.076,0.105-0.15,0.211-0.218,0.32c-0.041,0.064-0.081,0.129-0.119,0.195c-0.068,0.118-0.132,0.238-0.192,0.361
	c-0.03,0.063-0.062,0.124-0.091,0.187c-0.06,0.133-0.112,0.269-0.163,0.407c-0.021,0.058-0.044,0.115-0.063,0.173
	c-0.048,0.147-0.088,0.297-0.125,0.449c-0.014,0.053-0.029,0.105-0.041,0.159c-0.035,0.16-0.061,0.323-0.082,0.488
	c-0.006,0.048-0.016,0.095-0.021,0.142c-0.022,0.212-0.035,0.425-0.035,0.642v29.988l-57.112,8.335
	c-30.395,0.241-55.05,25.044-55.05,55.496v229.172c0,0.094,0,0.189,0.001,0.283c0,0,0,0,0,0.001c0,0.005,0,0.01,0,0.015
	c0,0.082,0.001,0.167,0.001,0.249c0,0.014,0.001,0.026,0.001,0.04c0,0.047,0.001,0.097,0.001,0.145c0,0.009,0,0.018,0.001,0.028
	c0.098,8.425,1.83,16.536,5.157,24.163c-3.427,7.858-5.162,16.227-5.162,24.92c0,3.314,2.686,6,6,6h50.779v26.593
	c0,3.313,2.687,6,6,6h236.766c1.592,0,3.117-0.632,4.243-1.757c1.125-1.125,1.757-2.652,1.757-4.243l-0.002-26.592h52.113
	c3.314,0,6-2.686,6-6c0-8.694-1.735-17.064-5.163-24.922c3.428-7.858,5.163-16.228,5.163-24.922V99.819z M326.692,55.167v36.029
	l-112.644,67.656V22.044l51-8.905v47.26l-13.436,1.796c-3.284,0.44-5.591,3.458-5.152,6.742c0.403,3.015,2.98,5.206,5.939,5.206
	c0.265,0,0.533-0.018,0.803-0.053l33.217-4.44c3.284-0.439,5.591-3.458,5.152-6.742c-0.439-3.285-3.453-5.588-6.742-5.152
	l-7.781,1.04V47.929L326.692,55.167z M139.048,58.795l-7.783-1.041c-3.272-0.437-6.303,1.867-6.742,5.152
	c-0.438,3.284,1.868,6.303,5.152,6.742l33.217,4.44c0.27,0.036,0.537,0.053,0.803,0.053c2.96,0,5.536-2.191,5.939-5.206
	c0.439-3.284-1.868-6.303-5.152-6.742l-13.434-1.796V13.138l51,8.905v136.81L89.403,91.196V55.36l49.645-7.246V58.795z
	 M42.724,359.5h32.202l-9.526,13.335H39.233C39.772,368.233,40.946,363.776,42.724,359.5z M100.823,356.983
	c-3.279-6.658-5.01-13.815-5.149-21.289c-0.002-0.113-0.004-0.227-0.005-0.34c-0.002-0.121-0.003-0.242-0.003-0.363
	c0-0.001,0-0.003,0-0.004c0-0.002,0-0.003,0-0.005c-0.001-0.08-0.001-0.161-0.001-0.241l2-199.924
	c0.033-3.313-2.626-6.026-5.94-6.059c-3.333-0.054-6.026,2.626-6.06,5.939L83.666,334.59c-0.001,0.041-0.001,0.081-0.001,0.122
	c0,0.119,0,0.238,0.001,0.357c0,0.02,0,0.04,0,0.06c0.001,0.031,0.001,0.063,0.001,0.094c0,0.005,0,0.011,0,0.017
	c0,0.013,0,0.027,0.001,0.04c0,0.028,0,0.056,0,0.083c0.001,0.029,0.001,0.058,0.001,0.087c0,0.007,0,0.014,0.001,0.021
	c0,0.068,0.001,0.137,0.002,0.206c0,0.006,0,0.011,0.001,0.017c0,0.013,0,0.027,0,0.04c0,0,0,0,0,0
	c0.001,0.038,0.001,0.075,0.002,0.112c0,0.006,0,0.013,0,0.02c0.001,0.05,0.002,0.1,0.003,0.15c0.001,0.008,0.001,0.018,0.001,0.025
	c0,0.011,0,0.021,0.001,0.031c0,0.002,0,0.004,0,0.006c0,0.017,0,0.034,0.001,0.051c0,0.004,0,0.008,0,0.012
	c0.085,3.86,0.526,7.65,1.296,11.36H42.397c-2.256-5.706-3.446-11.73-3.509-17.978c-0.001-0.04-0.001-0.079-0.001-0.119
	c-0.001-0.025-0.001-0.051-0.001-0.077c0-0.016,0-0.031,0-0.046c-0.001-0.097-0.001-0.193-0.001-0.29V99.819
	c0-22.3,16.87-40.725,38.518-43.204v37.976c0,2.106,1.104,4.059,2.911,5.144l121.733,73.115v232.577H95.665v-20.872
	c0-7.826,1.735-15.319,5.158-22.272C101.646,360.613,101.646,358.654,100.823,356.983z M214.048,405.428V172.851l121.733-73.115
	c1.807-1.085,2.911-3.037,2.911-5.144V56.486c22.283,1.861,39.85,20.579,39.85,43.334v229.172c0,6.435-1.193,12.639-3.513,18.509
	h-43.897c0.863-4.165,1.299-8.436,1.299-12.788c0-0.023,0-0.046,0-0.069l-2-199.946c-0.033-3.293-2.713-5.94-5.999-5.94
	c-0.021,0-0.041,0-0.061,0.001c-3.314,0.033-5.974,2.746-5.94,6.059l2,199.895c0,7.825-1.735,15.318-5.158,22.272
	c-0.002,0.003-0.004,0.006-0.005,0.009l-0.001,0.002c-0.001,0.003-0.003,0.005-0.004,0.008c0,0,0,0,0,0
	c-0.414,0.848-0.609,1.746-0.608,2.63c0,0.546,0.075,1.087,0.221,1.609c0,0.002,0.001,0.003,0.001,0.005
	c0.001,0.001,0.001,0.001,0.001,0.001c0.052,0.187,0.113,0.371,0.184,0.554l0.001,0.001c0,0.001,0.001,0.003,0.001,0.004
	c0.07,0.18,0.148,0.356,0.235,0.528c3.404,6.939,5.131,14.414,5.131,22.22l0.002,20.872H214.048z M352.026,372.835l-9.524-13.335
	h32.202c1.777,4.276,2.952,8.733,3.49,13.335H352.026z"/>
<g>
</g>
<g>
</g>
<g>
</g>
<g>
</g>
<g>
</g>
<g>
</g>
<g>
</g>
<g>
</g>
<g>
</g>
<g>
</g>
<g>
</g>
<g>
</g>
<g>
</g>
<g>
</g>
<g>
</g>
</svg>
