<?xml version="1.0" encoding="iso-8859-1"?>
<!-- Generator: Adobe Illustrator 18.0.0, SVG Export Plug-In . SVG Version: 6.00 Build 0)  -->
<!DOCTYPE svg PUBLIC "-//W3C//DTD SVG 1.1//EN" "http://www.w3.org/Graphics/SVG/1.1/DTD/svg11.dtd">
<svg version="1.1" id="Capa_1" xmlns="http://www.w3.org/2000/svg" xmlns:xlink="http://www.w3.org/1999/xlink" x="0px" y="0px"
	 viewBox="0 0 463.047 463.047" style="enable-background:new 0 0 463.047 463.047;" xml:space="preserve">
<g>
	<path style="fill:#231F20;" d="M450.771,272.695c-2.486-1.744-5.313-3.109-8.203-3.998c-0.034-0.012,0.035,0.011,0,0
		l-108.667-33.815l-16.864-12.905l0.179-0.232c2.02-2.628,1.527-6.395-1.1-8.414c-2.628-2.018-6.394-1.528-8.414,1.1l-0.195,0.254
		l-7.902-6.048l0.2-0.26c2.021-2.627,1.528-6.394-1.098-8.414c-2.627-2.021-6.394-1.529-8.414,1.098l-0.219,0.284l-7.906-6.051
		l0.224-0.291c2.02-2.627,1.527-6.393-1.1-8.414c-2.625-2.019-6.394-1.53-8.414,1.1l-0.24,0.313l-7.904-6.049l0.246-0.32
		c2.02-2.627,1.527-6.394-1.1-8.414c-2.626-2.019-6.395-1.529-8.414,1.1l-0.263,0.342l-7.905-6.051l0.268-0.348
		c2.02-2.627,1.527-6.393-1.1-8.414c-2.626-2.019-6.394-1.529-8.414,1.1l-0.284,0.369l-64.115-49.064
		c-2.061-1.577-4.898-1.649-7.036-0.186c-10.086,6.906-16.593,18.648-17.852,32.216c-1.216,13.104,2.574,25.941,10.194,35.095
		l-7.721,9.162c-0.059,0.064-0.119,0.123-0.175,0.189c-12.903,15.49-33.174,23.146-52.921,20
		c-7.604-1.525-13.584-6.657-16.004-13.742c-0.004-0.012-0.01-0.023-0.014-0.035c-0.007-0.018-0.01-0.036-0.017-0.054
		c-4.482-12.482-16.296-20.915-29.53-21.191c-0.212-0.023-0.427-0.036-0.644-0.036c-19.923,0-36.46,14.925-38.468,34.717
		c-0.011,0.104-0.011,0.208-0.016,0.311l-9.034,81.654c-2.76,4.51-4.264,9.637-4.379,14.966C0.014,305.531,0,305.748,0,305.968
		v19.955c0,14.397,11.714,26.109,26.111,26.109H407.34c30.717,0,55.707-24.99,55.707-55.707
		C463.047,286.934,458.459,278.101,450.771,272.695z M51.789,185.672c0.043,0.002,0.084,0.007,0.127,0.007
		c8.453,0,16.048,5.334,18.898,13.271c0.004,0.012,0.011,0.021,0.015,0.033c3.856,11.152,13.218,19.2,25.073,21.535
		c0.036,0.007-0.032-0.005,0,0c3.607,0.583,7.43,0.904,11.033,0.904c20.012,0,39.833-9.223,53.102-24.706
		c0.132-0.131-0.122,0.145,0,0l12.738-15.117c0.09-0.107,0.177-0.217,0.259-0.329c8.506-11.657,24.92-14.219,36.586-5.707
		c2.678,1.952,6.43,1.365,8.384-1.311c1.952-2.678,1.365-6.431-1.312-8.384c-15.51-11.311-36.767-9.197-49.804,4.146
		c-4.678-6.589-7.01-15.618-6.175-24.626c0.776-8.367,4.137-15.708,9.39-20.744l60.35,46.183l-14.267,18.554
		c-2.019,2.627-1.527,6.394,1.1,8.414c1.09,0.838,2.376,1.243,3.653,1.243c1.799,0,3.579-0.806,4.761-2.343l14.283-18.575
		l7.905,6.05L233.6,202.754c-2.02,2.627-1.527,6.394,1.1,8.414c1.09,0.838,2.376,1.243,3.653,1.243c1.799,0,3.579-0.806,4.761-2.343
		l14.306-18.605l7.904,6.049l-14.311,18.613c-2.02,2.627-1.527,6.394,1.1,8.414c1.09,0.838,2.376,1.243,3.653,1.243
		c1.799,0,3.579-0.806,4.761-2.343l14.327-18.635l7.906,6.051l-14.334,18.638c-2.02,2.627-1.528,6.395,1.098,8.414
		c1.091,0.839,2.377,1.244,3.654,1.244c1.799,0,3.578-0.806,4.76-2.342l14.352-18.661l7.904,6.049l-14.353,18.67
		c-2.02,2.628-1.527,6.395,1.1,8.414c1.091,0.838,2.377,1.243,3.653,1.243c1.799,0,3.579-0.806,4.761-2.343l14.369-18.691
		l17.731,13.568c0.56,0.429,1.191,0.755,1.863,0.965l109.738,34.132c0.005,0.001-0.006-0.001,0,0c0.014,0.005-0.014-0.004,0,0
		c1.719,0.517,3.34,1.323,4.816,2.359c4.492,3.158,7.174,8.321,7.174,13.811c0,1.876-0.133,3.72-0.362,5.533H297.268l-0.301,0.002
		c-7.993,0-15.759-3.271-21.305-8.973l-0.445-0.468l-0.012,0.012l-34.938-34.938c-3.997-4.007-9.194-6.213-14.632-6.213
		c-4.152,0-8.143,1.299-11.543,3.761c-16.506,12.267-36.143,18.751-56.79,18.751H18.322l7.155-64.676
		c0.007-0.062,0.006-0.123,0.011-0.185C27.165,195.672,38.339,185.743,51.789,185.672z M407.34,340.032H26.111
		c-7.781,0-14.111-6.329-14.111-14.109v-19.7c0.003-0.078,0.012-0.154,0.012-0.233c0-1.13,0.115-2.244,0.318-3.336l205.473-0.001
		c3.27-0.037,6.514,1.471,8.551,4.086c0.165,0.212,0.344,0.406,0.529,0.589c11.011,12.639,26.875,19.881,43.723,19.883h167.632
		C430.322,335.128,419.393,340.032,407.34,340.032z"/>
	<path style="fill:#231F20;" d="M74.938,315.075H37.6c-3.314,0-6,2.686-6,6c0,3.313,2.686,6,6,6h37.338c3.313,0,6-2.687,6-6
		C80.938,317.762,78.251,315.075,74.938,315.075z"/>
</g>
<g>
</g>
<g>
</g>
<g>
</g>
<g>
</g>
<g>
</g>
<g>
</g>
<g>
</g>
<g>
</g>
<g>
</g>
<g>
</g>
<g>
</g>
<g>
</g>
<g>
</g>
<g>
</g>
<g>
</g>
</svg>
