<?xml version="1.0" encoding="iso-8859-1"?>
<!-- Generator: Adobe Illustrator 18.0.0, SVG Export Plug-In . SVG Version: 6.00 Build 0)  -->
<!DOCTYPE svg PUBLIC "-//W3C//DTD SVG 1.1//EN" "http://www.w3.org/Graphics/SVG/1.1/DTD/svg11.dtd">
<svg version="1.1" id="Capa_1" xmlns="http://www.w3.org/2000/svg" xmlns:xlink="http://www.w3.org/1999/xlink" x="0px" y="0px"
	 viewBox="0 0 481.759 481.759" style="enable-background:new 0 0 481.759 481.759;" xml:space="preserve">
<g>
	<g>
		<path style="fill:#231F20;" d="M358.597,481.759H121.831c-3.313,0-6-2.686-6-6v-56.178c0-8.694,1.735-17.063,5.162-24.92
			c-3.239-7.426-4.966-15.309-5.146-23.496c0-0.004,0-0.009,0-0.013c0-0.017-0.001-0.034-0.001-0.051c0-0.002,0-0.004,0-0.006
			c0-0.011-0.001-0.021-0.001-0.031c0-0.008,0-0.017,0-0.025c-0.001-0.05-0.002-0.1-0.003-0.15c0-0.006-0.001-0.013-0.001-0.02
			c-0.001-0.037-0.001-0.075-0.002-0.112c0,0,0,0,0-0.001c0-0.013-0.001-0.026-0.001-0.04c0-0.006,0-0.011,0-0.017
			c-0.001-0.068-0.002-0.136-0.003-0.204c0-0.007,0-0.015,0-0.022c0-0.029-0.001-0.058-0.001-0.087c0-0.028,0-0.055-0.001-0.083
			c0-0.012,0-0.025,0-0.038c0-0.006,0-0.012,0-0.018c0-0.031-0.001-0.063-0.001-0.094c0-0.02,0-0.039,0-0.06
			c0-0.119-0.001-0.238-0.001-0.357c0-0.05,0-0.1,0.002-0.149l1.999-163.974c0.04-3.288,2.719-5.927,5.998-5.927
			c0.025,0,0.049,0,0.075,0c3.313,0.041,5.967,2.759,5.926,6.073l-1.999,164.011c0,0.078,0,0.156,0,0.234c0,0.002,0,0.003,0,0.005
			c0,0.001,0,0.003,0,0.003c0,0.137,0.002,0.273,0.003,0.409c0,0.003,0,0.005,0,0.008c0.1,7.578,1.833,14.833,5.153,21.576
			c0.823,1.671,0.823,3.629,0.001,5.301c-3.423,6.953-5.159,14.446-5.159,22.272v50.178h224.767l-0.002-50.178
			c0-7.805-1.726-15.28-5.131-22.22c-0.082-0.163-0.156-0.329-0.223-0.498c-0.083-0.211-0.154-0.424-0.212-0.64
			c-0.001-0.003-0.001-0.004-0.002-0.006c-0.136-0.505-0.207-1.029-0.207-1.558c0-0.881,0.194-1.775,0.604-2.62v-0.001
			c0.001-0.003,0.003-0.006,0.004-0.009l0-0.001c0.001-0.002,0.002-0.005,0.004-0.007c0-0.001,0-0.001,0.001-0.002
			c0.001-0.003,0.003-0.006,0.004-0.009c3.423-6.954,5.159-14.447,5.159-22.272l-2-163.976c-0.041-3.313,2.613-6.032,5.926-6.073
			c3.304-0.045,6.032,2.613,6.073,5.926l2,164.035c0.001,0.029,0.001,0.058,0.001,0.087c0,8.695-1.735,17.064-5.163,24.922
			c3.427,7.859,5.161,16.228,5.161,24.921l0.002,56.178c0,1.591-0.632,3.117-1.757,4.243
			C361.715,481.126,360.189,481.759,358.597,481.759z"/>
	</g>
	<g>
		<g>
			<g>
				<g>
					<path style="fill:#231F20;" d="M119.396,449.166H64.243c-1.591,0-3.117-0.632-4.243-1.757
						c-1.125-1.126-1.757-2.651-1.757-4.243c0-8.694,1.735-17.064,5.162-24.921c-3.281-7.522-5.011-15.514-5.153-23.812
						c0-0.031-0.001-0.06-0.002-0.091c-0.001-0.071-0.002-0.142-0.003-0.213c0-0.042-0.001-0.084-0.001-0.126
						c0-0.024,0-0.048,0-0.072c-0.001-0.07-0.001-0.141-0.002-0.211c0-0.048,0-0.097,0-0.145c0-0.083,0-0.167,0-0.251V170.75
						c0-30.487,24.713-55.312,55.158-55.497l81.958-9.054c3.298-0.36,6.259,2.012,6.623,5.305c0.364,3.294-2.011,6.259-5.305,6.623
						l-82.276,9.089c-0.219,0.024-0.438,0.036-0.659,0.036c-23.985,0-43.498,19.513-43.498,43.498v222.572
						c0,0.219,0.001,0.438,0.004,0.656c0,0.03,0.001,0.059,0.001,0.089c0,0.017,0,0.034,0,0.051
						c0.001,0.056,0.002,0.112,0.003,0.168c0,0.018,0,0.036,0.001,0.054c0.002,0.103,0.004,0.206,0.007,0.308
						c0,0.002,0,0.004,0,0.006c0.187,7.345,1.914,14.383,5.142,20.939c0.153,0.311,0.277,0.631,0.373,0.958
						c0.165,0.559,0.245,1.128,0.244,1.692c0,0.145-0.005,0.29-0.016,0.434c-0.055,0.761-0.255,1.514-0.602,2.216
						c-2.538,5.155-4.148,10.608-4.811,16.272h48.806c3.313,0,6,2.686,6,6S122.709,449.166,119.396,449.166z"/>
				</g>
			</g>
			<g>
				<path style="fill:#231F20;" d="M121.831,423.831h-49.51c-3.313,0-6-2.687-6-6c0-3.314,2.687-6,6-6h49.51c3.313,0,6,2.686,6,6
					C127.831,421.144,125.144,423.831,121.831,423.831z"/>
			</g>
		</g>
		<g>
			<g>
				<g>
					<path style="fill:#231F20;" d="M417.516,449.166h-55.153c-3.314,0-6-2.686-6-6s2.686-6,6-6h48.806
						c-0.663-5.664-2.273-11.117-4.811-16.272c-0.346-0.702-0.546-1.456-0.601-2.216c-0.011-0.144-0.016-0.289-0.016-0.434
						c0-0.564,0.079-1.134,0.244-1.692c0.096-0.327,0.221-0.647,0.373-0.958c3.228-6.556,4.955-13.594,5.142-20.939
						c0-0.002,0-0.004,0-0.006c0.003-0.103,0.005-0.206,0.007-0.308c0-0.018,0-0.036,0.001-0.054
						c0.001-0.056,0.002-0.112,0.003-0.168c0-0.017,0-0.034,0-0.051c0.001-0.03,0.001-0.059,0.002-0.089
						c0.002-0.219,0.004-0.437,0.004-0.656V170.75c0-23.984-19.513-43.498-43.498-43.498c-0.22,0-0.44-0.012-0.659-0.036
						l-82.276-9.089c-3.294-0.364-5.669-3.329-5.305-6.623c0.364-3.294,3.33-5.665,6.623-5.305l81.957,9.054
						c30.445,0.185,55.158,25.009,55.158,55.497v222.572c0,0.084,0,0.168,0,0.251c0,0.049,0,0.097,0,0.145
						c0,0.07-0.001,0.141-0.002,0.211c0,0.024,0,0.048,0,0.072c0,0.042-0.001,0.084-0.001,0.126
						c-0.001,0.071-0.002,0.142-0.003,0.213c-0.001,0.031-0.001,0.06-0.001,0.091c-0.142,8.298-1.872,16.29-5.153,23.812
						c3.427,7.857,5.162,16.227,5.162,24.921c0,1.591-0.632,3.117-1.757,4.243C420.633,448.534,419.107,449.166,417.516,449.166z"/>
				</g>
			</g>
			<g>
				<path style="fill:#231F20;" d="M409.438,423.831h-50.843c-3.313,0-6-2.687-6-6c0-3.314,2.686-6,6-6h50.843c3.314,0,6,2.686,6,6
					C415.438,421.144,412.751,423.831,409.438,423.831z"/>
			</g>
		</g>
	</g>
	<g>
		<path style="fill:#231F20;" d="M240.88,137.165c-17.653,0-35.305-6.719-48.744-20.157c-2.343-2.343-2.343-6.142,0-8.485
			c2.343-2.343,6.142-2.343,8.485,0c22.199,22.197,58.319,22.196,80.518-0.001c2.344-2.343,6.143-2.342,8.485,0
			c2.343,2.343,2.343,6.143,0,8.485C276.187,130.446,258.533,137.165,240.88,137.165z"/>
	</g>
	<g>
		<path style="fill:#231F20;" d="M321.612,120.915c-1.064,0-2.141-0.283-3.116-0.877c-2.83-1.724-3.727-5.416-2.002-8.246
			l5.204-8.542H159.963l2.715,4.535c1.702,2.843,0.776,6.528-2.067,8.23c-2.843,1.701-6.527,0.776-8.23-2.067l-8.15-13.617
			c-1.109-1.854-1.137-4.161-0.071-6.04c1.065-1.879,3.059-3.041,5.22-3.041h183c2.169,0,4.169,1.17,5.231,3.062
			c1.063,1.891,1.021,4.208-0.107,6.06l-10.762,17.664C325.611,119.89,323.636,120.915,321.612,120.915z"/>
	</g>
	<g>
		<path style="fill:#231F20;" d="M332.379,103.25c-3.314,0-6-2.687-6-6c0-47.007-38.243-85.25-85.25-85.25h-0.5
			c-47.007,0-85.25,38.243-85.25,85.25c0,3.313-2.687,6-6,6c-3.314,0-6-2.687-6-6c0-53.624,43.626-97.25,97.25-97.25h0.5
			c53.624,0,97.25,43.626,97.25,97.25C338.379,100.563,335.693,103.25,332.379,103.25z"/>
	</g>
	<g>
		<g>
			<path style="fill:#231F20;" d="M334.379,419.545c-3.314,0-6-2.686-6-6v-12.828c-26.499-9.076-45.21-33.141-47.579-61.006h-79.843
				c-2.368,27.866-21.08,51.931-47.579,61.006v12.828c0,3.314-2.687,6-6,6c-3.314,0-6-2.686-6-6v-17.263
				c0-2.71,1.817-5.083,4.433-5.792c25.554-6.915,43.4-30.265,43.4-56.78c0-3.313,2.687-6,6-6h91.334c3.314,0,6,2.687,6,6
				c0,26.516,17.847,49.865,43.4,56.78c2.616,0.708,4.433,3.082,4.433,5.792v17.263
				C340.379,416.859,337.693,419.545,334.379,419.545z"/>
		</g>
		<g>
			<path style="fill:#231F20;" d="M151.711,99.406l180.668-2.156l-9.133,17.664l-32.055-2.148c0,0-33.532,18.238-49.086,17.839
				c-15.554-0.398-46.262-21.136-46.262-21.136l-38.481,6.965L151.711,99.406z"/>
		</g>
		<g>
			<path style="fill:#231F20;" d="M240.879,159.383c-3.314,0-6-2.687-6-6v-18.999c0-3.313,2.686-6,6-6c3.313,0,6,2.687,6,6v18.999
				C246.879,156.696,244.193,159.383,240.879,159.383z"/>
		</g>
	</g>
	<g>
		<g>
			<polygon style="fill:#231F20;" points="371.985,421.167 385.757,440.448 362.165,440.448 357.665,422.935 			"/>
		</g>
		<g>
			<polygon style="fill:#231F20;" points="109.774,421.167 96.001,440.448 119.594,440.448 124.093,422.935 			"/>
		</g>
	</g>
</g>
<g>
</g>
<g>
</g>
<g>
</g>
<g>
</g>
<g>
</g>
<g>
</g>
<g>
</g>
<g>
</g>
<g>
</g>
<g>
</g>
<g>
</g>
<g>
</g>
<g>
</g>
<g>
</g>
<g>
</g>
</svg>
