<?xml version="1.0" encoding="iso-8859-1"?>
<!-- Generator: Adobe Illustrator 18.0.0, SVG Export Plug-In . SVG Version: 6.00 Build 0)  -->
<!DOCTYPE svg PUBLIC "-//W3C//DTD SVG 1.1//EN" "http://www.w3.org/Graphics/SVG/1.1/DTD/svg11.dtd">
<svg version="1.1" id="Capa_1" xmlns="http://www.w3.org/2000/svg" xmlns:xlink="http://www.w3.org/1999/xlink" x="0px" y="0px"
	 viewBox="0 0 385.019 385.019" style="enable-background:new 0 0 385.019 385.019;" xml:space="preserve">
<g>
	<path style="fill:#231F20;" d="M192.508,77.467c-37.788,0-68.531,30.743-68.531,68.532c0,37.788,30.743,68.531,68.531,68.531
		s68.531-30.743,68.531-68.531C261.04,108.21,230.296,77.467,192.508,77.467z M192.508,202.53c-31.171,0-56.531-25.36-56.531-56.531
		c0-31.172,25.36-56.532,56.531-56.532s56.531,25.36,56.531,56.532C249.04,177.17,223.68,202.53,192.508,202.53z"/>
	<path style="fill:#231F20;" d="M218.899,161.4H166.12c-1.118,0-2.144,0.622-2.66,1.613c-0.517,0.992-0.439,2.188,0.201,3.105
		c6.587,9.428,17.372,15.057,28.848,15.057c11.475,0,22.26-5.629,28.85-15.057c0.641-0.917,0.718-2.113,0.202-3.105
		C221.042,162.022,220.017,161.4,218.899,161.4z"/>
	<path style="fill:#231F20;" d="M171.579,149.312c4.789,0,8.686-3.896,8.686-8.684c0-4.789-3.896-8.686-8.686-8.686
		c-4.788,0-8.684,3.896-8.684,8.686C162.895,145.416,166.79,149.312,171.579,149.312z"/>
	<path style="fill:#231F20;" d="M213.438,131.942c-4.789,0-8.685,3.896-8.685,8.686c0,4.788,3.896,8.684,8.685,8.684
		c4.789,0,8.686-3.896,8.686-8.684C222.124,135.838,218.227,131.942,213.438,131.942z"/>
	<path style="fill:#231F20;" d="M376.022,165.367c0-0.012,0.001-0.023,0.001-0.035l-1.178-97.995c0-0.012-0.002-0.024-0.002-0.036
		c-0.059-30.391-24.669-55.127-55.014-55.387c0,0-75.634-11.915-76.153-11.915H141.338c-0.359,0-76.152,11.914-76.152,11.914
		c-30.345,0.259-54.955,24.997-55.013,55.388c0,0.012-0.002,0.023-0.002,0.036l-1.176,97.995c0,0.012,0.002,0.023,0.002,0.035
		c0,0.012-0.002,0.023-0.002,0.035v10.387c0,3.313,2.687,6,6,6h52.27c0.484,0,0.952-0.064,1.402-0.171L67.46,302.18
		c-0.001,0.04-0.001,0.081-0.001,0.122c0,8.694,1.735,17.064,5.163,24.922c-3.427,7.858-5.163,16.228-5.163,24.922v26.873
		c0,3.314,2.687,6,6,6h236.768c1.591,0,3.118-0.632,4.243-1.757c1.125-1.125,1.757-2.652,1.757-4.243l-0.002-26.872
		c0-8.693-1.734-17.063-5.161-24.921c3.428-7.858,5.163-16.227,5.163-24.922c0-0.023,0-0.046,0-0.069l-1.211-121.109
		c0.822,0.423,1.751,0.666,2.739,0.666h52.27c3.314,0,6-2.687,6-6v-10.387C376.024,165.391,376.022,165.379,376.022,165.367z
		 M233.452,12c-9.765,14.759-24.023,22.765-40.945,22.765c-16.924,0-31.18-8.004-40.944-22.765H233.452z M298.677,328.854
		c0,0.001-0.001,0.001,0.001,0.003c0.048,0.169,0.103,0.336,0.166,0.501c0.074,0.194,0.157,0.384,0.25,0.569
		c3.404,6.939,5.13,14.414,5.13,22.219l0.001,20.872H79.459v-20.873c0-7.806,1.727-15.28,5.132-22.218
		c0.085-0.17,0.163-0.343,0.231-0.52c0-0.001,0.001-0.002,0.001-0.004c0.001-0.001,0.001-0.002,0.002-0.003
		c0.075-0.193,0.14-0.389,0.194-0.587c0.142-0.515,0.215-1.05,0.216-1.59c0-0.884-0.195-1.782-0.608-2.629
		c0,0-0.001-0.001-0.001-0.001c-0.002-0.002-0.003-0.005-0.004-0.007c0-0.001-0.001-0.001-0.001-0.003
		c-0.002-0.003-0.003-0.006-0.004-0.009c-3.419-6.945-5.154-14.428-5.159-22.243l1.999-199.924c0.033-3.313-2.626-6.027-5.939-6.06
		c-0.021,0-0.041,0-0.062,0c-3.285,0-5.965,2.647-5.998,5.94l-0.571,57.118h-1.586c-0.013,0-0.025-0.002-0.039-0.002H21.067
		l1.103-91.921c0-0.012-0.001-0.023-0.001-0.035c0-0.012,0.002-0.024,0.002-0.037c0-23.985,19.513-43.498,43.498-43.498
		c0.312,0,72.295-11.299,72.295-11.299c11.873,22.064,31.088,34.152,54.543,34.152c23.446,0,42.658-12.081,54.534-34.132
		c0,0,71.996,11.279,72.308,11.279c23.985,0,43.498,19.513,43.498,43.497c0,0.012,0.002,0.024,0.002,0.037
		c0,0.012-0.001,0.023-0.001,0.036l1.104,91.921h-46.197c-0.013,0-0.025,0.002-0.039,0.002h-2.918l-0.571-57.118
		c-0.033-3.313-2.734-5.997-6.06-5.939c-3.313,0.033-5.973,2.746-5.939,6.06l1.999,199.895c0,7.825-1.735,15.318-5.159,22.272
		c-0.001,0.003-0.003,0.006-0.004,0.009c0,0.001-0.001,0.001-0.001,0.003c-0.001,0.002-0.002,0.005-0.004,0.007
		c0,0.001,0,0.001,0,0.001c-0.001,0.003-0.003,0.006-0.004,0.009c0,0,0,0,0,0.001c-0.411,0.845-0.604,1.739-0.604,2.62
		C298.451,327.778,298.528,328.327,298.677,328.854z"/>
</g>
<g>
</g>
<g>
</g>
<g>
</g>
<g>
</g>
<g>
</g>
<g>
</g>
<g>
</g>
<g>
</g>
<g>
</g>
<g>
</g>
<g>
</g>
<g>
</g>
<g>
</g>
<g>
</g>
<g>
</g>
</svg>
