<?xml version="1.0" encoding="iso-8859-1"?>
<!-- Generator: Adobe Illustrator 18.0.0, SVG Export Plug-In . SVG Version: 6.00 Build 0)  -->
<!DOCTYPE svg PUBLIC "-//W3C//DTD SVG 1.1//EN" "http://www.w3.org/Graphics/SVG/1.1/DTD/svg11.dtd">
<svg version="1.1" id="Capa_1" xmlns="http://www.w3.org/2000/svg" xmlns:xlink="http://www.w3.org/1999/xlink" x="0px" y="0px"
	 viewBox="0 0 429.467 429.467" style="enable-background:new 0 0 429.467 429.467;" xml:space="preserve">
<g>
	<g>
		<g>
			<path style="fill:#231F20;" d="M332.451,429.467H95.685c-3.314,0-6-2.687-6-6v-26.871c0-8.694,1.735-17.063,5.162-24.92
				c-3.292-7.549-5.023-15.573-5.154-23.903c0-0.001,0-0.001,0-0.001c0-0.013-0.001-0.027-0.001-0.04c0-0.006,0-0.011,0-0.017
				c0-0.007,0-0.014,0-0.021c0-0.012-0.001-0.023-0.001-0.035c0-0.031-0.001-0.062-0.001-0.092
				c-0.001-0.045-0.001-0.089-0.002-0.134c0-0.002,0-0.004,0-0.007c0-0.073-0.001-0.147-0.002-0.22c0-0.001,0-0.002,0-0.003
				c-0.001-0.065-0.001-0.128-0.001-0.193c0-0.086,0-0.172,0-0.258c0-0.041,0-0.082,0.001-0.122l1.999-199.893
				c0.033-3.293,2.713-5.94,5.998-5.94c0.021,0,0.041,0,0.062,0.001c3.313,0.033,5.973,2.746,5.939,6.059l-2,199.924
				c0,0.079,0.001,0.159,0.001,0.238c0.039,7.731,1.774,15.133,5.158,22.004c0.823,1.671,0.823,3.63,0,5.301
				c-3.423,6.952-5.158,14.445-5.158,22.272v20.871h224.766l-0.001-20.871c0-7.805-1.726-15.279-5.129-22.217
				c-0.097-0.193-0.184-0.391-0.259-0.592c-0.06-0.16-0.114-0.322-0.16-0.486c-0.149-0.53-0.227-1.081-0.226-1.637
				c0.001-0.878,0.195-1.769,0.604-2.61c0-0.001,0-0.001,0-0.001c0.001-0.003,0.003-0.005,0.004-0.008c0,0,0-0.001,0.001-0.002
				c0.001-0.002,0.002-0.004,0.003-0.007c0-0.001,0.001-0.002,0.001-0.002c0.001-0.003,0.003-0.006,0.004-0.009
				c3.423-6.955,5.159-14.448,5.159-22.272l-2-199.895c-0.033-3.313,2.626-6.026,5.939-6.059c3.301-0.03,6.027,2.626,6.06,5.939
				l2,199.946c0.001,0.023,0.001,0.046,0.001,0.069c0,8.694-1.735,17.063-5.163,24.922c3.427,7.858,5.161,16.228,5.161,24.921
				l0.002,26.871c0,1.591-0.632,3.118-1.757,4.243C335.569,428.835,334.042,429.467,332.451,429.467z"/>
		</g>
		<g>
			<g>
				<path style="fill:#231F20;" d="M390.561,396.875h-55.153c-3.314,0-6-2.687-6-6c0-3.314,2.686-6,6-6h48.806
					c-0.663-5.665-2.274-11.117-4.811-16.272c-0.351-0.712-0.552-1.476-0.603-2.248c-0.009-0.134-0.014-0.268-0.014-0.402
					c0-0.559,0.078-1.122,0.239-1.676c0.097-0.333,0.223-0.659,0.378-0.975c2.948-5.987,4.644-12.375,5.058-19.032
					c0-0.001,0-0.002,0-0.003c0.009-0.146,0.018-0.292,0.025-0.438c0.001-0.018,0.002-0.037,0.003-0.054
					c0.002-0.038,0.004-0.075,0.006-0.112c0.001-0.026,0.002-0.051,0.004-0.077c0.001-0.027,0.003-0.054,0.004-0.081
					c0-0.003,0-0.006,0-0.009c0.001-0.021,0.002-0.043,0.003-0.063c0.004-0.085,0.007-0.17,0.011-0.255c0-0.001,0-0.002,0.001-0.003
					c0.002-0.06,0.004-0.119,0.007-0.179c0-0.002,0-0.005,0-0.007c0.001-0.02,0.001-0.039,0.002-0.059
					c0.001-0.013,0.001-0.027,0.001-0.04c0.006-0.177,0.012-0.354,0.016-0.531c0,0,0,0,0-0.001c0.001-0.03,0.002-0.061,0.002-0.09
					c0-0.001,0-0.002,0.001-0.004c0-0.029,0.001-0.059,0.002-0.087c0,0,0,0,0,0c0.008-0.38,0.012-0.762,0.012-1.144V111.859
					c0-23.985-19.513-43.498-43.498-43.498c-0.25,0-0.501-0.016-0.749-0.047l-73.213-9.217c-3-0.378-5.251-2.929-5.251-5.953V12
					H166.68v41.271c0,3.024-2.251,5.576-5.252,5.953l-72.276,9.09c-0.248,0.031-0.498,0.047-0.749,0.047
					c-23.985,0-43.498,19.513-43.498,43.498v229.172c0,0.382,0.004,0.763,0.012,1.143c0,0,0,0.001,0,0.001
					c0.001,0.029,0.001,0.059,0.002,0.087c0,0.001,0,0.002,0,0.004c0.001,0.03,0.002,0.06,0.002,0.09c0,0,0,0,0,0
					c0.004,0.178,0.01,0.355,0.016,0.532c0,0.013,0.001,0.027,0.001,0.04c0.001,0.02,0.001,0.039,0.002,0.059
					c0,0.002,0,0.005,0,0.007c0.002,0.06,0.004,0.119,0.007,0.179c0,0.001,0,0.003,0,0.003c0.003,0.085,0.007,0.17,0.011,0.255
					c0.001,0.02,0.002,0.042,0.003,0.063c0.001,0.003,0.001,0.006,0.001,0.009c0.001,0.027,0.003,0.054,0.004,0.081
					c0.002,0.025,0.003,0.051,0.004,0.077c0.002,0.037,0.004,0.074,0.006,0.112c0.001,0.018,0.002,0.036,0.003,0.054
					c0.008,0.146,0.016,0.292,0.025,0.438c0,0.001,0,0.002,0,0.003c0.414,6.657,2.11,13.045,5.058,19.032
					c0.156,0.316,0.282,0.642,0.378,0.975c0.162,0.553,0.24,1.117,0.239,1.676c0,0.135-0.005,0.269-0.014,0.402
					c-0.052,0.772-0.253,1.536-0.604,2.248c-2.538,5.155-4.148,10.607-4.811,16.272h48.806c3.313,0,6,2.686,6,6c0,3.313-2.687,6-6,6
					H38.905c-3.314,0-6-2.687-6-6c0-8.694,1.735-17.064,5.162-24.921c-3.247-7.446-4.976-15.351-5.148-23.557
					c0-0.003,0-0.005,0-0.008c-0.001-0.012-0.001-0.025-0.001-0.038c0-0.006,0-0.012,0-0.018c-0.001-0.031-0.001-0.064-0.002-0.095
					c0-0.013,0-0.027-0.001-0.04c0-0.029-0.001-0.058-0.001-0.087c0-0.001,0-0.003,0-0.004c-0.001-0.056-0.001-0.111-0.002-0.167
					c0-0.001,0-0.002,0-0.003c0-0.028-0.001-0.056-0.001-0.084c-0.001-0.085-0.002-0.17-0.003-0.255c0-0.031,0-0.062,0-0.092
					c0-0.026,0-0.052-0.001-0.078c0-0.027,0-0.053,0-0.08c0-0.106-0.001-0.211-0.001-0.317V111.859
					c0-30.473,24.687-55.288,55.112-55.497l66.663-8.384V6c0-3.314,2.686-6,6-6h107.171c3.314,0,6,2.686,6,6v41.853l67.6,8.51
					c30.425,0.208,55.111,25.024,55.111,55.497v229.172c0,0.106,0,0.211-0.001,0.317c0,0.026,0,0.053,0,0.08
					c0,0.026,0,0.052-0.001,0.078c0,0.031,0,0.061-0.001,0.092c-0.001,0.085-0.001,0.17-0.003,0.255c0,0.028,0,0.056-0.001,0.084
					c0,0.001,0,0.002,0,0.003c-0.001,0.055-0.001,0.111-0.002,0.167c0,0.001,0,0.002,0,0.004c-0.001,0.029-0.001,0.058-0.001,0.087
					c-0.001,0.014-0.001,0.027-0.001,0.04c0,0.031-0.001,0.063-0.002,0.095c0,0.006,0,0.012,0,0.018c0,0.013,0,0.026-0.001,0.038
					c0,0.002,0,0.005,0,0.008c-0.172,8.206-1.901,16.11-5.148,23.557c3.427,7.857,5.162,16.227,5.162,24.921
					C396.561,394.188,393.875,396.875,390.561,396.875z"/>
			</g>
		</g>
		<g>
			<path style="fill:#231F20;" d="M382.483,371.539h-50.5c-3.314,0-6-2.686-6-6s2.686-6,6-6h50.5c3.313,0,6,2.686,6,6
				S385.797,371.539,382.483,371.539z"/>
		</g>
		<g>
			<path style="fill:#231F20;" d="M95.483,371.539h-48.5c-3.314,0-6-2.686-6-6s2.686-6,6-6h48.5c3.313,0,6,2.686,6,6
				S98.797,371.539,95.483,371.539z"/>
		</g>
		<g>
			<g>
				<path style="fill:#231F20;" d="M183.145,58.123c-3.313,0-6-2.687-6-6V6c0-3.314,2.687-6,6-6c3.314,0,6,2.686,6,6v46.123
					C189.145,55.436,186.459,58.123,183.145,58.123z"/>
			</g>
			<g>
				<path style="fill:#231F20;" d="M204.204,58.123c-3.314,0-6-2.687-6-6V6c0-3.314,2.686-6,6-6c3.313,0,6,2.686,6,6v46.123
					C210.204,55.436,207.518,58.123,204.204,58.123z"/>
			</g>
			<g>
				<path style="fill:#231F20;" d="M225.263,58.123c-3.314,0-6-2.687-6-6V6c0-3.314,2.686-6,6-6c3.313,0,6,2.686,6,6v46.123
					C231.263,55.436,228.576,58.123,225.263,58.123z"/>
			</g>
			<g>
				<path style="fill:#231F20;" d="M246.321,58.123c-3.313,0-6-2.687-6-6V6c0-3.314,2.687-6,6-6c3.314,0,6,2.686,6,6v46.123
					C252.321,55.436,249.635,58.123,246.321,58.123z"/>
			</g>
		</g>
	</g>
	<g>
		<g>
			<g>
				<path style="fill:#231F20;" d="M336.496,219.117c-2.321,0-4.53-1.355-5.51-3.62c-1.315-3.042,0.085-6.573,3.126-7.889
					l14.49-6.266c3.04-1.315,6.573,0.084,7.889,3.126c1.315,3.042-0.084,6.573-3.126,7.889l-14.49,6.266
					C338.099,218.958,337.291,219.117,336.496,219.117z"/>
			</g>
			<g>
				<path style="fill:#231F20;" d="M351.104,228.619c-0.736,0-1.484-0.136-2.21-0.424l-14.695-5.826
					c-3.081-1.221-4.587-4.708-3.366-7.789c1.221-3.08,4.708-4.587,7.789-3.366l14.695,5.826c3.081,1.221,4.587,4.708,3.366,7.789
					C355.75,227.183,353.493,228.619,351.104,228.619z"/>
			</g>
		</g>
		<g>
			<g>
				<path style="fill:#231F20;" d="M78.486,228.619c-2.321,0-4.53-1.355-5.51-3.62c-1.315-3.041,0.084-6.573,3.126-7.889
					l14.49-6.266c3.04-1.315,6.573,0.084,7.889,3.126c1.315,3.041-0.084,6.573-3.126,7.889l-14.49,6.266
					C80.089,228.46,79.281,228.619,78.486,228.619z"/>
			</g>
			<g>
				<path style="fill:#231F20;" d="M93.054,218.679c-0.736,0-1.484-0.136-2.21-0.424l-14.695-5.828
					c-3.081-1.221-4.587-4.709-3.365-7.789c1.222-3.08,4.707-4.587,7.789-3.365l14.695,5.828c3.081,1.221,4.587,4.709,3.365,7.789
					C97.699,217.244,95.441,218.679,93.054,218.679z"/>
			</g>
		</g>
	</g>
</g>
<g>
</g>
<g>
</g>
<g>
</g>
<g>
</g>
<g>
</g>
<g>
</g>
<g>
</g>
<g>
</g>
<g>
</g>
<g>
</g>
<g>
</g>
<g>
</g>
<g>
</g>
<g>
</g>
<g>
</g>
</svg>
