<?xml version="1.0" encoding="iso-8859-1"?>
<!-- Generator: Adobe Illustrator 18.0.0, SVG Export Plug-In . SVG Version: 6.00 Build 0)  -->
<!DOCTYPE svg PUBLIC "-//W3C//DTD SVG 1.1//EN" "http://www.w3.org/Graphics/SVG/1.1/DTD/svg11.dtd">
<svg version="1.1" id="Capa_1" xmlns="http://www.w3.org/2000/svg" xmlns:xlink="http://www.w3.org/1999/xlink" x="0px" y="0px"
	 viewBox="0 0 387.033 387.033" style="enable-background:new 0 0 387.033 387.033;" xml:space="preserve">
<g>
	<path style="fill:#231F20;" d="M387.033,256.633V77.951c0-14.659-11.927-26.586-26.587-26.586c-5.384,0-10.396,1.613-14.587,4.375
		V37.832c0-14.659-11.926-26.586-26.584-26.586c-8.292,0-15.707,3.817-20.587,9.785c-4.88-5.968-12.294-9.785-20.586-9.785
		c-10.696,0-19.931,6.352-24.146,15.478c-4.616-3.859-10.554-6.188-17.026-6.188c-14.659,0-26.586,11.927-26.586,26.586v63v6.318v52
		v93.58v28.213c0,0.207,0.011,0.412,0.031,0.614c0.176,4.552,2.269,8.613,5.505,11.396l-15.869,36.884
		c-0.091,0.211-0.165,0.424-0.23,0.638c-0.721,1.865-1.186,3.816-1.266,5.824c-0.035,0.265,0,0.533,0,0.808
		c0,10.633,8.497,19.299,19.054,19.615c0.204,0.021,0.41,0.031,0.619,0.031c1.637,0,3.018,0.227,4.225,0.693
		c1.59,0.615,2.877,1.624,4.507,2.9c3.311,2.595,7.847,6.148,16.134,6.148c8.286,0,12.821-3.554,16.132-6.148
		c2.86-2.241,4.587-3.594,8.733-3.594c4.144,0,5.87,1.353,8.729,3.594c3.31,2.595,7.846,6.148,16.132,6.148
		c8.285,0,12.818-3.554,16.129-6.148c2.859-2.241,4.585-3.594,8.73-3.594c4.144,0,5.869,1.353,8.728,3.594
		c3.311,2.595,7.846,6.148,16.133,6.148c8.285,0,12.819-3.554,16.13-6.148c2.859-2.241,4.585-3.594,8.73-3.594
		c0.211,0,0.419-0.012,0.624-0.033c10.55-0.323,19.037-8.985,19.037-19.613c0-0.268-0.023-0.529-0.058-0.788
		c-0.078-2.006-0.479-3.958-1.2-5.827c-0.065-0.22-0.142-0.44-0.234-0.655l-15.86-36.857c3.399-2.909,5.564-7.222,5.564-12.036
		c0-3.036-0.873-5.865-2.359-8.277C381.363,276.711,387.033,267.323,387.033,256.633z M319.275,23.246
		c8.042,0,14.584,6.543,14.584,14.586v40.119v85.215h-29.171V37.832C304.688,29.789,311.232,23.246,319.275,23.246z M263.516,37.832
		c0-8.043,6.544-14.586,14.587-14.586s14.586,6.543,14.586,14.586v125.334h-24.652c-0.74-4.023-2.304-7.762-4.521-11.025V47.123
		V37.832z M222.345,47.123c0-8.043,6.543-14.586,14.586-14.586c8.042,0,14.585,6.543,14.585,14.586v94.866
		c-3.683-1.688-7.771-2.638-12.081-2.638c-6.383,0-12.288,2.071-17.09,5.57v-28.481v-6.318V47.123z M351.228,360.194
		c-2.859,2.24-4.585,3.593-8.728,3.593c-4.145,0-5.871-1.353-8.73-3.594c-3.311-2.595-7.846-6.148-16.131-6.148
		c-8.287,0-12.821,3.554-16.132,6.149c-2.859,2.24-4.584,3.593-8.727,3.593c-4.145,0-5.87-1.353-8.73-3.594
		c-3.31-2.595-7.846-6.148-16.132-6.148c-8.288,0-12.823,3.554-16.135,6.148c-2.859,2.241-4.586,3.594-8.73,3.594
		c-4.145,0-5.873-1.353-8.733-3.594c-2.026-1.588-4.322-3.388-7.578-4.646c-2.598-1.006-5.383-1.495-8.508-1.5
		c-0.025,0-0.05-0.004-0.075-0.004c-4.147,0-7.526-3.323-7.634-7.446c0.004-0.089,0.014-0.175,0.014-0.265
		c0-0.858,0.169-1.685,0.503-2.46c0.018-0.041,0.029-0.083,0.046-0.125l16.205-37.661h11.074l-4.36,21.796
		c-0.649,3.249,1.457,6.41,4.707,7.061c0.397,0.079,0.793,0.117,1.184,0.117c2.801,0,5.306-1.972,5.877-4.824l2.521-12.598
		l2.518,12.598c0.57,2.853,3.075,4.824,5.877,4.824c0.391,0,0.786-0.038,1.184-0.117c3.249-0.65,5.356-3.811,4.707-7.061
		l-4.358-21.796h24.618l-4.358,21.796c-0.649,3.25,1.458,6.41,4.707,7.061c0.398,0.079,0.793,0.117,1.184,0.117
		c2.801,0,5.307-1.973,5.877-4.824l2.521-12.603l2.518,12.603c0.57,2.853,3.075,4.825,5.877,4.825c0.391,0,0.786-0.038,1.183-0.117
		c3.25-0.65,5.357-3.811,4.708-7.06l-4.356-21.797h24.615l-4.357,21.797c-0.649,3.249,1.458,6.41,4.708,7.06
		c0.396,0.079,0.792,0.117,1.183,0.117c2.801,0,5.307-1.973,5.877-4.825l2.519-12.6l2.519,12.6c0.57,2.853,3.075,4.825,5.877,4.825
		c0.391,0,0.786-0.038,1.183-0.117c3.25-0.65,5.357-3.811,4.708-7.06l-4.357-21.797h11.072l16.205,37.658
		c0.016,0.041,0.027,0.082,0.045,0.122c0.334,0.778,0.504,1.608,0.504,2.466c0,0.083,0.009,0.163,0.013,0.245
		c-0.097,4.132-3.48,7.466-7.634,7.466c-0.021,0-0.041,0.003-0.062,0.003C359.059,354.059,354.532,357.603,351.228,360.194z
		 M375.033,256.633c0,9.787-7.963,17.75-17.75,17.75H222.345v-12.361v-93.58c0-9.424,7.666-17.09,17.09-17.09
		c9.424,0,17.09,7.666,17.09,17.09v71.619c0,3.313,2.686,6,6,6c3.313,0,6-2.687,6-6v-64.895h87.386c3.314,0,6-2.686,6-6
		s-2.686-6-6-6h-10.051V77.951c0-8.043,6.544-14.586,14.587-14.586c8.043,0,14.587,6.543,14.587,14.586V256.633z"/>
	<path style="fill:#231F20;" d="M14.159,281.957c-1.486,2.412-2.359,5.241-2.359,8.277c0,4.814,2.165,9.127,5.564,12.036
		l-15.86,36.857c-0.093,0.216-0.169,0.436-0.234,0.655c-0.721,1.869-1.122,3.821-1.2,5.827c-0.034,0.259-0.058,0.521-0.058,0.788
		c0,10.628,8.487,19.29,19.037,19.613c0.205,0.022,0.413,0.033,0.624,0.033c4.146,0,5.871,1.353,8.73,3.594
		c3.311,2.595,7.845,6.148,16.13,6.148c8.287,0,12.822-3.554,16.133-6.148c2.859-2.241,4.585-3.594,8.729-3.594
		c4.145,0,5.87,1.353,8.729,3.594c3.311,2.595,7.844,6.148,16.129,6.148c8.286,0,12.821-3.554,16.132-6.148
		c2.859-2.241,4.585-3.594,8.729-3.594c4.146,0,5.873,1.353,8.733,3.594c3.311,2.595,7.846,6.148,16.132,6.148
		c8.287,0,12.822-3.554,16.134-6.148c1.63-1.276,2.917-2.285,4.507-2.9c1.207-0.467,2.588-0.693,4.225-0.693
		c0.209,0,0.415-0.011,0.619-0.031c10.557-0.316,19.054-8.982,19.054-19.615c0-0.274,0.035-0.543,0-0.808
		c-0.08-2.008-0.545-3.959-1.266-5.824c-0.065-0.214-0.14-0.427-0.231-0.638l-15.869-36.884c3.236-2.783,5.329-6.845,5.505-11.396
		c0.021-0.202,0.031-0.407,0.031-0.614v-28.213v-93.58v-52v-6.318v-63c0-14.659-11.927-26.586-26.586-26.586
		c-6.473,0-12.41,2.328-17.026,6.188c-4.215-9.127-13.449-15.478-24.145-15.478c-8.292,0-15.706,3.817-20.586,9.785
		c-4.88-5.968-12.295-9.785-20.587-9.785c-14.658,0-26.584,11.927-26.584,26.586V55.74c-4.191-2.762-9.203-4.375-14.587-4.375
		C11.927,51.365,0,63.292,0,77.951v178.682C0,267.323,5.67,276.711,14.159,281.957z M82.345,37.832v125.334H53.174V77.951V37.832
		c0-8.043,6.542-14.586,14.584-14.586C75.801,23.246,82.345,29.789,82.345,37.832z M123.518,47.123v105.018
		c-2.217,3.264-3.78,7.002-4.521,11.025H94.345V37.832c0-8.043,6.543-14.586,14.586-14.586c8.043,0,14.587,6.543,14.587,14.586
		V47.123z M164.688,110.123v6.318v28.481c-4.802-3.499-10.707-5.57-17.09-5.57c-4.31,0-8.398,0.949-12.081,2.638V47.123
		c0-8.043,6.543-14.586,14.585-14.586c8.043,0,14.586,6.543,14.586,14.586V110.123z M19.716,354.046
		c-0.021,0-0.041-0.003-0.061-0.003c-4.153,0-7.537-3.334-7.634-7.466c0.004-0.082,0.013-0.162,0.013-0.245
		c0-0.857,0.17-1.688,0.504-2.466c0.017-0.04,0.029-0.081,0.045-0.122l16.205-37.658h11.072l-4.357,21.797
		c-0.649,3.249,1.458,6.41,4.708,7.06c0.396,0.079,0.792,0.117,1.183,0.117c2.802,0,5.307-1.973,5.877-4.825l2.518-12.6l2.519,12.6
		c0.57,2.853,3.076,4.825,5.877,4.825c0.391,0,0.786-0.038,1.183-0.117c3.25-0.65,5.357-3.811,4.708-7.06l-4.357-21.797h24.615
		l-4.356,21.797c-0.649,3.249,1.458,6.41,4.708,7.06c0.396,0.079,0.792,0.117,1.183,0.117c2.802,0,5.307-1.973,5.877-4.825
		l2.519-12.603l2.521,12.603c0.57,2.852,3.076,4.824,5.877,4.824c0.391,0,0.786-0.038,1.184-0.117
		c3.249-0.65,5.357-3.811,4.707-7.061l-4.358-21.796h24.618l-4.358,21.796c-0.649,3.25,1.458,6.41,4.707,7.061
		c0.397,0.079,0.793,0.117,1.184,0.117c2.802,0,5.307-1.972,5.877-4.824l2.519-12.598l2.52,12.598
		c0.571,2.853,3.076,4.824,5.877,4.824c0.391,0,0.786-0.038,1.184-0.117c3.25-0.65,5.356-3.812,4.707-7.061l-4.36-21.796h11.074
		l16.205,37.661c0.017,0.042,0.028,0.084,0.046,0.125c0.334,0.775,0.503,1.602,0.503,2.46c0,0.09,0.01,0.176,0.014,0.265
		c-0.107,4.123-3.486,7.446-7.634,7.446c-0.025,0-0.05,0.004-0.075,0.004c-3.125,0.005-5.91,0.494-8.508,1.5
		c-3.256,1.259-5.552,3.059-7.578,4.646c-2.86,2.241-4.588,3.594-8.733,3.594c-4.145,0-5.871-1.353-8.73-3.594
		c-3.311-2.595-7.847-6.148-16.135-6.148c-8.286,0-12.821,3.554-16.132,6.148c-2.859,2.241-4.585,3.594-8.729,3.594
		c-4.143,0-5.867-1.353-8.727-3.593c-3.311-2.596-7.845-6.149-16.132-6.149c-8.285,0-12.82,3.554-16.131,6.148
		c-2.859,2.241-4.586,3.594-8.73,3.594c-4.143,0-5.868-1.353-8.728-3.593C32.501,357.603,27.975,354.059,19.716,354.046z M12,77.951
		c0-8.043,6.544-14.586,14.587-14.586c8.043,0,14.587,6.543,14.587,14.586v85.215H31.123c-3.313,0-6,2.686-6,6s2.687,6,6,6h87.386
		v64.895c0,3.313,2.687,6,6,6c3.313,0,6-2.687,6-6v-71.619c0-9.424,7.666-17.09,17.09-17.09s17.09,7.666,17.09,17.09v93.58v12.361
		H29.75c-9.787,0-17.75-7.963-17.75-17.75V77.951z"/>
</g>
<g>
</g>
<g>
</g>
<g>
</g>
<g>
</g>
<g>
</g>
<g>
</g>
<g>
</g>
<g>
</g>
<g>
</g>
<g>
</g>
<g>
</g>
<g>
</g>
<g>
</g>
<g>
</g>
<g>
</g>
</svg>
