<?xml version="1.0" encoding="iso-8859-1"?>
<!-- Generator: Adobe Illustrator 18.0.0, SVG Export Plug-In . SVG Version: 6.00 Build 0)  -->
<!DOCTYPE svg PUBLIC "-//W3C//DTD SVG 1.1//EN" "http://www.w3.org/Graphics/SVG/1.1/DTD/svg11.dtd">
<svg version="1.1" id="Capa_1" xmlns="http://www.w3.org/2000/svg" xmlns:xlink="http://www.w3.org/1999/xlink" x="0px" y="0px"
	 viewBox="0 0 354.829 354.829" style="enable-background:new 0 0 354.829 354.829;" xml:space="preserve">
<path style="fill:#231F20;" d="M353.9,307.683c-2.112-7.748-7.572-13.968-16.23-18.484c-6.733-3.513-15.172-7.956-23.451-12.329
	c0.275-3.645-0.847-7.19-3.19-10.006l-10.713-12.883c-2.67-3.214-6.6-5.058-10.781-5.058c-3.264,0-6.444,1.15-8.956,3.238
	c-2.238,1.86-3.798,4.315-4.547,7.065c-2.33,0.525-8.591,1.748-16.417,1.748c-10.732,0-25.871-2.346-37.045-13.52
	c-9.189-9.189-12.759-18.433-17.277-30.136c-6.138-15.898-13.777-35.683-38.398-63.192C131.601,114.689,49.977,22.647,49.157,21.723
	c-2.038-2.3-5.482-2.687-7.979-0.9C39.496,22.024,0,50.893,0,105.398c0,15.51,4.55,30.499,10.31,49.476
	c10.621,34.991,25.166,82.912,25.166,174.253c0,3.314,2.687,6,6,6h22.222c3.296,0,5.975-2.658,6-5.954l1.134-146.837
	c11.608,2.771,36.306,11.441,53.724,37.021c8.241,12.105,12.896,29.43,17.397,46.185c8.763,32.617,18.695,69.585,58.71,69.585
	h144.162c2.07,0,3.994-1.067,5.091-2.824C350.221,331.816,357.319,320.23,353.9,307.683z M287.532,262.753
	c0.028-0.311,0.16-0.9,0.718-1.363c0.463-0.386,0.954-0.467,1.285-0.467c0.354,0,1.026,0.095,1.553,0.728l10.715,12.886
	c0.464,0.558,0.485,1.161,0.457,1.472c-0.028,0.311-0.16,0.9-0.719,1.364c-0.463,0.386-0.954,0.467-1.285,0.467
	c-0.354,0-1.027-0.095-1.552-0.726l-10.715-12.888C287.525,263.667,287.504,263.063,287.532,262.753z M134.475,212.603
	c-26.663-39.159-67.327-43.276-69.044-43.433c-0.182-0.017-0.363-0.024-0.543-0.024c-1.483,0-2.921,0.55-4.029,1.554
	c-1.243,1.127-1.958,2.723-1.971,4.4l-1.02,132.161H47.191c-2.105-79.121-15.441-123.069-25.398-155.873
	C16.321,133.364,12,119.127,12,105.398c0-38.234,22.559-62.748,32.041-71.36c16.682,18.807,83.023,93.576,113.913,128.09
	c23.158,25.876,30.058,43.746,36.146,59.513c4.83,12.51,9.002,23.314,19.986,34.299c14.079,14.08,32.53,17.035,45.53,17.035
	c8.12,0,14.764-1.129,18.147-1.841c0.219,0.116,0.458,0.243,0.709,0.377c0.1,0.128,0.188,0.263,0.292,0.388l10.714,12.888
	c2.672,3.211,6.601,5.053,10.779,5.053c2.874,0,5.683-0.894,8.028-2.533c8.401,4.438,16.995,8.962,23.835,12.531
	c3.986,2.08,6.858,4.571,8.62,7.425H170.313c-7.744-11.256-12.088-27.405-16.771-44.833
	C148.782,244.71,143.859,226.388,134.475,212.603z"/>
<g>
</g>
<g>
</g>
<g>
</g>
<g>
</g>
<g>
</g>
<g>
</g>
<g>
</g>
<g>
</g>
<g>
</g>
<g>
</g>
<g>
</g>
<g>
</g>
<g>
</g>
<g>
</g>
<g>
</g>
</svg>
