<?xml version="1.0" encoding="iso-8859-1"?>
<!-- Generator: Adobe Illustrator 18.0.0, SVG Export Plug-In . SVG Version: 6.00 Build 0)  -->
<!DOCTYPE svg PUBLIC "-//W3C//DTD SVG 1.1//EN" "http://www.w3.org/Graphics/SVG/1.1/DTD/svg11.dtd">
<svg version="1.1" id="Capa_1" xmlns="http://www.w3.org/2000/svg" xmlns:xlink="http://www.w3.org/1999/xlink" x="0px" y="0px"
	 viewBox="0 0 482.374 482.374" style="enable-background:new 0 0 482.374 482.374;" xml:space="preserve">
<g>
	<path style="fill:#231F20;" d="M343.543,33.742c-0.059-0.451-0.172-0.881-0.323-1.291c0.227-0.631,0.355-1.308,0.355-2.017V6
		c0-3.313-2.687-6-6-6H144.799c-3.313,0-6,2.687-6,6v24.435c0,0.708,0.129,1.385,0.355,2.016c-0.151,0.41-0.263,0.84-0.323,1.292
		c-11.463,86.95-11.48,151.928-0.044,223.976c-9.182,58.475-1.22,107.51,7.999,164.234c2.868,17.649,5.834,35.898,8.379,55.206
		c0.394,2.985,2.938,5.216,5.949,5.216h47.792c3.011,0,5.555-2.231,5.949-5.216c2.545-19.307,5.511-37.557,8.379-55.206
		c9.212-56.681,17.167-105.684,8.02-164.099c6.99-47.832,9.296-81.745,8.485-124.698h2.899
		c-0.812,42.956,1.494,76.868,8.484,124.694c-9.147,58.416-1.192,107.419,8.02,164.1c2.869,17.65,5.835,35.9,8.381,55.208
		c0.393,2.985,2.937,5.216,5.948,5.216h47.792c3.011,0,5.555-2.231,5.948-5.216c2.546-19.306,5.512-37.555,8.379-55.203
		c9.219-56.724,17.18-105.759,8-164.232C355.024,185.674,355.007,120.696,343.543,33.742z M207.614,24.435V12h67.145v12.435H207.614
		z M174.042,24.435V12h21.572v12.435H174.042z M286.759,12h21.572v12.435h-21.572V12z M320.331,12h11.244v12.435h-11.244V12z
		 M150.799,12h11.244v12.435h-11.244V12z M166.361,470.374c-0.585-4.277-1.189-8.499-1.805-12.674h40.906
		c-0.616,4.175-1.219,8.397-1.805,12.674H166.361z M278.717,470.374c-0.585-4.277-1.19-8.499-1.805-12.674h40.905
		c-0.615,4.175-1.219,8.397-1.805,12.674H278.717z M323.744,420.031c-1.365,8.4-2.752,16.94-4.106,25.669h-44.546
		c-1.355-8.73-2.742-17.273-4.107-25.675c-9.104-56.01-16.965-104.383-7.849-161.373c0.139-0.87,0.079-1.724-0.139-2.522
		c-6.901-47.209-9.17-80.625-8.359-122.974h7.233c3.313,0,6-2.687,6-6c0-3.313-2.687-6-6-6h-41.371
		c-2.688,0-5.048,1.788-5.776,4.375c-0.728,2.587,0.354,5.343,2.647,6.745l10.45,6.385c0.514,39.785-1.847,72.32-8.444,117.463
		c-0.219,0.8-0.281,1.656-0.141,2.529c9.116,56.991,1.255,105.364-7.849,161.375c-1.365,8.401-2.752,16.942-4.107,25.672h-44.544
		c-1.355-8.729-2.742-17.271-4.107-25.672c-9.104-56.012-16.965-104.385-7.849-161.375c0.001-0.011,0.002-0.022,0.003-0.032
		c0.02-0.129,0.031-0.26,0.042-0.392c0.006-0.073,0.017-0.146,0.02-0.219c0.004-0.089,0.002-0.18,0.002-0.27
		c0.001-0.117,0.003-0.234-0.002-0.35c-0.003-0.048-0.01-0.096-0.014-0.144c-0.012-0.157-0.026-0.313-0.05-0.467
		c-0.002-0.007-0.002-0.014-0.002-0.021c-11.338-70.882-11.399-134.796-0.197-220.322h72.127v30.78c0,3.313,2.687,6,6,6
		c3.313,0,6-2.687,6-6v-30.78h12.953v60.563h-15.162c-3.313,0-6,2.687-6,6c0,3.313,2.687,6,6,6h21.162c3.313,0,6-2.687,6-6V36.435
		h72.128c11.202,85.527,11.141,149.441-0.197,220.322c0,0.001,0,0.003-0.001,0.004c-0.03,0.191-0.051,0.385-0.063,0.581
		c-0.001,0.01-0.002,0.02-0.003,0.031c-0.009,0.154-0.007,0.311-0.003,0.468c0.001,0.05-0.002,0.102,0.001,0.151
		c0.005,0.11,0.02,0.222,0.03,0.333c0.01,0.093,0.017,0.186,0.031,0.278c0.002,0.017,0.002,0.033,0.005,0.049
		C340.708,315.644,332.847,364.018,323.744,420.031z"/>
	<ellipse style="fill:#231F20;" cx="299.373" cy="256.799" rx="23.482" ry="32.648"/>
	<ellipse style="fill:#231F20;" cx="182.998" cy="256.799" rx="23.482" ry="32.648"/>
</g>
<g>
</g>
<g>
</g>
<g>
</g>
<g>
</g>
<g>
</g>
<g>
</g>
<g>
</g>
<g>
</g>
<g>
</g>
<g>
</g>
<g>
</g>
<g>
</g>
<g>
</g>
<g>
</g>
<g>
</g>
</svg>
