<?xml version="1.0" encoding="iso-8859-1"?>
<!-- Generator: Adobe Illustrator 18.0.0, SVG Export Plug-In . SVG Version: 6.00 Build 0)  -->
<!DOCTYPE svg PUBLIC "-//W3C//DTD SVG 1.1//EN" "http://www.w3.org/Graphics/SVG/1.1/DTD/svg11.dtd">
<svg version="1.1" id="Capa_1" xmlns="http://www.w3.org/2000/svg" xmlns:xlink="http://www.w3.org/1999/xlink" x="0px" y="0px"
	 viewBox="0 0 443.932 443.932" style="enable-background:new 0 0 443.932 443.932;" xml:space="preserve">
<path style="fill:#231F20;" d="M316.715,210.589c14.966-9.604,24.701-26.372,24.701-45.843c0-0.142-0.007-0.289-0.018-0.438
	c-0.072-13.22-4.04-26.697-11.798-40.069l-23.353-45.015l10.956-63.4c0.157-0.824,0.237-1.669,0.237-2.513
	C317.44,5.971,311.469,0,304.13,0c-2.807,0-5.868,1.117-8.13,2.764c-0.101,0.068,0.097-0.075,0,0l-74.034,57.218L147.932,2.764
	c-0.097-0.075,0.101,0.068,0,0C145.67,1.117,142.608,0,139.802,0c-7.339,0-13.31,5.971-13.31,13.311c0,0.844,0.08,1.689,0.237,2.513
	l10.956,63.401l-23.354,45.014c-7.751,13.36-11.718,26.825-11.798,40.034c-0.013,0.158-0.019,0.316-0.019,0.474
	c0,19.471,9.735,36.239,24.701,45.843c14.888,39.967,7.333,86.8-20.247,125.354c-1.624,2.271-1.468,5.362,0.378,7.457l0.072,0.082
	c0.738,0.838,1.696,1.454,2.766,1.777c21.001,6.349,39.838,18.426,54.477,34.927c14.742,16.618,24.502,36.935,28.227,58.755
	c0.491,2.883,2.99,4.991,5.914,4.991h46.326c2.924,0,5.423-2.108,5.914-4.991c3.725-21.82,13.484-42.137,28.227-58.755
	c14.639-16.501,33.476-28.578,54.477-34.927c1.069-0.323,2.027-0.938,2.766-1.777l0.072-0.082c1.846-2.095,2.002-5.186,0.378-7.457
	C309.382,297.389,301.827,250.556,316.715,210.589z M303.108,12.437c0.075-0.053,0.15-0.109,0.224-0.166
	c0.231-0.18,0.5-0.271,0.798-0.271c0.722,0,1.31,0.588,1.31,1.311c0,0.057-0.003,0.113-0.01,0.167
	c-0.001,0.008-0.003,0.016-0.004,0.025l-11.25,65.102c-0.025,0.097-0.067,0.186-0.088,0.285
	c-0.034,0.163-3.239,12.131-23.908,18.354l-38.401-29.679L303.108,12.437z M254.466,100.266c-4.002,0.415-8.396,0.649-13.231,0.649
	h-38.537c-4.844,0-9.242-0.229-13.247-0.637l32.516-25.13L254.466,100.266z M139.802,12c0.298,0,0.566,0.091,0.798,0.271
	c0.073,0.057,0.147,0.112,0.224,0.166l71.331,55.128l-38.466,29.729c-20.381-6.064-23.662-17.692-23.864-18.494
	c-0.018-0.08-0.054-0.151-0.074-0.229l-11.244-65.067c-0.001-0.009-0.003-0.017-0.004-0.025c-0.007-0.054-0.01-0.11-0.01-0.167
	C138.492,12.588,139.08,12,139.802,12z M270.293,372.222c-15.102,17.023-25.455,37.577-30.127,59.71h-36.4
	c-4.672-22.133-15.025-42.686-30.127-59.71c-14.333-16.157-32.331-28.463-52.411-35.905c23.947-37.033,31.411-80.334,20.708-119.157
	c4.761,1.32,9.796,2.039,15.033,2.039c3.313,0,6-2.687,6-6c0-3.314-2.687-6-6-6c-11.488,0-22.164-4.283-30.061-12.059
	c-7.907-7.788-12.3-18.439-12.391-30.024c0.01-0.146,0.016-0.293,0.016-0.439c0-11.231,3.446-22.849,10.244-34.529
	c0.049-0.084,0.096-0.169,0.141-0.255l19.278-37.159c7.467,9.055,23.72,20.182,58.501,20.182h38.537
	c34.781,0,51.034-11.127,58.501-20.182l19.278,37.159c0.045,0.086,0.092,0.171,0.141,0.255c6.798,11.68,10.244,23.297,10.244,34.529
	c0,0.133,0.006,0.27,0.017,0.41c-0.084,11.598-4.478,22.259-12.392,30.054c-7.896,7.776-18.572,12.059-30.06,12.059
	c-3.314,0-6,2.686-6,6c0,3.313,2.686,6,6,6c5.237,0,10.272-0.719,15.034-2.039c-10.704,38.824-3.24,82.124,20.707,119.157
	C302.624,343.758,284.626,356.065,270.293,372.222z"/>
<g>
</g>
<g>
</g>
<g>
</g>
<g>
</g>
<g>
</g>
<g>
</g>
<g>
</g>
<g>
</g>
<g>
</g>
<g>
</g>
<g>
</g>
<g>
</g>
<g>
</g>
<g>
</g>
<g>
</g>
</svg>
