<?xml version="1.0" encoding="iso-8859-1"?>
<!-- Generator: Adobe Illustrator 18.0.0, SVG Export Plug-In . SVG Version: 6.00 Build 0)  -->
<!DOCTYPE svg PUBLIC "-//W3C//DTD SVG 1.1//EN" "http://www.w3.org/Graphics/SVG/1.1/DTD/svg11.dtd">
<svg version="1.1" id="Capa_1" xmlns="http://www.w3.org/2000/svg" xmlns:xlink="http://www.w3.org/1999/xlink" x="0px" y="0px"
	 viewBox="0 0 463.949 463.949" style="enable-background:new 0 0 463.949 463.949;" xml:space="preserve">
<path style="fill:#231F20;" d="M448.111,275.192c-0.25-0.064-0.499-0.105-0.748-0.137l-99.232-18.606l-10.815-63.021
	c-0.123-0.996-0.691-4.98-2.438-10.636c5.995-3.074,12.647-5.037,19.686-5.621c2.992,6.935,9.892,11.803,17.91,11.803
	c10.752,0,19.5-8.748,19.5-19.5s-8.748-19.5-19.5-19.5c-9.291,0-17.073,6.537-19.02,15.251c-8.164,0.69-15.904,2.884-22.936,6.323
	c-2.346-4.999-5.471-10.443-9.634-15.892c-23.589-30.867-61.37-37.347-88.911-37.347s-65.323,6.479-88.912,37.347
	c-13.571,17.76-16.149,35.501-16.431,37.771l-10.813,63.021l-99.229,18.605c-0.25,0.031-0.5,0.073-0.751,0.138
	C6.513,277.59,0,285.997,0,295.639c0,27.57,22.43,50,50,50h65.949c0.012,0,0.023-0.002,0.036-0.002
	c0.136,0.001,0.271,0.001,0.407,0.001c12.816,0,25.249-3.375,36.225-9.782c10.977,6.408,23.405,9.783,36.188,9.783
	c0.159,0,0.32-0.001,0.479-0.002h85.344c12.998,0.066,25.594-3.297,36.705-9.781c10.978,6.408,23.409,9.782,36.226,9.782
	c0.136,0,0.272,0,0.407-0.001c0.012,0,0.023,0.002,0.035,0.002h65.949c27.57,0,50-22.43,50-50
	C463.949,285.997,457.437,277.59,448.111,275.192z M372.475,161.975c4.136,0,7.5,3.364,7.5,7.5s-3.364,7.5-7.5,7.5
	c-4.136,0-7.5-3.364-7.5-7.5S368.339,161.975,372.475,161.975z M325.411,194.935c0.014,0.125,0.031,0.248,0.053,0.371l5.446,31.735
	h-24.85c0.813-14.83,7.757-28.047,18.329-37.175C325.172,192.98,325.405,194.886,325.411,194.935z M138.537,194.935
	c0.017-0.158,1.85-16.013,14.061-31.99c16.548-21.654,43.254-32.634,79.377-32.634c35.853,0,62.44,10.825,79.023,32.174
	c4.103,5.283,7.063,10.602,9.192,15.363c-15.166,11.313-25.242,29.079-26.141,49.193h-161.01l5.446-31.735
	C138.506,195.183,138.523,195.06,138.537,194.935z M413.949,333.639H348.04c-0.014,0-0.026-0.002-0.039-0.002
	c-0.014,0-0.027,0-0.04,0c-11.872,0.117-23.389-3.313-33.273-9.802c-0.186-0.125-0.377-0.237-0.574-0.34
	c-0.035-0.018-0.072-0.034-0.109-0.052c-0.136-0.068-0.272-0.133-0.413-0.191c-0.079-0.032-0.16-0.058-0.241-0.087
	c-0.099-0.035-0.197-0.072-0.299-0.103c-0.102-0.03-0.204-0.054-0.307-0.079c-0.084-0.02-0.167-0.042-0.251-0.059
	c-0.108-0.022-0.216-0.035-0.324-0.051c-0.084-0.012-0.167-0.025-0.251-0.033c-0.104-0.01-0.205-0.014-0.308-0.019
	c-0.093-0.005-0.185-0.011-0.277-0.011s-0.185,0.006-0.277,0.011c-0.103,0.005-0.205,0.009-0.308,0.019
	c-0.084,0.008-0.168,0.022-0.251,0.033c-0.108,0.016-0.217,0.029-0.324,0.051c-0.084,0.017-0.167,0.039-0.251,0.059
	c-0.103,0.025-0.205,0.049-0.308,0.079c-0.1,0.03-0.198,0.067-0.298,0.103c-0.08,0.029-0.162,0.055-0.242,0.088
	c-0.14,0.057-0.276,0.121-0.412,0.19c-0.037,0.017-0.074,0.033-0.11,0.052c-0.196,0.102-0.389,0.215-0.574,0.34
	c-9.885,6.49-21.393,9.857-33.311,9.802h-85.422c-11.911,0.081-23.398-3.315-33.286-9.811c-0.012-0.008-0.024-0.015-0.036-0.022
	c-0.003-0.002-0.005-0.003-0.007-0.005c-0.007-0.005-0.015-0.009-0.022-0.014c-0.158-0.101-0.319-0.197-0.484-0.284
	c-0.066-0.035-0.135-0.064-0.202-0.096c-0.106-0.051-0.211-0.103-0.32-0.147c-0.103-0.042-0.208-0.076-0.312-0.112
	c-0.077-0.026-0.152-0.056-0.229-0.079c-0.119-0.035-0.238-0.063-0.357-0.091c-0.068-0.017-0.135-0.034-0.204-0.048
	c-0.118-0.023-0.236-0.04-0.355-0.056c-0.075-0.011-0.149-0.022-0.225-0.03c-0.107-0.011-0.213-0.015-0.319-0.02
	c-0.09-0.004-0.18-0.01-0.27-0.01c-0.09,0-0.18,0.006-0.27,0.01c-0.106,0.005-0.213,0.009-0.319,0.02
	c-0.075,0.008-0.149,0.02-0.223,0.029c-0.119,0.017-0.238,0.033-0.357,0.057c-0.067,0.014-0.133,0.031-0.199,0.047
	c-0.121,0.028-0.242,0.057-0.362,0.093c-0.075,0.022-0.147,0.05-0.221,0.075c-0.107,0.037-0.214,0.072-0.32,0.116
	c-0.103,0.042-0.203,0.092-0.304,0.14c-0.073,0.035-0.146,0.065-0.218,0.104c-0.16,0.084-0.316,0.177-0.468,0.275
	c-0.012,0.008-0.024,0.014-0.037,0.021c-0.004,0.002-0.008,0.005-0.012,0.008c-0.01,0.006-0.02,0.012-0.03,0.019
	c-9.776,6.424-21.137,9.813-32.885,9.813c-0.148-0.001-0.299-0.007-0.442-0.001c-0.013,0-0.026,0.002-0.039,0.002H50
	c-20.953,0-38-17.047-38-38c0-4.07,2.688-7.625,6.566-8.744l103.503-19.408H341.88l103.501,19.407
	c3.88,1.12,6.568,4.674,6.568,8.745C451.949,316.592,434.902,333.639,413.949,333.639z"/>
<g>
</g>
<g>
</g>
<g>
</g>
<g>
</g>
<g>
</g>
<g>
</g>
<g>
</g>
<g>
</g>
<g>
</g>
<g>
</g>
<g>
</g>
<g>
</g>
<g>
</g>
<g>
</g>
<g>
</g>
</svg>
