<?xml version="1.0" encoding="iso-8859-1"?>
<!-- Generator: Adobe Illustrator 18.0.0, SVG Export Plug-In . SVG Version: 6.00 Build 0)  -->
<!DOCTYPE svg PUBLIC "-//W3C//DTD SVG 1.1//EN" "http://www.w3.org/Graphics/SVG/1.1/DTD/svg11.dtd">
<svg version="1.1" id="Capa_1" xmlns="http://www.w3.org/2000/svg" xmlns:xlink="http://www.w3.org/1999/xlink" x="0px" y="0px"
	 viewBox="0 0 482.374 482.374" style="enable-background:new 0 0 482.374 482.374;" xml:space="preserve">
<g>
	<path style="fill:#231F20;" d="M223.285,47.478h-60.334c-3.314,0-6,2.687-6,6v42.437c0,8.845,7.196,16.041,16.041,16.041h40.252
		c8.845,0,16.041-7.196,16.041-16.041V53.478C229.285,50.165,226.599,47.478,223.285,47.478z M207.744,59.478l-14.625,9.998
		l-14.626-9.998H207.744z M213.244,99.956h-40.252c-2.229,0-4.041-1.813-4.041-4.041V67.491l20.782,14.206
		c1.02,0.698,2.203,1.047,3.386,1.047c1.183,0,2.365-0.349,3.386-1.047l20.78-14.206v28.424
		C217.285,98.144,215.473,99.956,213.244,99.956z"/>
	<path style="fill:#231F20;" d="M325.424,53.478c0-3.313-2.686-6-6-6H259.09c-3.313,0-6,2.687-6,6v42.437
		c0,8.845,7.196,16.041,16.041,16.041h40.254c8.844,0,16.039-7.196,16.039-16.041V53.478z M303.883,59.478l-14.625,9.998
		l-14.625-9.998H303.883z M309.385,99.956h-40.254c-2.229,0-4.041-1.813-4.041-4.041V67.489l20.782,14.208
		c1.021,0.698,2.203,1.047,3.386,1.047s2.365-0.349,3.386-1.047l20.78-14.206v28.424C313.424,98.144,311.613,99.956,309.385,99.956z
		"/>
	<path style="fill:#231F20;" d="M350.985,110.59c0.004-0.208,0.022-0.414,0.022-0.623c0-0.424-0.045-0.837-0.129-1.237
		c-1.359-23.477-3.801-48.185-7.334-74.987c-0.06-0.451-0.172-0.881-0.322-1.291c0.225-0.631,0.355-1.308,0.355-2.017V6
		c0-3.313-2.687-6-6-6H144.799c-3.313,0-6,2.687-6,6v24.435c0,0.708,0.129,1.385,0.354,2.016c-0.15,0.41-0.263,0.84-0.322,1.292
		c-11.464,86.95-11.481,151.928-0.044,223.977c-9.182,58.475-1.22,107.511,7.999,164.236c2.867,17.648,5.833,35.896,8.379,55.203
		c0.394,2.985,2.938,5.216,5.948,5.216h47.792c3.011,0,5.555-2.231,5.948-5.216c2.546-19.307,5.512-37.557,8.38-55.206
		c9.212-56.681,17.167-105.684,8.02-164.099c6.99-47.83,9.296-81.742,8.485-124.698h2.898c-0.811,42.956,1.494,76.868,8.484,124.694
		c-9.148,58.416-1.192,107.419,8.02,164.1c2.869,17.65,5.835,35.9,8.381,55.208c0.393,2.985,2.938,5.216,5.948,5.216h47.791
		c3.011,0,5.555-2.231,5.948-5.216c2.546-19.307,5.512-37.557,8.38-55.206c9.219-56.724,17.181-105.759,7.999-164.233
		C351.406,208.466,353.871,162.513,350.985,110.59z M174.043,24.435V12h21.572v12.435H174.043z M207.615,12h67.145v12.435h-67.145
		V12z M286.76,12h21.572v12.435H286.76V12z M320.332,12h11.243v12.435h-11.243V12z M150.799,12h11.244v12.435h-11.244V12z
		 M166.362,470.374c-0.586-4.277-1.189-8.499-1.805-12.674h40.905c-0.615,4.175-1.22,8.397-1.805,12.674H166.362z M278.718,470.374
		c-0.585-4.277-1.189-8.499-1.805-12.674h40.904c-0.615,4.175-1.22,8.397-1.805,12.674H278.718z M323.744,420.028
		c-1.365,8.401-2.752,16.942-4.107,25.672h-44.543c-1.357-8.73-2.743-17.273-4.108-25.675
		c-8.777-54.005-16.395-100.913-8.757-155.288l24.156,10.393c0.772,0.332,1.577,0.49,2.368,0.49c2.324,0,4.537-1.359,5.515-3.63
		c1.31-3.044-0.097-6.573-3.141-7.883l-16.118-6.935l19.921-6.708c3.14-1.058,4.829-4.461,3.771-7.601
		c-1.058-3.141-4.463-4.827-7.602-3.772l-29.137,9.812c-6.093-43.466-8.093-75.591-7.324-115.747h7.233c3.313,0,6-2.687,6-6
		c0-3.313-2.687-6-6-6h-41.37c-2.688,0-5.048,1.788-5.775,4.375c-0.729,2.587,0.354,5.343,2.646,6.745l10.449,6.385
		c0.486,37.635-1.6,68.781-7.41,110.242l-29.137-9.811c-3.145-1.056-6.544,0.631-7.602,3.772c-1.058,3.14,0.632,6.543,3.771,7.601
		l19.921,6.708l-16.118,6.935c-3.044,1.31-4.45,4.839-3.141,7.883c0.978,2.272,3.189,3.63,5.515,3.63
		c0.791,0,1.596-0.157,2.368-0.49l24.155-10.393c7.638,54.376,0.021,101.283-8.757,155.29c-1.365,8.401-2.752,16.942-4.107,25.672
		h-44.545c-1.355-8.729-2.741-17.269-4.106-25.669c-9.103-56.013-16.964-104.387-7.848-161.378c0.002-0.013,0.002-0.025,0.004-0.038
		c0.019-0.117,0.027-0.235,0.038-0.354c0.009-0.086,0.021-0.172,0.024-0.257c0.004-0.077,0.001-0.154,0.002-0.231
		c0.001-0.13,0.004-0.26-0.003-0.389c-0.002-0.035-0.008-0.071-0.01-0.106c-0.012-0.17-0.029-0.338-0.055-0.505
		c-0.001-0.005-0.001-0.01-0.002-0.015c-6.491-40.58-9.281-78.877-8.385-120.25c2.601,2.684,5.601,5.02,8.97,6.876
		c0.919,0.506,1.911,0.746,2.89,0.746c2.116,0,4.168-1.122,5.261-3.106c1.6-2.902,0.543-6.551-2.359-8.15
		c-8.347-4.598-13.532-13.375-13.532-22.906c0-0.385-0.04-0.759-0.109-1.124c1.328-22.687,3.682-46.561,7.067-72.408h181.208
		c3.484,26.605,5.881,51.124,7.186,74.407c-0.308,9.189-5.413,17.574-13.503,22.031c-2.902,1.599-3.959,5.248-2.359,8.15
		c1.093,1.984,3.145,3.106,5.261,3.106c0.979,0,1.972-0.24,2.89-0.746c3.261-1.796,6.177-4.04,8.719-6.615
		c0.88,41.273-1.913,79.495-8.39,119.988c-0.001,0.005-0.001,0.01-0.002,0.015c-0.025,0.167-0.043,0.335-0.055,0.505
		c-0.002,0.035-0.008,0.071-0.01,0.106c-0.007,0.129-0.004,0.259-0.003,0.389c0.001,0.077-0.002,0.154,0.002,0.231
		c0.004,0.085,0.016,0.171,0.024,0.257c0.011,0.119,0.02,0.237,0.038,0.354c0.002,0.013,0.002,0.025,0.004,0.038
		C340.709,315.643,332.848,364.016,323.744,420.028z"/>
</g>
<g>
</g>
<g>
</g>
<g>
</g>
<g>
</g>
<g>
</g>
<g>
</g>
<g>
</g>
<g>
</g>
<g>
</g>
<g>
</g>
<g>
</g>
<g>
</g>
<g>
</g>
<g>
</g>
<g>
</g>
</svg>
