<?xml version="1.0" encoding="iso-8859-1"?>
<!-- Generator: Adobe Illustrator 18.0.0, SVG Export Plug-In . SVG Version: 6.00 Build 0)  -->
<!DOCTYPE svg PUBLIC "-//W3C//DTD SVG 1.1//EN" "http://www.w3.org/Graphics/SVG/1.1/DTD/svg11.dtd">
<svg version="1.1" id="Capa_1" xmlns="http://www.w3.org/2000/svg" xmlns:xlink="http://www.w3.org/1999/xlink" x="0px" y="0px"
	 viewBox="0 0 408.247 408.247" style="enable-background:new 0 0 408.247 408.247;" xml:space="preserve">
<path style="fill:#231F20;" d="M408.042,250.64L361.69,77.486c-0.005-0.018-0.012-0.034-0.017-0.052
	c-0.013-0.047-0.02-0.094-0.035-0.141c-7.44-24.497-27.751-42.223-53.012-46.276c-0.003,0-0.007-0.001-0.01-0.002l-0.051-0.009
	c0,0-0.003,0-0.004,0h-0.001l-36.351-6.147c-0.378-0.064-0.753-0.087-1.123-0.08c-2.573-0.075-5.002,1.521-5.863,4.088
	c-5.763,17.181-40.271,23.147-60.788,22.875l-0.705,0.001c-20.441,0.275-54.945-5.693-60.708-22.876
	c-0.86-2.568-3.294-4.165-5.867-4.088c-0.368-0.007-0.742,0.017-1.119,0.081l-36.351,6.147h-0.001c0,0-0.003,0.001-0.004,0.001
	l-0.051,0.009c-0.003,0-0.007,0.001-0.01,0.002C74.36,35.072,54.049,52.797,46.609,77.294c-0.015,0.047-0.022,0.094-0.035,0.141
	c-0.005,0.018-0.012,0.034-0.017,0.052L0.204,250.641c-0.54,2.016,0.007,4.167,1.443,5.681c1.436,1.514,3.557,2.171,5.598,1.74
	c0.212-0.046,21.569-4.463,38.898,1.459c7.981,2.727,10.862,6.128,14.509,10.434c4.063,4.798,8.669,10.236,19.786,14.034
	c5.254,1.795,9.622,2.41,13.448,2.41c0.223,0,0.432-0.016,0.65-0.02l-8.091,90.299c-0.034,0.259-0.058,0.522-0.058,0.79
	c0,2.923,2.092,5.356,4.86,5.889c0.021,0.004,0.042,0.006,0.063,0.01c0.172,0.031,0.346,0.057,0.523,0.074
	c0.01,0.001,0.019,0.003,0.028,0.004c0.157,0.014,0.313,0.019,0.47,0.021c0.018,0,0.036,0.003,0.055,0.003c0.002,0,0.004,0,0.005,0
	c0.005,0,0.009,0,0.013,0c0.003,0,0.006-0.001,0.009-0.001c15.184-0.004,23.201-3.449,30.275-6.488
	c6.599-2.835,12.831-5.514,25.563-5.514c12.732,0,18.966,2.678,25.565,5.514c7.078,3.042,15.101,6.488,30.302,6.488
	c15.2,0,23.223-3.447,30.301-6.488c6.6-2.835,12.833-5.514,25.565-5.514c12.733,0,18.967,2.678,25.567,5.514
	c7.074,3.04,15.093,6.484,30.277,6.488c0.003,0,0.006,0.001,0.009,0.001c0.004,0,0.008,0,0.013,0c0,0,0.003,0,0.005,0
	c0.018,0,0.037-0.002,0.055-0.003c0.156-0.002,0.313-0.007,0.47-0.021c0.01-0.001,0.018-0.003,0.028-0.004
	c0.178-0.017,0.352-0.043,0.523-0.074c0.021-0.004,0.043-0.006,0.064-0.01c2.769-0.533,4.86-2.965,4.86-5.889
	c0-0.269-0.023-0.531-0.058-0.79l-8.091-90.3c0.219,0.004,0.428,0.02,0.65,0.02c3.825,0,8.194-0.615,13.447-2.41
	c11.118-3.798,15.724-9.236,19.787-14.034c3.647-4.306,6.527-7.707,14.509-10.434c17.245-5.894,38.691-1.504,38.898-1.46
	c2.043,0.431,4.162-0.227,5.598-1.74C408.035,254.808,408.582,252.656,408.042,250.64z M202.207,63.754
	c0.543,0,1.079-0.004,1.604-0.011l0.545,0c17.82,0.226,46.731-3.495,62.556-17.13c-6.576,27.859-31.632,48.661-61.472,48.661h-2.632
	c-29.842,0-54.899-20.805-61.474-48.667C156.678,59.846,184.323,63.754,202.207,63.754z M259.987,359.467
	c-15.201,0-23.224,3.447-30.303,6.488c-6.599,2.836-12.832,5.514-25.563,5.514c-12.732,0-18.966-2.678-25.566-5.514
	c-7.078-3.042-15.1-6.488-30.302-6.488c-15.2,0-23.223,3.447-30.3,6.488c-5.346,2.297-10.453,4.49-18.968,5.24l1.868-20.852
	c10.777-0.83,17.335-3.634,23.17-6.141c6.485-2.787,12.611-5.419,25.121-5.419c12.512,0,18.638,2.632,25.124,5.419
	c6.975,2.997,14.88,6.393,29.859,6.393c14.98,0,22.885-3.397,29.859-6.394c6.485-2.787,12.61-5.419,25.122-5.419
	c12.512,0,18.639,2.632,25.125,5.418c5.84,2.509,12.38,5.31,23.158,6.143l1.868,20.851c-8.516-0.75-13.624-2.943-18.971-5.24
	C283.212,362.914,275.189,359.467,259.987,359.467z M358.222,248.165c-11.116,3.798-15.722,9.236-19.785,14.034
	c-3.646,4.306-6.527,7.707-14.51,10.434c-4.762,1.628-8.261,1.93-11.296,1.711l-5.786-64.579c0.045-8.144,2.194-14.351,4.469-20.919
	c2.305-6.658,4.689-13.542,4.579-22.099c0.108-8.55-2.271-15.417-4.574-22.059c-0.451-1.301-0.891-2.589-1.316-3.88
	c0.178-0.088,0.355-0.173,0.527-0.28l7.212-4.515c2.809-1.758,3.66-5.461,1.902-8.27c-1.758-2.809-5.461-3.66-8.27-1.902
	l-4.237,2.653c-0.177-1.604-0.292-3.26-0.292-5.025c0-3.314-2.686-6-6-6s-6,2.686-6,6c0,10.333,2.729,18.205,5.137,25.151
	c2.15,6.203,4.008,11.56,3.913,18.04c-0.001,0.059-0.001,0.117,0,0.176c0.096,6.487-1.766,11.86-3.92,18.081
	c-2.405,6.944-5.131,14.815-5.131,25.107c0,0.179,0.008,0.357,0.024,0.536l11.436,127.637c-7.587-0.836-12.349-2.88-17.334-5.022
	c-6.975-2.997-14.881-6.393-29.861-6.393c-14.98,0-22.886,3.397-29.86,6.393c-6.485,2.787-12.61,5.419-25.121,5.419
	c-12.511,0-18.637-2.632-25.123-5.419c-6.975-2.997-14.88-6.393-29.86-6.393c-14.98,0-22.884,3.397-29.858,6.393
	c-4.989,2.144-9.76,4.184-17.345,5.018l11.437-127.634c0.017-0.178,0.024-0.357,0.024-0.536c0-10.292-2.727-18.164-5.132-25.108
	c-2.135-6.166-3.981-11.499-3.922-17.909c0.005-0.116,0.007-0.232,0.005-0.349c-0.096-6.48,1.762-11.838,3.912-18.042
	c2.407-6.945,5.136-14.816,5.136-25.148c0-3.314-2.687-6-6-6s-6,2.686-6,6c0,1.788-0.117,3.466-0.298,5.088l-4.339-2.716
	c-2.811-1.759-6.512-0.907-8.27,1.902c-1.758,2.809-0.906,6.511,1.902,8.27l7.212,4.515c0.201,0.126,0.41,0.229,0.619,0.329
	c-0.421,1.275-0.855,2.546-1.301,3.831c-2.293,6.613-4.662,13.449-4.575,21.947c0,0.008,0,0.017,0,0.025
	c-0.126,8.597,2.266,15.504,4.579,22.184c2.275,6.569,4.425,12.776,4.47,20.921l-5.786,64.58c-3.034,0.218-6.533-0.084-11.297-1.711
	c-7.981-2.727-10.862-6.128-14.509-10.434c-4.063-4.798-8.669-10.235-19.785-14.034c-12.763-4.361-26.856-4.077-35.88-3.195
	L58.128,80.666c6.131-20.028,22.767-34.511,43.447-37.808c0.013-0.002,0.025-0.006,0.036-0.008c0.007-0.001,0.013,0,0.019-0.001
	l26.288-4.445c3.214,38.51,35.562,68.871,74.89,68.871h2.632c39.326,0,71.675-30.361,74.889-68.872l26.288,4.445
	c0.006,0.001,0.012,0,0.018,0.001c0.012,0.002,0.023,0.006,0.036,0.008c20.681,3.297,37.316,17.78,43.447,37.808l43.983,164.305
	C385.078,244.089,370.986,243.804,358.222,248.165z"/>
<g>
</g>
<g>
</g>
<g>
</g>
<g>
</g>
<g>
</g>
<g>
</g>
<g>
</g>
<g>
</g>
<g>
</g>
<g>
</g>
<g>
</g>
<g>
</g>
<g>
</g>
<g>
</g>
<g>
</g>
</svg>
