<?xml version="1.0" encoding="iso-8859-1"?>
<!-- Generator: Adobe Illustrator 18.0.0, SVG Export Plug-In . SVG Version: 6.00 Build 0)  -->
<!DOCTYPE svg PUBLIC "-//W3C//DTD SVG 1.1//EN" "http://www.w3.org/Graphics/SVG/1.1/DTD/svg11.dtd">
<svg version="1.1" id="Capa_1" xmlns="http://www.w3.org/2000/svg" xmlns:xlink="http://www.w3.org/1999/xlink" x="0px" y="0px"
	 viewBox="0 0 430.361 430.361" style="enable-background:new 0 0 430.361 430.361;" xml:space="preserve">
<path style="fill:#231F20;" d="M355.72,211.727c0.734-11.324,1.471-65.261-45.675-109.8c-11.058-10.446-19.369-19.607-26.703-27.689
	c-10.757-11.855-19.239-21.2-30.015-27.34c2.369-2.005,3.884-4.991,3.891-8.325c0.008-2.74-0.997-5.252-2.66-7.18
	c0.836-2.502,0.744-5.19-0.275-7.652c-1.018-2.457-2.848-4.395-5.106-5.555c-0.205-2.585-1.308-4.987-3.152-6.838
	c-1.88-1.891-4.324-3.011-6.955-3.202c-1.178-2.363-3.146-4.2-5.601-5.215c-2.419-1.005-5.163-1.082-7.553-0.315
	c-1.908-1.622-4.381-2.606-7.088-2.616c-2.721,0-5.215,1.001-7.134,2.655c-2.414-0.805-5.208-0.742-7.663,0.274
	c-2.485,1.03-4.391,2.878-5.535,5.104c-2.586,0.201-4.994,1.302-6.854,3.15c-1.888,1.877-3.007,4.32-3.199,6.95
	c-2.308,1.153-4.18,3.112-5.213,5.609c-1.031,2.491-1.07,5.15-0.302,7.536c-1.626,1.906-2.611,4.374-2.619,7.067
	c-0.006,2.708,0.982,5.188,2.611,7.105c-12.109,6.069-21.095,15.956-32.739,28.79c-7.332,8.082-15.644,17.242-26.697,27.686
	c-45.755,43.223-46.412,95.293-45.74,108.683c-8.36,2.24-14.544,9.862-14.544,18.921v1.078c0,10.812,8.795,19.607,19.605,19.607
	h142.365v73.234c0,25.646,20.864,46.512,46.51,46.512h2.084v26.055c-6.814,2.467-11.707,8.983-11.707,16.639
	c0,9.763,7.943,17.705,17.707,17.705c9.763,0,17.705-7.942,17.705-17.705c0-7.654-4.891-14.172-11.705-16.638v-26.081
	c25.186-0.535,45.512-21.175,45.512-46.486v-73.234h16.279c10.81,0,19.605-8.796,19.605-19.607v-1.078
	C367.161,221.636,362.46,214.832,355.72,211.727z M75.2,230.609v-1.078c0-4.194,3.412-7.607,7.605-7.607
	c0.142,0,0.279-0.012,0.418-0.021c0.248,0.031,0.498,0.053,0.754,0.053h121.878l9.729,16.262H82.806
	C78.612,238.217,75.2,234.804,75.2,230.609z M279.765,418.361c-3.146,0-5.707-2.56-5.707-5.705c0-3.146,2.561-5.707,5.707-5.707
	c3.146,0,5.705,2.561,5.705,5.707C285.47,415.802,282.91,418.361,279.765,418.361z M284.767,357.963h-13.086
	c-19.028,0-34.51-15.481-34.51-34.512V221.924h13.721c3.313,0,6-2.686,6-6c0-3.313-2.686-6-6-6h-27.508
	c-0.208,0-0.413,0.011-0.615,0.031H89.751c-0.458-11.487,0.318-59.953,41.974-99.305c11.391-10.761,19.866-20.103,27.344-28.345
	c19.146-21.101,28.756-31.692,57.696-31.692c28.939,0,38.547,10.59,57.689,31.688c7.48,8.243,15.957,17.586,27.351,28.349
	c41.614,39.314,42.429,87.729,41.973,99.273h-30.112c-3.313,0-6,2.687-6,6c0,3.314,2.687,6,6,6h5.611v101.527
	C319.276,342.481,303.795,357.963,284.767,357.963z M355.161,230.609c0,4.194-3.412,7.607-7.605,7.607h-0.891l-9.747-16.293h10.638
	c4.193,0,7.605,3.413,7.605,7.607V230.609z"/>
<g>
</g>
<g>
</g>
<g>
</g>
<g>
</g>
<g>
</g>
<g>
</g>
<g>
</g>
<g>
</g>
<g>
</g>
<g>
</g>
<g>
</g>
<g>
</g>
<g>
</g>
<g>
</g>
<g>
</g>
</svg>
